<?xml version="1.0" encoding="utf-8" standalone="no"?>
<!DOCTYPE svg PUBLIC "-//W3C//DTD SVG 1.1//EN"
  "http://www.w3.org/Graphics/SVG/1.1/DTD/svg11.dtd">
<svg xmlns:xlink="http://www.w3.org/1999/xlink" width="576pt" height="360pt" viewBox="0 0 576 360" xmlns="http://www.w3.org/2000/svg" version="1.1">
 <metadata>
  <rdf:RDF xmlns:dc="http://purl.org/dc/elements/1.1/" xmlns:cc="http://creativecommons.org/ns#" xmlns:rdf="http://www.w3.org/1999/02/22-rdf-syntax-ns#">
   <cc:Work>
    <dc:type rdf:resource="http://purl.org/dc/dcmitype/StillImage"/>
    <dc:date>2024-10-19T10:23:52.402637</dc:date>
    <dc:format>image/svg+xml</dc:format>
    <dc:creator>
     <cc:Agent>
      <dc:title>Matplotlib v3.9.2, https://matplotlib.org/</dc:title>
     </cc:Agent>
    </dc:creator>
   </cc:Work>
  </rdf:RDF>
 </metadata>
 <defs>
  <style type="text/css">*{stroke-linejoin: round; stroke-linecap: butt}</style>
 </defs>
 <g id="figure_1">
  <g id="patch_1">
   <path d="M 0 360 
L 576 360 
L 576 0 
L 0 0 
z
" style="fill: #ffffff"/>
  </g>
  <g id="axes_1">
   <g id="patch_2">
    <path d="M 72 320.4 
L 518.4 320.4 
L 518.4 43.2 
L 72 43.2 
z
" style="fill: #ffffff"/>
   </g>
   <g id="matplotlib.axis_1">
    <g id="xtick_1">
     <g id="line2d_1">
      <defs>
       <path id="m5324983429" d="M 0 0 
L 0 3.5 
" style="stroke: #000000; stroke-width: 0.8"/>
      </defs>
      <g>
       <use xlink:href="#m5324983429" x="487.613793" y="320.4" style="stroke: #000000; stroke-width: 0.8"/>
      </g>
     </g>
     <g id="text_1">
      <!-- −50 -->
      <g transform="translate(477.921684 336.656406) scale(0.13 -0.13)">
       <defs>
        <path id="SourceSans3-Regular-2212" d="M 218 1914 
L 218 2310 
L 2963 2310 
L 2963 1914 
L 218 1914 
z
" transform="scale(0.015625)"/>
        <path id="SourceSans3-Regular-35" d="M 1498 -77 
Q 1171 -77 921 3 
Q 672 83 486 211 
Q 301 339 160 480 
L 416 826 
Q 602 646 845 502 
Q 1088 358 1446 358 
Q 1696 358 1897 473 
Q 2099 589 2220 797 
Q 2342 1005 2342 1293 
Q 2342 1715 2105 1952 
Q 1869 2189 1472 2189 
Q 1267 2189 1113 2125 
Q 960 2061 774 1939 
L 493 2118 
L 627 4083 
L 2669 4083 
L 2669 3629 
L 1088 3629 
L 979 2419 
Q 1126 2496 1273 2541 
Q 1421 2586 1606 2586 
Q 1958 2586 2246 2451 
Q 2534 2317 2704 2032 
Q 2874 1747 2874 1306 
Q 2874 864 2678 553 
Q 2483 243 2169 83 
Q 1856 -77 1498 -77 
z
" transform="scale(0.015625)"/>
        <path id="SourceSans3-Regular-30" d="M 1594 -77 
Q 979 -77 630 476 
Q 282 1030 282 2054 
Q 282 3085 630 3622 
Q 979 4160 1594 4160 
Q 2202 4160 2550 3619 
Q 2899 3078 2899 2054 
Q 2899 1030 2550 476 
Q 2202 -77 1594 -77 
z
M 1594 346 
Q 1830 346 2009 525 
Q 2189 704 2288 1081 
Q 2387 1459 2387 2054 
Q 2387 2656 2288 3027 
Q 2189 3398 2009 3568 
Q 1830 3738 1594 3738 
Q 1350 3738 1171 3568 
Q 992 3398 893 3027 
Q 794 2656 794 2054 
Q 794 1459 893 1081 
Q 992 704 1171 525 
Q 1350 346 1594 346 
z
" transform="scale(0.015625)"/>
       </defs>
       <use xlink:href="#SourceSans3-Regular-2212"/>
       <use xlink:href="#SourceSans3-Regular-35" x="49.699997"/>
       <use xlink:href="#SourceSans3-Regular-30" x="99.399994"/>
      </g>
     </g>
    </g>
    <g id="xtick_2">
     <g id="line2d_2">
      <g>
       <use xlink:href="#m5324983429" x="410.648276" y="320.4" style="stroke: #000000; stroke-width: 0.8"/>
      </g>
     </g>
     <g id="text_2">
      <!-- −45 -->
      <g transform="translate(400.956166 336.656406) scale(0.13 -0.13)">
       <defs>
        <path id="SourceSans3-Regular-34" d="M 1946 0 
L 1946 2733 
Q 1946 2893 1958 3126 
Q 1971 3360 1978 3520 
L 1952 3520 
Q 1875 3373 1792 3235 
Q 1709 3098 1619 2944 
L 666 1549 
L 3002 1549 
L 3002 1126 
L 109 1126 
L 109 1472 
L 1856 4083 
L 2445 4083 
L 2445 0 
L 1946 0 
z
" transform="scale(0.015625)"/>
       </defs>
       <use xlink:href="#SourceSans3-Regular-2212"/>
       <use xlink:href="#SourceSans3-Regular-34" x="49.699997"/>
       <use xlink:href="#SourceSans3-Regular-35" x="99.399994"/>
      </g>
     </g>
    </g>
    <g id="xtick_3">
     <g id="line2d_3">
      <g>
       <use xlink:href="#m5324983429" x="333.682759" y="320.4" style="stroke: #000000; stroke-width: 0.8"/>
      </g>
     </g>
     <g id="text_3">
      <!-- −40 -->
      <g transform="translate(323.990649 336.656406) scale(0.13 -0.13)">
       <use xlink:href="#SourceSans3-Regular-2212"/>
       <use xlink:href="#SourceSans3-Regular-34" x="49.699997"/>
       <use xlink:href="#SourceSans3-Regular-30" x="99.399994"/>
      </g>
     </g>
    </g>
    <g id="xtick_4">
     <g id="line2d_4">
      <g>
       <use xlink:href="#m5324983429" x="256.717241" y="320.4" style="stroke: #000000; stroke-width: 0.8"/>
      </g>
     </g>
     <g id="text_4">
      <!-- −35 -->
      <g transform="translate(247.025132 336.656406) scale(0.13 -0.13)">
       <defs>
        <path id="SourceSans3-Regular-33" d="M 1510 -77 
Q 1184 -77 931 6 
Q 678 90 492 218 
Q 307 346 166 499 
L 435 845 
Q 621 653 867 505 
Q 1114 358 1478 358 
Q 1850 358 2086 563 
Q 2323 768 2323 1107 
Q 2323 1350 2198 1532 
Q 2074 1715 1789 1817 
Q 1504 1920 1018 1920 
L 1018 2323 
Q 1453 2323 1705 2425 
Q 1958 2528 2067 2697 
Q 2176 2867 2176 3085 
Q 2176 3386 1987 3558 
Q 1798 3731 1472 3731 
Q 1216 3731 998 3616 
Q 781 3501 602 3315 
L 320 3648 
Q 557 3872 845 4016 
Q 1133 4160 1491 4160 
Q 1850 4160 2125 4038 
Q 2400 3917 2557 3686 
Q 2714 3456 2714 3123 
Q 2714 2752 2509 2515 
Q 2304 2278 1971 2150 
L 1971 2125 
Q 2221 2067 2419 1929 
Q 2618 1792 2736 1581 
Q 2854 1370 2854 1088 
Q 2854 723 2675 464 
Q 2496 205 2189 64 
Q 1882 -77 1510 -77 
z
" transform="scale(0.015625)"/>
       </defs>
       <use xlink:href="#SourceSans3-Regular-2212"/>
       <use xlink:href="#SourceSans3-Regular-33" x="49.699997"/>
       <use xlink:href="#SourceSans3-Regular-35" x="99.399994"/>
      </g>
     </g>
    </g>
    <g id="xtick_5">
     <g id="line2d_5">
      <g>
       <use xlink:href="#m5324983429" x="179.751724" y="320.4" style="stroke: #000000; stroke-width: 0.8"/>
      </g>
     </g>
     <g id="text_5">
      <!-- −30 -->
      <g transform="translate(170.059615 336.656406) scale(0.13 -0.13)">
       <use xlink:href="#SourceSans3-Regular-2212"/>
       <use xlink:href="#SourceSans3-Regular-33" x="49.699997"/>
       <use xlink:href="#SourceSans3-Regular-30" x="99.399994"/>
      </g>
     </g>
    </g>
    <g id="xtick_6">
     <g id="line2d_6">
      <g>
       <use xlink:href="#m5324983429" x="102.786207" y="320.4" style="stroke: #000000; stroke-width: 0.8"/>
      </g>
     </g>
     <g id="text_6">
      <!-- −25 -->
      <g transform="translate(93.094098 336.656406) scale(0.13 -0.13)">
       <defs>
        <path id="SourceSans3-Regular-32" d="M 256 0 
L 256 320 
Q 864 922 1296 1386 
Q 1728 1850 1952 2227 
Q 2176 2605 2176 2931 
Q 2176 3283 1984 3507 
Q 1792 3731 1402 3731 
Q 1146 3731 928 3590 
Q 710 3450 531 3238 
L 237 3526 
Q 493 3814 784 3987 
Q 1075 4160 1466 4160 
Q 1843 4160 2118 4009 
Q 2394 3859 2541 3590 
Q 2688 3322 2688 2963 
Q 2688 2566 2467 2176 
Q 2246 1786 1862 1357 
Q 1478 928 979 416 
Q 1146 435 1325 444 
Q 1504 454 1664 454 
L 2893 454 
L 2893 0 
L 256 0 
z
" transform="scale(0.015625)"/>
       </defs>
       <use xlink:href="#SourceSans3-Regular-2212"/>
       <use xlink:href="#SourceSans3-Regular-32" x="49.699997"/>
       <use xlink:href="#SourceSans3-Regular-35" x="99.399994"/>
      </g>
     </g>
    </g>
    <g id="text_7">
     <!-- RSSI [dbm] -->
     <g transform="translate(265.019687 352.577812) scale(0.13 -0.13)">
      <defs>
       <path id="SourceSans3-Regular-52" d="M 576 0 
L 576 4198 
L 1888 4198 
Q 2317 4198 2649 4086 
Q 2982 3974 3171 3715 
Q 3360 3456 3360 3021 
Q 3360 2598 3171 2323 
Q 2982 2048 2649 1910 
Q 2317 1773 1888 1773 
L 1107 1773 
L 1107 0 
L 576 0 
z
M 1107 2208 
L 1811 2208 
Q 2304 2208 2566 2409 
Q 2829 2611 2829 3021 
Q 2829 3430 2566 3600 
Q 2304 3770 1811 3770 
L 1107 3770 
L 1107 2208 
z
M 2880 0 
L 1786 1920 
L 2202 2202 
L 3482 0 
L 2880 0 
z
" transform="scale(0.015625)"/>
       <path id="SourceSans3-Regular-53" d="M 1741 -77 
Q 1293 -77 921 92 
Q 550 262 269 550 
L 570 896 
Q 794 659 1104 524 
Q 1414 390 1747 390 
Q 2163 390 2393 579 
Q 2624 768 2624 1075 
Q 2624 1293 2531 1421 
Q 2438 1549 2281 1638 
Q 2125 1728 1926 1818 
L 1325 2080 
Q 1120 2170 925 2304 
Q 730 2438 602 2646 
Q 474 2854 474 3162 
Q 474 3482 643 3734 
Q 813 3987 1110 4131 
Q 1408 4275 1792 4275 
Q 2176 4275 2496 4134 
Q 2816 3994 3034 3770 
L 2746 3424 
Q 2547 3597 2310 3702 
Q 2074 3808 1792 3808 
Q 1440 3808 1225 3641 
Q 1011 3475 1011 3194 
Q 1011 2995 1113 2867 
Q 1216 2739 1379 2656 
Q 1542 2573 1709 2496 
L 2304 2240 
Q 2554 2131 2749 1990 
Q 2944 1850 3056 1638 
Q 3168 1427 3168 1120 
Q 3168 787 2998 515 
Q 2829 243 2505 83 
Q 2182 -77 1741 -77 
z
" transform="scale(0.015625)"/>
       <path id="SourceSans3-Regular-49" d="M 576 0 
L 576 4198 
L 1107 4198 
L 1107 0 
L 576 0 
z
" transform="scale(0.015625)"/>
       <path id="SourceSans3-Regular-20" transform="scale(0.015625)"/>
       <path id="SourceSans3-Regular-5b" d="M 602 -973 
L 602 4531 
L 1747 4531 
L 1747 4230 
L 998 4230 
L 998 -672 
L 1747 -672 
L 1747 -973 
L 602 -973 
z
" transform="scale(0.015625)"/>
       <path id="SourceSans3-Regular-64" d="M 1587 -77 
Q 998 -77 649 348 
Q 301 774 301 1549 
Q 301 2054 489 2422 
Q 678 2790 985 2988 
Q 1293 3187 1651 3187 
Q 1926 3187 2121 3094 
Q 2317 3002 2522 2829 
L 2496 3360 
L 2496 4557 
L 3027 4557 
L 3027 0 
L 2592 0 
L 2547 365 
L 2528 365 
Q 2349 186 2105 54 
Q 1862 -77 1587 -77 
z
M 1702 365 
Q 1920 365 2112 473 
Q 2304 582 2496 794 
L 2496 2419 
Q 2304 2598 2118 2672 
Q 1933 2746 1741 2746 
Q 1491 2746 1289 2595 
Q 1088 2445 966 2179 
Q 845 1914 845 1555 
Q 845 998 1069 681 
Q 1293 365 1702 365 
z
" transform="scale(0.015625)"/>
       <path id="SourceSans3-Regular-62" d="M 1901 -77 
Q 1683 -77 1452 28 
Q 1222 134 1011 320 
L 992 320 
L 947 0 
L 525 0 
L 525 4557 
L 1050 4557 
L 1050 3315 
L 1037 2752 
Q 1248 2938 1501 3062 
Q 1754 3187 2010 3187 
Q 2413 3187 2688 2992 
Q 2963 2797 3104 2441 
Q 3245 2086 3245 1606 
Q 3245 1075 3056 697 
Q 2867 320 2560 121 
Q 2253 -77 1901 -77 
z
M 1811 365 
Q 2067 365 2268 512 
Q 2470 659 2585 937 
Q 2701 1216 2701 1600 
Q 2701 1939 2617 2198 
Q 2534 2458 2355 2602 
Q 2176 2746 1882 2746 
Q 1690 2746 1482 2640 
Q 1274 2534 1050 2323 
L 1050 691 
Q 1254 512 1456 438 
Q 1658 365 1811 365 
z
" transform="scale(0.015625)"/>
       <path id="SourceSans3-Regular-6d" d="M 525 0 
L 525 3110 
L 960 3110 
L 1005 2662 
L 1024 2662 
Q 1229 2880 1469 3033 
Q 1709 3187 1990 3187 
Q 2349 3187 2550 3027 
Q 2752 2867 2848 2592 
Q 3091 2861 3340 3024 
Q 3590 3187 3872 3187 
Q 4358 3187 4588 2876 
Q 4819 2566 4819 1971 
L 4819 0 
L 4294 0 
L 4294 1901 
Q 4294 2342 4153 2537 
Q 4013 2733 3718 2733 
Q 3533 2733 3344 2614 
Q 3155 2496 2938 2253 
L 2938 0 
L 2413 0 
L 2413 1901 
Q 2413 2342 2272 2537 
Q 2131 2733 1830 2733 
Q 1478 2733 1050 2253 
L 1050 0 
L 525 0 
z
" transform="scale(0.015625)"/>
       <path id="SourceSans3-Regular-5d" d="M 198 -973 
L 198 -672 
L 941 -672 
L 941 4230 
L 198 4230 
L 198 4531 
L 1338 4531 
L 1338 -973 
L 198 -973 
z
" transform="scale(0.015625)"/>
      </defs>
      <use xlink:href="#SourceSans3-Regular-52"/>
      <use xlink:href="#SourceSans3-Regular-53" x="56.899994"/>
      <use xlink:href="#SourceSans3-Regular-53" x="110.299988"/>
      <use xlink:href="#SourceSans3-Regular-49" x="163.699982"/>
      <use xlink:href="#SourceSans3-Regular-20" x="189.999969"/>
      <use xlink:href="#SourceSans3-Regular-5b" x="209.999954"/>
      <use xlink:href="#SourceSans3-Regular-64" x="240.299942"/>
      <use xlink:href="#SourceSans3-Regular-62" x="295.799927"/>
      <use xlink:href="#SourceSans3-Regular-6d" x="351.099915"/>
      <use xlink:href="#SourceSans3-Regular-5d" x="433.999908"/>
     </g>
    </g>
   </g>
   <g id="matplotlib.axis_2">
    <g id="ytick_1">
     <g id="line2d_7">
      <defs>
       <path id="mb79e3f2a49" d="M 0 0 
L -3.5 0 
" style="stroke: #000000; stroke-width: 0.8"/>
      </defs>
      <g>
       <use xlink:href="#mb79e3f2a49" x="72" y="319.315941" style="stroke: #000000; stroke-width: 0.8"/>
      </g>
     </g>
     <g id="text_8">
      <!-- 0 -->
      <g transform="translate(58.538594 323.944144) scale(0.13 -0.13)">
       <use xlink:href="#SourceSans3-Regular-30"/>
      </g>
     </g>
    </g>
    <g id="ytick_2">
     <g id="line2d_8">
      <g>
       <use xlink:href="#mb79e3f2a49" x="72" y="276.644073" style="stroke: #000000; stroke-width: 0.8"/>
      </g>
     </g>
     <g id="text_9">
      <!-- 10 -->
      <g transform="translate(52.077188 281.272276) scale(0.13 -0.13)">
       <defs>
        <path id="SourceSans3-Regular-31" d="M 506 0 
L 506 435 
L 1440 435 
L 1440 3443 
L 698 3443 
L 698 3782 
Q 973 3834 1184 3907 
Q 1395 3981 1562 4083 
L 1965 4083 
L 1965 435 
L 2810 435 
L 2810 0 
L 506 0 
z
" transform="scale(0.015625)"/>
       </defs>
       <use xlink:href="#SourceSans3-Regular-31"/>
       <use xlink:href="#SourceSans3-Regular-30" x="49.699997"/>
      </g>
     </g>
    </g>
    <g id="ytick_3">
     <g id="line2d_9">
      <g>
       <use xlink:href="#mb79e3f2a49" x="72" y="233.972205" style="stroke: #000000; stroke-width: 0.8"/>
      </g>
     </g>
     <g id="text_10">
      <!-- 20 -->
      <g transform="translate(52.077188 238.600409) scale(0.13 -0.13)">
       <use xlink:href="#SourceSans3-Regular-32"/>
       <use xlink:href="#SourceSans3-Regular-30" x="49.699997"/>
      </g>
     </g>
    </g>
    <g id="ytick_4">
     <g id="line2d_10">
      <g>
       <use xlink:href="#mb79e3f2a49" x="72" y="191.300338" style="stroke: #000000; stroke-width: 0.8"/>
      </g>
     </g>
     <g id="text_11">
      <!-- 30 -->
      <g transform="translate(52.077188 195.928541) scale(0.13 -0.13)">
       <use xlink:href="#SourceSans3-Regular-33"/>
       <use xlink:href="#SourceSans3-Regular-30" x="49.699997"/>
      </g>
     </g>
    </g>
    <g id="ytick_5">
     <g id="line2d_11">
      <g>
       <use xlink:href="#mb79e3f2a49" x="72" y="148.62847" style="stroke: #000000; stroke-width: 0.8"/>
      </g>
     </g>
     <g id="text_12">
      <!-- 40 -->
      <g transform="translate(52.077188 153.256673) scale(0.13 -0.13)">
       <use xlink:href="#SourceSans3-Regular-34"/>
       <use xlink:href="#SourceSans3-Regular-30" x="49.699997"/>
      </g>
     </g>
    </g>
    <g id="ytick_6">
     <g id="line2d_12">
      <g>
       <use xlink:href="#mb79e3f2a49" x="72" y="105.956603" style="stroke: #000000; stroke-width: 0.8"/>
      </g>
     </g>
     <g id="text_13">
      <!-- 50 -->
      <g transform="translate(52.077188 110.584806) scale(0.13 -0.13)">
       <use xlink:href="#SourceSans3-Regular-35"/>
       <use xlink:href="#SourceSans3-Regular-30" x="49.699997"/>
      </g>
     </g>
    </g>
    <g id="ytick_7">
     <g id="line2d_13">
      <g>
       <use xlink:href="#mb79e3f2a49" x="72" y="63.284735" style="stroke: #000000; stroke-width: 0.8"/>
      </g>
     </g>
     <g id="text_14">
      <!-- 60 -->
      <g transform="translate(52.077188 67.912938) scale(0.13 -0.13)">
       <defs>
        <path id="SourceSans3-Regular-36" d="M 1715 -77 
Q 1414 -77 1158 44 
Q 902 166 713 412 
Q 525 659 416 1027 
Q 307 1395 307 1888 
Q 307 2502 435 2934 
Q 563 3366 780 3635 
Q 998 3904 1276 4032 
Q 1555 4160 1862 4160 
Q 2195 4160 2435 4035 
Q 2675 3910 2848 3725 
L 2554 3398 
Q 2432 3546 2253 3632 
Q 2074 3718 1882 3718 
Q 1594 3718 1347 3545 
Q 1101 3373 953 2973 
Q 806 2573 806 1888 
Q 806 1382 912 1036 
Q 1018 691 1222 515 
Q 1427 339 1715 339 
Q 1914 339 2077 451 
Q 2240 563 2333 764 
Q 2426 966 2426 1235 
Q 2426 1498 2342 1693 
Q 2259 1888 2092 1993 
Q 1926 2099 1670 2099 
Q 1472 2099 1238 1968 
Q 1005 1837 794 1523 
L 774 1939 
Q 973 2195 1235 2345 
Q 1498 2496 1760 2496 
Q 2112 2496 2374 2355 
Q 2637 2214 2781 1932 
Q 2925 1651 2925 1235 
Q 2925 845 2758 550 
Q 2592 256 2317 89 
Q 2042 -77 1715 -77 
z
" transform="scale(0.015625)"/>
       </defs>
       <use xlink:href="#SourceSans3-Regular-36"/>
       <use xlink:href="#SourceSans3-Regular-30" x="49.699997"/>
      </g>
     </g>
    </g>
    <g id="text_15">
     <!-- Distance [m] -->
     <g transform="translate(45.412188 215.970703) rotate(-90) scale(0.13 -0.13)">
      <defs>
       <path id="SourceSans3-Regular-44" d="M 576 0 
L 576 4198 
L 1626 4198 
Q 2272 4198 2713 3955 
Q 3155 3712 3382 3248 
Q 3610 2784 3610 2118 
Q 3610 1453 3382 976 
Q 3155 499 2720 249 
Q 2285 0 1651 0 
L 576 0 
z
M 1107 435 
L 1587 435 
Q 2080 435 2406 636 
Q 2733 838 2893 1209 
Q 3053 1581 3053 2118 
Q 3053 2643 2893 3014 
Q 2733 3386 2406 3574 
Q 2080 3763 1587 3763 
L 1107 3763 
L 1107 435 
z
" transform="scale(0.015625)"/>
       <path id="SourceSans3-Regular-69" d="M 525 0 
L 525 3110 
L 1050 3110 
L 1050 0 
L 525 0 
z
M 784 3750 
Q 630 3750 531 3846 
Q 432 3942 432 4096 
Q 432 4250 531 4346 
Q 630 4442 784 4442 
Q 938 4442 1037 4346 
Q 1136 4250 1136 4096 
Q 1136 3942 1037 3846 
Q 938 3750 784 3750 
z
" transform="scale(0.015625)"/>
       <path id="SourceSans3-Regular-73" d="M 1338 -77 
Q 998 -77 694 41 
Q 390 160 179 371 
L 422 678 
Q 627 512 848 422 
Q 1069 333 1357 333 
Q 1664 333 1817 477 
Q 1971 621 1971 819 
Q 1971 979 1865 1084 
Q 1760 1190 1603 1264 
Q 1446 1338 1267 1402 
Q 1037 1485 825 1597 
Q 614 1709 483 1878 
Q 352 2048 352 2304 
Q 352 2682 637 2934 
Q 922 3187 1427 3187 
Q 1715 3187 1964 3088 
Q 2214 2989 2394 2835 
L 2150 2534 
Q 1984 2650 1811 2714 
Q 1638 2778 1427 2778 
Q 1133 2778 995 2643 
Q 858 2509 858 2330 
Q 858 2189 941 2096 
Q 1024 2003 1174 1932 
Q 1325 1862 1517 1798 
Q 1760 1709 1981 1597 
Q 2202 1485 2339 1309 
Q 2477 1133 2477 851 
Q 2477 595 2345 387 
Q 2214 179 1961 51 
Q 1709 -77 1338 -77 
z
" transform="scale(0.015625)"/>
       <path id="SourceSans3-Regular-74" d="M 1504 -58 
Q 1011 -58 812 230 
Q 614 518 614 979 
L 614 2682 
L 154 2682 
L 154 3078 
L 640 3110 
L 704 4109 
L 1146 4109 
L 1146 3110 
L 1990 3110 
L 1990 2682 
L 1146 2682 
L 1146 973 
Q 1146 691 1251 531 
Q 1357 371 1626 371 
Q 1709 371 1798 387 
Q 1888 403 1978 448 
L 2093 77 
Q 1971 19 1817 -19 
Q 1664 -58 1504 -58 
z
" transform="scale(0.015625)"/>
       <path id="SourceSans3-Regular-61" d="M 1242 -77 
Q 986 -77 778 28 
Q 570 134 448 329 
Q 326 525 326 806 
Q 326 1331 787 1600 
Q 1248 1869 2246 1978 
Q 2240 2170 2185 2349 
Q 2131 2528 1990 2637 
Q 1850 2746 1600 2746 
Q 1331 2746 1094 2646 
Q 858 2547 672 2426 
L 467 2784 
Q 608 2880 800 2973 
Q 992 3066 1216 3126 
Q 1440 3187 1690 3187 
Q 2067 3187 2307 3030 
Q 2547 2874 2659 2586 
Q 2771 2298 2771 1907 
L 2771 0 
L 2336 0 
L 2291 371 
L 2272 371 
Q 2048 186 1792 54 
Q 1536 -77 1242 -77 
z
M 1389 358 
Q 1619 358 1820 460 
Q 2022 563 2246 762 
L 2246 1600 
Q 1722 1536 1418 1437 
Q 1114 1338 979 1190 
Q 845 1043 845 838 
Q 845 582 1005 470 
Q 1165 358 1389 358 
z
" transform="scale(0.015625)"/>
       <path id="SourceSans3-Regular-6e" d="M 525 0 
L 525 3110 
L 960 3110 
L 1005 2662 
L 1024 2662 
Q 1248 2886 1497 3036 
Q 1747 3187 2067 3187 
Q 2560 3187 2787 2876 
Q 3014 2566 3014 1971 
L 3014 0 
L 2490 0 
L 2490 1901 
Q 2490 2342 2352 2537 
Q 2214 2733 1901 2733 
Q 1664 2733 1475 2611 
Q 1286 2490 1050 2253 
L 1050 0 
L 525 0 
z
" transform="scale(0.015625)"/>
       <path id="SourceSans3-Regular-63" d="M 1760 -77 
Q 1344 -77 1011 115 
Q 678 307 486 672 
Q 294 1037 294 1549 
Q 294 2074 502 2438 
Q 710 2803 1052 2995 
Q 1395 3187 1792 3187 
Q 2099 3187 2320 3084 
Q 2541 2982 2701 2822 
L 2438 2496 
Q 2323 2611 2166 2678 
Q 2010 2746 1811 2746 
Q 1536 2746 1315 2595 
Q 1094 2445 966 2176 
Q 838 1907 838 1549 
Q 838 1197 960 928 
Q 1082 659 1299 508 
Q 1517 358 1805 358 
Q 2022 358 2208 441 
Q 2394 525 2528 653 
L 2758 333 
Q 2560 147 2310 35 
Q 2061 -77 1760 -77 
z
" transform="scale(0.015625)"/>
       <path id="SourceSans3-Regular-65" d="M 1786 -77 
Q 1370 -77 1027 118 
Q 685 314 486 675 
Q 288 1037 288 1555 
Q 288 2061 493 2425 
Q 698 2790 1018 2988 
Q 1338 3187 1696 3187 
Q 2093 3187 2371 3004 
Q 2650 2822 2790 2496 
Q 2931 2170 2931 1728 
Q 2931 1645 2928 1568 
Q 2925 1491 2906 1414 
L 666 1414 
L 666 1830 
L 2458 1830 
Q 2458 2278 2262 2518 
Q 2067 2758 1702 2758 
Q 1491 2758 1286 2640 
Q 1082 2522 950 2259 
Q 819 1997 819 1562 
Q 819 1165 956 896 
Q 1094 627 1331 489 
Q 1568 352 1850 352 
Q 2074 352 2269 416 
Q 2464 480 2624 589 
L 2816 243 
Q 2611 102 2358 12 
Q 2106 -77 1786 -77 
z
" transform="scale(0.015625)"/>
      </defs>
      <use xlink:href="#SourceSans3-Regular-44"/>
      <use xlink:href="#SourceSans3-Regular-69" x="61.499985"/>
      <use xlink:href="#SourceSans3-Regular-73" x="86.099976"/>
      <use xlink:href="#SourceSans3-Regular-74" x="127.999969"/>
      <use xlink:href="#SourceSans3-Regular-61" x="161.799957"/>
      <use xlink:href="#SourceSans3-Regular-6e" x="212.199951"/>
      <use xlink:href="#SourceSans3-Regular-63" x="266.899948"/>
      <use xlink:href="#SourceSans3-Regular-65" x="312.499939"/>
      <use xlink:href="#SourceSans3-Regular-20" x="362.09993"/>
      <use xlink:href="#SourceSans3-Regular-5b" x="382.099915"/>
      <use xlink:href="#SourceSans3-Regular-6d" x="412.399902"/>
      <use xlink:href="#SourceSans3-Regular-5d" x="495.299896"/>
     </g>
    </g>
   </g>
   <g id="patch_3">
    <path d="M 72 320.4 
L 72 43.2 
" style="fill: none; stroke: #000000; stroke-width: 0.8; stroke-linejoin: miter; stroke-linecap: square"/>
   </g>
   <g id="patch_4">
    <path d="M 518.4 320.4 
L 518.4 43.2 
" style="fill: none; stroke: #000000; stroke-width: 0.8; stroke-linejoin: miter; stroke-linecap: square"/>
   </g>
   <g id="patch_5">
    <path d="M 72 320.4 
L 518.4 320.4 
" style="fill: none; stroke: #000000; stroke-width: 0.8; stroke-linejoin: miter; stroke-linecap: square"/>
   </g>
   <g id="patch_6">
    <path d="M 72 43.2 
L 518.4 43.2 
" style="fill: none; stroke: #000000; stroke-width: 0.8; stroke-linejoin: miter; stroke-linecap: square"/>
   </g>
   <g id="LineCollection_1">
    <path d="M 72 306.487349 
L 72 307.8 
" clip-path="url(#p1c661b8e84)" style="fill: none; stroke: #666666; stroke-width: 1.5"/>
    <path d="M 87.393103 305.025074 
L 87.393103 306.487349 
" clip-path="url(#p1c661b8e84)" style="fill: none; stroke: #666666; stroke-width: 1.5"/>
    <path d="M 102.786207 303.396122 
L 102.786207 305.025074 
" clip-path="url(#p1c661b8e84)" style="fill: none; stroke: #666666; stroke-width: 1.5"/>
    <path d="M 118.17931 301.581492 
L 118.17931 303.396122 
" clip-path="url(#p1c661b8e84)" style="fill: none; stroke: #666666; stroke-width: 1.5"/>
    <path d="M 133.572414 299.560021 
L 133.572414 301.581492 
" clip-path="url(#p1c661b8e84)" style="fill: none; stroke: #666666; stroke-width: 1.5"/>
    <path d="M 148.965517 297.308131 
L 148.965517 299.560021 
" clip-path="url(#p1c661b8e84)" style="fill: none; stroke: #666666; stroke-width: 1.5"/>
    <path d="M 164.358621 294.799558 
L 164.358621 297.308131 
" clip-path="url(#p1c661b8e84)" style="fill: none; stroke: #666666; stroke-width: 1.5"/>
    <path d="M 179.751724 292.005044 
L 179.751724 294.799558 
" clip-path="url(#p1c661b8e84)" style="fill: none; stroke: #666666; stroke-width: 1.5"/>
    <path d="M 195.144828 288.891995 
L 195.144828 292.005044 
" clip-path="url(#p1c661b8e84)" style="fill: none; stroke: #666666; stroke-width: 1.5"/>
    <path d="M 210.537931 285.424105 
L 210.537931 288.891995 
" clip-path="url(#p1c661b8e84)" style="fill: none; stroke: #666666; stroke-width: 1.5"/>
    <path d="M 225.931034 281.560924 
L 225.931034 285.424105 
" clip-path="url(#p1c661b8e84)" style="fill: none; stroke: #666666; stroke-width: 1.5"/>
    <path d="M 241.324138 277.257397 
L 241.324138 281.560924 
" clip-path="url(#p1c661b8e84)" style="fill: none; stroke: #666666; stroke-width: 1.5"/>
    <path d="M 256.717241 272.463329 
L 256.717241 277.257397 
" clip-path="url(#p1c661b8e84)" style="fill: none; stroke: #666666; stroke-width: 1.5"/>
    <path d="M 272.110345 267.122807 
L 272.110345 272.463329 
" clip-path="url(#p1c661b8e84)" style="fill: none; stroke: #666666; stroke-width: 1.5"/>
    <path d="M 287.503448 261.173543 
L 287.503448 267.122807 
" clip-path="url(#p1c661b8e84)" style="fill: none; stroke: #666666; stroke-width: 1.5"/>
    <path d="M 302.896552 254.546148 
L 302.896552 261.173543 
" clip-path="url(#p1c661b8e84)" style="fill: none; stroke: #666666; stroke-width: 1.5"/>
    <path d="M 318.289655 247.163326 
L 318.289655 254.546148 
" clip-path="url(#p1c661b8e84)" style="fill: none; stroke: #666666; stroke-width: 1.5"/>
    <path d="M 333.682759 238.938968 
L 333.682759 247.163326 
" clip-path="url(#p1c661b8e84)" style="fill: none; stroke: #666666; stroke-width: 1.5"/>
    <path d="M 349.075862 229.777153 
L 349.075862 238.938968 
" clip-path="url(#p1c661b8e84)" style="fill: none; stroke: #666666; stroke-width: 1.5"/>
    <path d="M 364.468966 219.571022 
L 364.468966 229.777153 
" clip-path="url(#p1c661b8e84)" style="fill: none; stroke: #666666; stroke-width: 1.5"/>
    <path d="M 379.862069 208.20154 
L 379.862069 219.571022 
" clip-path="url(#p1c661b8e84)" style="fill: none; stroke: #666666; stroke-width: 1.5"/>
    <path d="M 395.255172 195.536101 
L 395.255172 208.20154 
" clip-path="url(#p1c661b8e84)" style="fill: none; stroke: #666666; stroke-width: 1.5"/>
    <path d="M 410.648276 181.426985 
L 410.648276 195.536101 
" clip-path="url(#p1c661b8e84)" style="fill: none; stroke: #666666; stroke-width: 1.5"/>
    <path d="M 426.041379 165.709633 
L 426.041379 181.426985 
" clip-path="url(#p1c661b8e84)" style="fill: none; stroke: #666666; stroke-width: 1.5"/>
    <path d="M 441.434483 148.200729 
L 441.434483 165.709633 
" clip-path="url(#p1c661b8e84)" style="fill: none; stroke: #666666; stroke-width: 1.5"/>
    <path d="M 456.827586 128.696063 
L 456.827586 148.200729 
" clip-path="url(#p1c661b8e84)" style="fill: none; stroke: #666666; stroke-width: 1.5"/>
    <path d="M 472.22069 106.968146 
L 472.22069 128.696063 
" clip-path="url(#p1c661b8e84)" style="fill: none; stroke: #666666; stroke-width: 1.5"/>
    <path d="M 487.613793 82.76356 
L 487.613793 106.968146 
" clip-path="url(#p1c661b8e84)" style="fill: none; stroke: #666666; stroke-width: 1.5"/>
    <path d="M 503.006897 55.8 
L 503.006897 82.76356 
" clip-path="url(#p1c661b8e84)" style="fill: none; stroke: #666666; stroke-width: 1.5"/>
   </g>
   <g id="legend_1">
    <g id="patch_7">
     <path d="M 81.1 90.442812 
L 177.586406 90.442812 
Q 180.186406 90.442812 180.186406 87.842812 
L 180.186406 52.3 
Q 180.186406 49.7 177.586406 49.7 
L 81.1 49.7 
Q 78.5 49.7 78.5 52.3 
L 78.5 87.842812 
Q 78.5 90.442812 81.1 90.442812 
z
" style="fill: #ffffff; opacity: 0.8; stroke: #cccccc; stroke-linejoin: miter"/>
    </g>
    <g id="PathCollection_1">
     <defs>
      <path id="mbf039c3710" d="M -5.4 5.4 
L 5.4 -5.4 
M -5.4 -5.4 
L 5.4 5.4 
" style="stroke: #000000; stroke-width: 1.5"/>
     </defs>
     <g>
      <use xlink:href="#mbf039c3710" x="96.7" y="60.743906" style="stroke: #000000; stroke-width: 1.5"/>
     </g>
    </g>
    <g id="text_16">
     <!-- measured -->
     <g transform="translate(120.1 64.156406) scale(0.13 -0.13)">
      <defs>
       <path id="SourceSans3-Regular-75" d="M 1434 -77 
Q 941 -77 713 233 
Q 486 544 486 1139 
L 486 3110 
L 1011 3110 
L 1011 1210 
Q 1011 774 1148 579 
Q 1286 384 1594 384 
Q 1830 384 2019 509 
Q 2208 634 2432 902 
L 2432 3110 
L 2957 3110 
L 2957 0 
L 2522 0 
L 2477 486 
L 2458 486 
Q 2246 230 2000 76 
Q 1754 -77 1434 -77 
z
" transform="scale(0.015625)"/>
       <path id="SourceSans3-Regular-72" d="M 525 0 
L 525 3110 
L 960 3110 
L 1005 2547 
L 1024 2547 
Q 1178 2842 1408 3014 
Q 1638 3187 1907 3187 
Q 2010 3187 2086 3174 
Q 2163 3162 2240 3123 
L 2125 2675 
Q 2054 2694 1993 2704 
Q 1933 2714 1837 2714 
Q 1638 2714 1424 2554 
Q 1210 2394 1050 1997 
L 1050 0 
L 525 0 
z
" transform="scale(0.015625)"/>
      </defs>
      <use xlink:href="#SourceSans3-Regular-6d"/>
      <use xlink:href="#SourceSans3-Regular-65" x="82.899994"/>
      <use xlink:href="#SourceSans3-Regular-61" x="132.499985"/>
      <use xlink:href="#SourceSans3-Regular-73" x="182.899979"/>
      <use xlink:href="#SourceSans3-Regular-75" x="224.799973"/>
      <use xlink:href="#SourceSans3-Regular-72" x="279.199966"/>
      <use xlink:href="#SourceSans3-Regular-65" x="313.899963"/>
      <use xlink:href="#SourceSans3-Regular-64" x="363.499954"/>
     </g>
    </g>
    <g id="line2d_14">
     <path d="M 83.7 78.027812 
L 109.7 78.027812 
" style="fill: none; stroke: #666666; stroke-width: 1.5"/>
    </g>
    <g id="text_17">
     <!-- estimated -->
     <g transform="translate(120.1 82.577812) scale(0.13 -0.13)">
      <use xlink:href="#SourceSans3-Regular-65"/>
      <use xlink:href="#SourceSans3-Regular-73" x="49.599991"/>
      <use xlink:href="#SourceSans3-Regular-74" x="91.499985"/>
      <use xlink:href="#SourceSans3-Regular-69" x="125.299973"/>
      <use xlink:href="#SourceSans3-Regular-6d" x="149.899963"/>
      <use xlink:href="#SourceSans3-Regular-61" x="232.799957"/>
      <use xlink:href="#SourceSans3-Regular-74" x="283.199951"/>
      <use xlink:href="#SourceSans3-Regular-65" x="316.999939"/>
      <use xlink:href="#SourceSans3-Regular-64" x="366.59993"/>
     </g>
    </g>
   </g>
   <g id="PathCollection_2">
    <g clip-path="url(#p1c661b8e84)">
     <use xlink:href="#mbf039c3710" x="150.916756" y="297.980007" style="stroke: #000000; stroke-width: 1.5"/>
     <use xlink:href="#mbf039c3710" x="261.722361" y="276.644073" style="stroke: #000000; stroke-width: 1.5"/>
     <use xlink:href="#mbf039c3710" x="291.040994" y="255.308139" style="stroke: #000000; stroke-width: 1.5"/>
     <use xlink:href="#mbf039c3710" x="307.389276" y="233.972205" style="stroke: #000000; stroke-width: 1.5"/>
     <use xlink:href="#mbf039c3710" x="368.13399" y="212.636272" style="stroke: #000000; stroke-width: 1.5"/>
     <use xlink:href="#mbf039c3710" x="401.72817" y="191.300338" style="stroke: #000000; stroke-width: 1.5"/>
     <use xlink:href="#mbf039c3710" x="433.737931" y="169.964404" style="stroke: #000000; stroke-width: 1.5"/>
     <use xlink:href="#mbf039c3710" x="437.335727" y="148.62847" style="stroke: #000000; stroke-width: 1.5"/>
     <use xlink:href="#mbf039c3710" x="456.901237" y="127.292537" style="stroke: #000000; stroke-width: 1.5"/>
     <use xlink:href="#mbf039c3710" x="490.461072" y="105.956603" style="stroke: #000000; stroke-width: 1.5"/>
    </g>
   </g>
  </g>
 </g>
 <defs>
  <clipPath id="p1c661b8e84">
   <rect x="72" y="43.2" width="446.4" height="277.2"/>
  </clipPath>
 </defs>
</svg>
