<?xml version="1.0" encoding="utf-8" standalone="no"?>
<!DOCTYPE svg PUBLIC "-//W3C//DTD SVG 1.1//EN"
  "http://www.w3.org/Graphics/SVG/1.1/DTD/svg11.dtd">
<svg xmlns:xlink="http://www.w3.org/1999/xlink" width="576pt" height="360pt" viewBox="0 0 576 360" xmlns="http://www.w3.org/2000/svg" version="1.1">
 <metadata>
  <rdf:RDF xmlns:dc="http://purl.org/dc/elements/1.1/" xmlns:cc="http://creativecommons.org/ns#" xmlns:rdf="http://www.w3.org/1999/02/22-rdf-syntax-ns#">
   <cc:Work>
    <dc:type rdf:resource="http://purl.org/dc/dcmitype/StillImage"/>
    <dc:date>2024-10-22T08:03:25.017776</dc:date>
    <dc:format>image/svg+xml</dc:format>
    <dc:creator>
     <cc:Agent>
      <dc:title>Matplotlib v3.9.2, https://matplotlib.org/</dc:title>
     </cc:Agent>
    </dc:creator>
   </cc:Work>
  </rdf:RDF>
 </metadata>
 <defs>
  <style type="text/css">*{stroke-linejoin: round; stroke-linecap: butt}</style>
 </defs>
 <g id="figure_1">
  <g id="patch_1">
   <path d="M 0 360 
L 576 360 
L 576 0 
L 0 0 
z
" style="fill: #ffffff"/>
  </g>
  <g id="axes_1">
   <g id="patch_2">
    <path d="M 156.6 320.4 
L 433.8 320.4 
L 433.8 43.2 
L 156.6 43.2 
z
" style="fill: #ffffff"/>
   </g>
   <g id="patch_3">
    <path d="M 395.840049 181.8 
C 395.840049 168.58407 393.236799 155.496648 388.179281 143.286721 
C 383.121764 131.076793 375.708335 119.981813 366.363261 110.636739 
C 357.018187 101.291665 345.923207 93.878236 333.713279 88.820719 
C 321.503352 83.763201 308.41593 81.159951 295.2 81.159951 
C 281.98407 81.159951 268.896648 83.763201 256.686721 88.820719 
C 244.476793 93.878236 233.381813 101.291665 224.036739 110.636739 
C 214.691665 119.981813 207.278236 131.076793 202.220719 143.286721 
C 197.163201 155.496648 194.559951 168.58407 194.559951 181.8 
C 194.559951 195.01593 197.163201 208.103352 202.220719 220.313279 
C 207.278236 232.523207 214.691665 243.618187 224.036739 252.963261 
C 233.381813 262.308335 244.476793 269.721764 256.686721 274.779281 
C 268.896648 279.836799 281.98407 282.440049 295.2 282.440049 
C 308.41593 282.440049 321.503352 279.836799 333.713279 274.779281 
C 345.923207 269.721764 357.018187 262.308335 366.363261 252.963261 
C 375.708335 243.618187 383.121764 232.523207 388.179281 220.313279 
C 393.236799 208.103352 395.840049 195.01593 395.840049 181.8 
M 375.842719 181.8 
C 375.842719 192.389905 373.756739 202.876836 369.704158 212.660633 
C 365.651577 222.444429 359.711207 231.33482 352.223014 238.823014 
C 344.73482 246.311207 335.844429 252.251577 326.060633 256.304158 
C 316.276836 260.356739 305.789905 262.442719 295.2 262.442719 
C 284.610095 262.442719 274.123164 260.356739 264.339367 256.304158 
C 254.555571 252.251577 245.66518 246.311207 238.176986 238.823014 
C 230.688793 231.33482 224.748423 222.444429 220.695842 212.660633 
C 216.643261 202.876836 214.557281 192.389905 214.557281 181.8 
C 214.557281 171.210095 216.643261 160.723164 220.695842 150.939367 
C 224.748423 141.155571 230.688793 132.26518 238.176986 124.776986 
C 245.66518 117.288793 254.555571 111.348423 264.339367 107.295842 
C 274.123164 103.243261 284.610095 101.157281 295.2 101.157281 
C 305.789905 101.157281 316.276836 103.243261 326.060633 107.295842 
C 335.844429 111.348423 344.73482 117.288793 352.223014 124.776986 
C 359.711207 132.26518 365.651577 141.155571 369.704158 150.939367 
C 373.756739 160.723164 375.842719 171.210095 375.842719 181.8 
z
" clip-path="url(#p4780e9f5cb)" style="fill: #1f77b4; fill-opacity: 0.3; stroke: #1f77b4; stroke-opacity: 0.3; stroke-linejoin: miter"/>
   </g>
   <g id="patch_4">
    <path d="M 303.933208 163.255906 
C 303.933208 161.419634 303.571503 159.601218 302.868792 157.904724 
C 302.166081 156.20823 301.136031 154.666651 299.837591 153.36821 
C 298.53915 152.06977 296.997571 151.03972 295.301077 150.337009 
C 293.604583 149.634298 291.786166 149.272592 289.949895 149.272592 
C 288.113623 149.272592 286.295206 149.634298 284.598712 150.337009 
C 282.902218 151.03972 281.360639 152.06977 280.062198 153.36821 
C 278.763758 154.666651 277.733708 156.20823 277.030997 157.904724 
C 276.328286 159.601218 275.966581 161.419634 275.966581 163.255906 
C 275.966581 165.092178 276.328286 166.910595 277.030997 168.607089 
C 277.733708 170.303583 278.763758 171.845162 280.062198 173.143602 
C 281.360639 174.442043 282.902218 175.472093 284.598712 176.174804 
C 286.295206 176.877515 288.113623 177.23922 289.949895 177.23922 
C 291.786166 177.23922 293.604583 176.877515 295.301077 176.174804 
C 296.997571 175.472093 298.53915 174.442043 299.837591 173.143602 
C 301.136031 171.845162 302.166081 170.303583 302.868792 168.607089 
C 303.571503 166.910595 303.933208 165.092178 303.933208 163.255906 
M 301.154703 163.255906 
C 301.154703 164.727308 300.864869 166.184403 300.301788 167.543801 
C 299.738706 168.903199 298.913329 170.138464 297.87289 171.178902 
C 296.832452 172.219341 295.597187 173.044718 294.237789 173.607799 
C 292.878391 174.170881 291.421296 174.460715 289.949895 174.460715 
C 288.478493 174.460715 287.021398 174.170881 285.662 173.607799 
C 284.302602 173.044718 283.067337 172.219341 282.026899 171.178902 
C 280.98646 170.138464 280.161083 168.903199 279.598001 167.543801 
C 279.03492 166.184403 278.745086 164.727308 278.745086 163.255906 
C 278.745086 161.784504 279.03492 160.32741 279.598001 158.968012 
C 280.161083 157.608614 280.98646 156.373349 282.026899 155.33291 
C 283.067337 154.292472 284.302602 153.467094 285.662 152.904013 
C 287.021398 152.340932 288.478493 152.051098 289.949895 152.051098 
C 291.421296 152.051098 292.878391 152.340932 294.237789 152.904013 
C 295.597187 153.467094 296.832452 154.292472 297.87289 155.33291 
C 298.913329 156.373349 299.738706 157.608614 300.301788 158.968012 
C 300.864869 160.32741 301.154703 161.784504 301.154703 163.255906 
z
" clip-path="url(#p4780e9f5cb)" style="fill: #ff7f0e; fill-opacity: 0.3; stroke: #ff7f0e; stroke-opacity: 0.3; stroke-linejoin: miter"/>
   </g>
   <g id="patch_5">
    <path d="M 319.336525 161.55732 
C 319.336525 154.963832 318.037752 148.434458 315.514534 142.34287 
C 312.991315 136.251282 309.292722 130.715946 304.630422 126.053646 
C 299.968123 121.391347 294.432786 117.692753 288.341198 115.169535 
C 282.24961 112.646317 275.720236 111.347543 269.126749 111.347543 
C 262.533261 111.347543 256.003887 112.646317 249.912299 115.169535 
C 243.820711 117.692753 238.285375 121.391347 233.623076 126.053646 
C 228.960776 130.715946 225.262183 136.251282 222.738964 142.34287 
C 220.215746 148.434458 218.916973 154.963832 218.916973 161.55732 
C 218.916973 168.150807 220.215746 174.680181 222.738964 180.771769 
C 225.262183 186.863357 228.960776 192.398693 233.623076 197.060993 
C 238.285375 201.723293 243.820711 205.421886 249.912299 207.945104 
C 256.003887 210.468323 262.533261 211.767096 269.126749 211.767096 
C 275.720236 211.767096 282.24961 210.468323 288.341198 207.945104 
C 294.432786 205.421886 299.968123 201.723293 304.630422 197.060993 
C 309.292722 192.398693 312.991315 186.863357 315.514534 180.771769 
C 318.037752 174.680181 319.336525 168.150807 319.336525 161.55732 
M 309.359767 161.55732 
C 309.359767 166.840671 308.319062 172.072649 306.297211 176.953829 
C 304.27536 181.835009 301.311682 186.270466 297.575789 190.00636 
C 293.839895 193.742253 289.404439 196.70593 284.523258 198.727782 
C 279.642078 200.749633 274.4101 201.790338 269.126749 201.790338 
C 263.843397 201.790338 258.61142 200.749633 253.730239 198.727782 
C 248.849059 196.70593 244.413603 193.742253 240.677709 190.00636 
C 236.941815 186.270466 233.978138 181.835009 231.956287 176.953829 
C 229.934436 172.072649 228.893731 166.840671 228.893731 161.55732 
C 228.893731 156.273968 229.934436 151.04199 231.956287 146.16081 
C 233.978138 141.27963 236.941815 136.844173 240.677709 133.10828 
C 244.413603 129.372386 248.849059 126.408709 253.730239 124.386858 
C 258.61142 122.365007 263.843397 121.324302 269.126749 121.324302 
C 274.4101 121.324302 279.642078 122.365007 284.523258 124.386858 
C 289.404439 126.408709 293.839895 129.372386 297.575789 133.10828 
C 301.311682 136.844173 304.27536 141.27963 306.297211 146.16081 
C 308.319062 151.04199 309.359767 156.273968 309.359767 161.55732 
z
" clip-path="url(#p4780e9f5cb)" style="fill: #2ca02c; fill-opacity: 0.3; stroke: #2ca02c; stroke-opacity: 0.3; stroke-linejoin: miter"/>
   </g>
   <g id="patch_6">
    <path d="M 295.2 272.441384 
C 319.238376 272.441384 342.295439 262.890836 359.293137 245.893137 
C 376.290836 228.895439 385.841384 205.838376 385.841384 181.8 
C 385.841384 157.761624 376.290836 134.704561 359.293137 117.706863 
C 342.295439 100.709164 319.238376 91.158616 295.2 91.158616 
C 271.161624 91.158616 248.104561 100.709164 231.106863 117.706863 
C 214.109164 134.704561 204.558616 157.761624 204.558616 181.8 
C 204.558616 205.838376 214.109164 228.895439 231.106863 245.893137 
C 248.104561 262.890836 271.161624 272.441384 295.2 272.441384 
L 295.2 272.441384 
z
" clip-path="url(#p4780e9f5cb)" style="fill: none; stroke: #1f77b4; stroke-opacity: 0.8; stroke-linejoin: miter"/>
   </g>
   <g id="patch_7">
    <path d="M 289.949895 175.849968 
C 293.289879 175.849968 296.493515 174.522978 298.855241 172.161252 
C 301.216966 169.799527 302.543956 166.59589 302.543956 163.255906 
C 302.543956 159.915922 301.216966 156.712286 298.855241 154.35056 
C 296.493515 151.988835 293.289879 150.661845 289.949895 150.661845 
C 286.60991 150.661845 283.406274 151.988835 281.044548 154.35056 
C 278.682823 156.712286 277.355833 159.915922 277.355833 163.255906 
C 277.355833 166.59589 278.682823 169.799527 281.044548 172.161252 
C 283.406274 174.522978 286.60991 175.849968 289.949895 175.849968 
L 289.949895 175.849968 
z
" clip-path="url(#p4780e9f5cb)" style="fill: none; stroke: #ff7f0e; stroke-opacity: 0.8; stroke-linejoin: miter"/>
   </g>
   <g id="patch_8">
    <path d="M 269.126749 206.778717 
C 281.119604 206.778717 292.622877 202.013905 301.103105 193.533676 
C 309.583334 185.053447 314.348146 173.550174 314.348146 161.55732 
C 314.348146 149.564465 309.583334 138.061192 301.103105 129.580963 
C 292.622877 121.100734 281.119604 116.335922 269.126749 116.335922 
C 257.133894 116.335922 245.630621 121.100734 237.150392 129.580963 
C 228.670163 138.061192 223.905352 149.564465 223.905352 161.55732 
C 223.905352 173.550174 228.670163 185.053447 237.150392 193.533676 
C 245.630621 202.013905 257.133894 206.778717 269.126749 206.778717 
L 269.126749 206.778717 
z
" clip-path="url(#p4780e9f5cb)" style="fill: none; stroke: #2ca02c; stroke-opacity: 0.8; stroke-linejoin: miter"/>
   </g>
   <g id="matplotlib.axis_1">
    <g id="xtick_1">
     <g id="line2d_1">
      <defs>
       <path id="m1248b123c4" d="M 0 0 
L 0 3.5 
" style="stroke: #000000; stroke-width: 0.8"/>
      </defs>
      <g>
       <use xlink:href="#m1248b123c4" x="169.2" y="320.4" style="stroke: #000000; stroke-width: 0.8"/>
      </g>
     </g>
     <g id="text_1">
      <!-- −2000 -->
      <g transform="translate(152.285156 334.998438) scale(0.1 -0.1)">
       <defs>
        <path id="DejaVuSans-2212" d="M 678 2272 
L 4684 2272 
L 4684 1741 
L 678 1741 
L 678 2272 
z
" transform="scale(0.015625)"/>
        <path id="DejaVuSans-32" d="M 1228 531 
L 3431 531 
L 3431 0 
L 469 0 
L 469 531 
Q 828 903 1448 1529 
Q 2069 2156 2228 2338 
Q 2531 2678 2651 2914 
Q 2772 3150 2772 3378 
Q 2772 3750 2511 3984 
Q 2250 4219 1831 4219 
Q 1534 4219 1204 4116 
Q 875 4013 500 3803 
L 500 4441 
Q 881 4594 1212 4672 
Q 1544 4750 1819 4750 
Q 2544 4750 2975 4387 
Q 3406 4025 3406 3419 
Q 3406 3131 3298 2873 
Q 3191 2616 2906 2266 
Q 2828 2175 2409 1742 
Q 1991 1309 1228 531 
z
" transform="scale(0.015625)"/>
        <path id="DejaVuSans-30" d="M 2034 4250 
Q 1547 4250 1301 3770 
Q 1056 3291 1056 2328 
Q 1056 1369 1301 889 
Q 1547 409 2034 409 
Q 2525 409 2770 889 
Q 3016 1369 3016 2328 
Q 3016 3291 2770 3770 
Q 2525 4250 2034 4250 
z
M 2034 4750 
Q 2819 4750 3233 4129 
Q 3647 3509 3647 2328 
Q 3647 1150 3233 529 
Q 2819 -91 2034 -91 
Q 1250 -91 836 529 
Q 422 1150 422 2328 
Q 422 3509 836 4129 
Q 1250 4750 2034 4750 
z
" transform="scale(0.015625)"/>
       </defs>
       <use xlink:href="#DejaVuSans-2212"/>
       <use xlink:href="#DejaVuSans-32" x="83.789062"/>
       <use xlink:href="#DejaVuSans-30" x="147.412109"/>
       <use xlink:href="#DejaVuSans-30" x="211.035156"/>
       <use xlink:href="#DejaVuSans-30" x="274.658203"/>
      </g>
     </g>
    </g>
    <g id="xtick_2">
     <g id="line2d_2">
      <g>
       <use xlink:href="#m1248b123c4" x="200.7" y="320.4" style="stroke: #000000; stroke-width: 0.8"/>
      </g>
     </g>
     <g id="text_2">
      <!-- −1500 -->
      <g transform="translate(183.785156 334.998438) scale(0.1 -0.1)">
       <defs>
        <path id="DejaVuSans-31" d="M 794 531 
L 1825 531 
L 1825 4091 
L 703 3866 
L 703 4441 
L 1819 4666 
L 2450 4666 
L 2450 531 
L 3481 531 
L 3481 0 
L 794 0 
L 794 531 
z
" transform="scale(0.015625)"/>
        <path id="DejaVuSans-35" d="M 691 4666 
L 3169 4666 
L 3169 4134 
L 1269 4134 
L 1269 2991 
Q 1406 3038 1543 3061 
Q 1681 3084 1819 3084 
Q 2600 3084 3056 2656 
Q 3513 2228 3513 1497 
Q 3513 744 3044 326 
Q 2575 -91 1722 -91 
Q 1428 -91 1123 -41 
Q 819 9 494 109 
L 494 744 
Q 775 591 1075 516 
Q 1375 441 1709 441 
Q 2250 441 2565 725 
Q 2881 1009 2881 1497 
Q 2881 1984 2565 2268 
Q 2250 2553 1709 2553 
Q 1456 2553 1204 2497 
Q 953 2441 691 2322 
L 691 4666 
z
" transform="scale(0.015625)"/>
       </defs>
       <use xlink:href="#DejaVuSans-2212"/>
       <use xlink:href="#DejaVuSans-31" x="83.789062"/>
       <use xlink:href="#DejaVuSans-35" x="147.412109"/>
       <use xlink:href="#DejaVuSans-30" x="211.035156"/>
       <use xlink:href="#DejaVuSans-30" x="274.658203"/>
      </g>
     </g>
    </g>
    <g id="xtick_3">
     <g id="line2d_3">
      <g>
       <use xlink:href="#m1248b123c4" x="232.2" y="320.4" style="stroke: #000000; stroke-width: 0.8"/>
      </g>
     </g>
     <g id="text_3">
      <!-- −1000 -->
      <g transform="translate(215.285156 334.998438) scale(0.1 -0.1)">
       <use xlink:href="#DejaVuSans-2212"/>
       <use xlink:href="#DejaVuSans-31" x="83.789062"/>
       <use xlink:href="#DejaVuSans-30" x="147.412109"/>
       <use xlink:href="#DejaVuSans-30" x="211.035156"/>
       <use xlink:href="#DejaVuSans-30" x="274.658203"/>
      </g>
     </g>
    </g>
    <g id="xtick_4">
     <g id="line2d_4">
      <g>
       <use xlink:href="#m1248b123c4" x="263.7" y="320.4" style="stroke: #000000; stroke-width: 0.8"/>
      </g>
     </g>
     <g id="text_4">
      <!-- −500 -->
      <g transform="translate(249.966406 334.998438) scale(0.1 -0.1)">
       <use xlink:href="#DejaVuSans-2212"/>
       <use xlink:href="#DejaVuSans-35" x="83.789062"/>
       <use xlink:href="#DejaVuSans-30" x="147.412109"/>
       <use xlink:href="#DejaVuSans-30" x="211.035156"/>
      </g>
     </g>
    </g>
    <g id="xtick_5">
     <g id="line2d_5">
      <g>
       <use xlink:href="#m1248b123c4" x="295.2" y="320.4" style="stroke: #000000; stroke-width: 0.8"/>
      </g>
     </g>
     <g id="text_5">
      <!-- 0 -->
      <g transform="translate(292.01875 334.998438) scale(0.1 -0.1)">
       <use xlink:href="#DejaVuSans-30"/>
      </g>
     </g>
    </g>
    <g id="xtick_6">
     <g id="line2d_6">
      <g>
       <use xlink:href="#m1248b123c4" x="326.7" y="320.4" style="stroke: #000000; stroke-width: 0.8"/>
      </g>
     </g>
     <g id="text_6">
      <!-- 500 -->
      <g transform="translate(317.15625 334.998438) scale(0.1 -0.1)">
       <use xlink:href="#DejaVuSans-35"/>
       <use xlink:href="#DejaVuSans-30" x="63.623047"/>
       <use xlink:href="#DejaVuSans-30" x="127.246094"/>
      </g>
     </g>
    </g>
    <g id="xtick_7">
     <g id="line2d_7">
      <g>
       <use xlink:href="#m1248b123c4" x="358.2" y="320.4" style="stroke: #000000; stroke-width: 0.8"/>
      </g>
     </g>
     <g id="text_7">
      <!-- 1000 -->
      <g transform="translate(345.475 334.998438) scale(0.1 -0.1)">
       <use xlink:href="#DejaVuSans-31"/>
       <use xlink:href="#DejaVuSans-30" x="63.623047"/>
       <use xlink:href="#DejaVuSans-30" x="127.246094"/>
       <use xlink:href="#DejaVuSans-30" x="190.869141"/>
      </g>
     </g>
    </g>
    <g id="xtick_8">
     <g id="line2d_8">
      <g>
       <use xlink:href="#m1248b123c4" x="389.7" y="320.4" style="stroke: #000000; stroke-width: 0.8"/>
      </g>
     </g>
     <g id="text_8">
      <!-- 1500 -->
      <g transform="translate(376.975 334.998438) scale(0.1 -0.1)">
       <use xlink:href="#DejaVuSans-31"/>
       <use xlink:href="#DejaVuSans-35" x="63.623047"/>
       <use xlink:href="#DejaVuSans-30" x="127.246094"/>
       <use xlink:href="#DejaVuSans-30" x="190.869141"/>
      </g>
     </g>
    </g>
    <g id="xtick_9">
     <g id="line2d_9">
      <g>
       <use xlink:href="#m1248b123c4" x="421.2" y="320.4" style="stroke: #000000; stroke-width: 0.8"/>
      </g>
     </g>
     <g id="text_9">
      <!-- 2000 -->
      <g transform="translate(408.475 334.998438) scale(0.1 -0.1)">
       <use xlink:href="#DejaVuSans-32"/>
       <use xlink:href="#DejaVuSans-30" x="63.623047"/>
       <use xlink:href="#DejaVuSans-30" x="127.246094"/>
       <use xlink:href="#DejaVuSans-30" x="190.869141"/>
      </g>
     </g>
    </g>
    <g id="text_10">
     <!-- x [m] -->
     <g transform="translate(281.879688 348.676562) scale(0.1 -0.1)">
      <defs>
       <path id="DejaVuSans-78" d="M 3513 3500 
L 2247 1797 
L 3578 0 
L 2900 0 
L 1881 1375 
L 863 0 
L 184 0 
L 1544 1831 
L 300 3500 
L 978 3500 
L 1906 2253 
L 2834 3500 
L 3513 3500 
z
" transform="scale(0.015625)"/>
       <path id="DejaVuSans-20" transform="scale(0.015625)"/>
       <path id="DejaVuSans-5b" d="M 550 4863 
L 1875 4863 
L 1875 4416 
L 1125 4416 
L 1125 -397 
L 1875 -397 
L 1875 -844 
L 550 -844 
L 550 4863 
z
" transform="scale(0.015625)"/>
       <path id="DejaVuSans-6d" d="M 3328 2828 
Q 3544 3216 3844 3400 
Q 4144 3584 4550 3584 
Q 5097 3584 5394 3201 
Q 5691 2819 5691 2113 
L 5691 0 
L 5113 0 
L 5113 2094 
Q 5113 2597 4934 2840 
Q 4756 3084 4391 3084 
Q 3944 3084 3684 2787 
Q 3425 2491 3425 1978 
L 3425 0 
L 2847 0 
L 2847 2094 
Q 2847 2600 2669 2842 
Q 2491 3084 2119 3084 
Q 1678 3084 1418 2786 
Q 1159 2488 1159 1978 
L 1159 0 
L 581 0 
L 581 3500 
L 1159 3500 
L 1159 2956 
Q 1356 3278 1631 3431 
Q 1906 3584 2284 3584 
Q 2666 3584 2933 3390 
Q 3200 3197 3328 2828 
z
" transform="scale(0.015625)"/>
       <path id="DejaVuSans-5d" d="M 1947 4863 
L 1947 -844 
L 622 -844 
L 622 -397 
L 1369 -397 
L 1369 4416 
L 622 4416 
L 622 4863 
L 1947 4863 
z
" transform="scale(0.015625)"/>
      </defs>
      <use xlink:href="#DejaVuSans-78"/>
      <use xlink:href="#DejaVuSans-20" x="59.179688"/>
      <use xlink:href="#DejaVuSans-5b" x="90.966797"/>
      <use xlink:href="#DejaVuSans-6d" x="129.980469"/>
      <use xlink:href="#DejaVuSans-5d" x="227.392578"/>
     </g>
    </g>
   </g>
   <g id="matplotlib.axis_2">
    <g id="ytick_1">
     <g id="line2d_10">
      <defs>
       <path id="m18a143c341" d="M 0 0 
L -3.5 0 
" style="stroke: #000000; stroke-width: 0.8"/>
      </defs>
      <g>
       <use xlink:href="#m18a143c341" x="156.6" y="307.8" style="stroke: #000000; stroke-width: 0.8"/>
      </g>
     </g>
     <g id="text_11">
      <!-- −2000 -->
      <g transform="translate(115.770313 311.599219) scale(0.1 -0.1)">
       <use xlink:href="#DejaVuSans-2212"/>
       <use xlink:href="#DejaVuSans-32" x="83.789062"/>
       <use xlink:href="#DejaVuSans-30" x="147.412109"/>
       <use xlink:href="#DejaVuSans-30" x="211.035156"/>
       <use xlink:href="#DejaVuSans-30" x="274.658203"/>
      </g>
     </g>
    </g>
    <g id="ytick_2">
     <g id="line2d_11">
      <g>
       <use xlink:href="#m18a143c341" x="156.6" y="276.3" style="stroke: #000000; stroke-width: 0.8"/>
      </g>
     </g>
     <g id="text_12">
      <!-- −1500 -->
      <g transform="translate(115.770313 280.099219) scale(0.1 -0.1)">
       <use xlink:href="#DejaVuSans-2212"/>
       <use xlink:href="#DejaVuSans-31" x="83.789062"/>
       <use xlink:href="#DejaVuSans-35" x="147.412109"/>
       <use xlink:href="#DejaVuSans-30" x="211.035156"/>
       <use xlink:href="#DejaVuSans-30" x="274.658203"/>
      </g>
     </g>
    </g>
    <g id="ytick_3">
     <g id="line2d_12">
      <g>
       <use xlink:href="#m18a143c341" x="156.6" y="244.8" style="stroke: #000000; stroke-width: 0.8"/>
      </g>
     </g>
     <g id="text_13">
      <!-- −1000 -->
      <g transform="translate(115.770313 248.599219) scale(0.1 -0.1)">
       <use xlink:href="#DejaVuSans-2212"/>
       <use xlink:href="#DejaVuSans-31" x="83.789062"/>
       <use xlink:href="#DejaVuSans-30" x="147.412109"/>
       <use xlink:href="#DejaVuSans-30" x="211.035156"/>
       <use xlink:href="#DejaVuSans-30" x="274.658203"/>
      </g>
     </g>
    </g>
    <g id="ytick_4">
     <g id="line2d_13">
      <g>
       <use xlink:href="#m18a143c341" x="156.6" y="213.3" style="stroke: #000000; stroke-width: 0.8"/>
      </g>
     </g>
     <g id="text_14">
      <!-- −500 -->
      <g transform="translate(122.132813 217.099219) scale(0.1 -0.1)">
       <use xlink:href="#DejaVuSans-2212"/>
       <use xlink:href="#DejaVuSans-35" x="83.789062"/>
       <use xlink:href="#DejaVuSans-30" x="147.412109"/>
       <use xlink:href="#DejaVuSans-30" x="211.035156"/>
      </g>
     </g>
    </g>
    <g id="ytick_5">
     <g id="line2d_14">
      <g>
       <use xlink:href="#m18a143c341" x="156.6" y="181.8" style="stroke: #000000; stroke-width: 0.8"/>
      </g>
     </g>
     <g id="text_15">
      <!-- 0 -->
      <g transform="translate(143.2375 185.599219) scale(0.1 -0.1)">
       <use xlink:href="#DejaVuSans-30"/>
      </g>
     </g>
    </g>
    <g id="ytick_6">
     <g id="line2d_15">
      <g>
       <use xlink:href="#m18a143c341" x="156.6" y="150.3" style="stroke: #000000; stroke-width: 0.8"/>
      </g>
     </g>
     <g id="text_16">
      <!-- 500 -->
      <g transform="translate(130.5125 154.099219) scale(0.1 -0.1)">
       <use xlink:href="#DejaVuSans-35"/>
       <use xlink:href="#DejaVuSans-30" x="63.623047"/>
       <use xlink:href="#DejaVuSans-30" x="127.246094"/>
      </g>
     </g>
    </g>
    <g id="ytick_7">
     <g id="line2d_16">
      <g>
       <use xlink:href="#m18a143c341" x="156.6" y="118.8" style="stroke: #000000; stroke-width: 0.8"/>
      </g>
     </g>
     <g id="text_17">
      <!-- 1000 -->
      <g transform="translate(124.15 122.599219) scale(0.1 -0.1)">
       <use xlink:href="#DejaVuSans-31"/>
       <use xlink:href="#DejaVuSans-30" x="63.623047"/>
       <use xlink:href="#DejaVuSans-30" x="127.246094"/>
       <use xlink:href="#DejaVuSans-30" x="190.869141"/>
      </g>
     </g>
    </g>
    <g id="ytick_8">
     <g id="line2d_17">
      <g>
       <use xlink:href="#m18a143c341" x="156.6" y="87.3" style="stroke: #000000; stroke-width: 0.8"/>
      </g>
     </g>
     <g id="text_18">
      <!-- 1500 -->
      <g transform="translate(124.15 91.099219) scale(0.1 -0.1)">
       <use xlink:href="#DejaVuSans-31"/>
       <use xlink:href="#DejaVuSans-35" x="63.623047"/>
       <use xlink:href="#DejaVuSans-30" x="127.246094"/>
       <use xlink:href="#DejaVuSans-30" x="190.869141"/>
      </g>
     </g>
    </g>
    <g id="ytick_9">
     <g id="line2d_18">
      <g>
       <use xlink:href="#m18a143c341" x="156.6" y="55.8" style="stroke: #000000; stroke-width: 0.8"/>
      </g>
     </g>
     <g id="text_19">
      <!-- 2000 -->
      <g transform="translate(124.15 59.599219) scale(0.1 -0.1)">
       <use xlink:href="#DejaVuSans-32"/>
       <use xlink:href="#DejaVuSans-30" x="63.623047"/>
       <use xlink:href="#DejaVuSans-30" x="127.246094"/>
       <use xlink:href="#DejaVuSans-30" x="190.869141"/>
      </g>
     </g>
    </g>
    <g id="text_20">
     <!-- y [m] -->
     <g transform="translate(109.690625 195.120312) rotate(-90) scale(0.1 -0.1)">
      <defs>
       <path id="DejaVuSans-79" d="M 2059 -325 
Q 1816 -950 1584 -1140 
Q 1353 -1331 966 -1331 
L 506 -1331 
L 506 -850 
L 844 -850 
Q 1081 -850 1212 -737 
Q 1344 -625 1503 -206 
L 1606 56 
L 191 3500 
L 800 3500 
L 1894 763 
L 2988 3500 
L 3597 3500 
L 2059 -325 
z
" transform="scale(0.015625)"/>
      </defs>
      <use xlink:href="#DejaVuSans-79"/>
      <use xlink:href="#DejaVuSans-20" x="59.179688"/>
      <use xlink:href="#DejaVuSans-5b" x="90.966797"/>
      <use xlink:href="#DejaVuSans-6d" x="129.980469"/>
      <use xlink:href="#DejaVuSans-5d" x="227.392578"/>
     </g>
    </g>
   </g>
   <g id="patch_9">
    <path d="M 156.6 320.4 
L 156.6 43.2 
" style="fill: none; stroke: #000000; stroke-width: 0.8; stroke-linejoin: miter; stroke-linecap: square"/>
   </g>
   <g id="patch_10">
    <path d="M 433.8 320.4 
L 433.8 43.2 
" style="fill: none; stroke: #000000; stroke-width: 0.8; stroke-linejoin: miter; stroke-linecap: square"/>
   </g>
   <g id="patch_11">
    <path d="M 156.6 320.4 
L 433.8 320.4 
" style="fill: none; stroke: #000000; stroke-width: 0.8; stroke-linejoin: miter; stroke-linecap: square"/>
   </g>
   <g id="patch_12">
    <path d="M 156.6 43.2 
L 433.8 43.2 
" style="fill: none; stroke: #000000; stroke-width: 0.8; stroke-linejoin: miter; stroke-linecap: square"/>
   </g>
   <g id="text_21">
    <!-- A -->
    <g transform="translate(295.2 177.8) scale(0.1 -0.1)">
     <defs>
      <path id="DejaVuSans-41" d="M 2188 4044 
L 1331 1722 
L 3047 1722 
L 2188 4044 
z
M 1831 4666 
L 2547 4666 
L 4325 0 
L 3669 0 
L 3244 1197 
L 1141 1197 
L 716 0 
L 50 0 
L 1831 4666 
z
" transform="scale(0.015625)"/>
     </defs>
     <use xlink:href="#DejaVuSans-41"/>
    </g>
   </g>
   <g id="text_22">
    <!-- B -->
    <g transform="translate(289.949895 159.255906) scale(0.1 -0.1)">
     <defs>
      <path id="DejaVuSans-42" d="M 1259 2228 
L 1259 519 
L 2272 519 
Q 2781 519 3026 730 
Q 3272 941 3272 1375 
Q 3272 1813 3026 2020 
Q 2781 2228 2272 2228 
L 1259 2228 
z
M 1259 4147 
L 1259 2741 
L 2194 2741 
Q 2656 2741 2882 2914 
Q 3109 3088 3109 3444 
Q 3109 3797 2882 3972 
Q 2656 4147 2194 4147 
L 1259 4147 
z
M 628 4666 
L 2241 4666 
Q 2963 4666 3353 4366 
Q 3744 4066 3744 3513 
Q 3744 3084 3544 2831 
Q 3344 2578 2956 2516 
Q 3422 2416 3680 2098 
Q 3938 1781 3938 1306 
Q 3938 681 3513 340 
Q 3088 0 2303 0 
L 628 0 
L 628 4666 
z
" transform="scale(0.015625)"/>
     </defs>
     <use xlink:href="#DejaVuSans-42"/>
    </g>
   </g>
   <g id="text_23">
    <!-- C -->
    <g transform="translate(269.126749 157.55732) scale(0.1 -0.1)">
     <defs>
      <path id="DejaVuSans-43" d="M 4122 4306 
L 4122 3641 
Q 3803 3938 3442 4084 
Q 3081 4231 2675 4231 
Q 1875 4231 1450 3742 
Q 1025 3253 1025 2328 
Q 1025 1406 1450 917 
Q 1875 428 2675 428 
Q 3081 428 3442 575 
Q 3803 722 4122 1019 
L 4122 359 
Q 3791 134 3420 21 
Q 3050 -91 2638 -91 
Q 1578 -91 968 557 
Q 359 1206 359 2328 
Q 359 3453 968 4101 
Q 1578 4750 2638 4750 
Q 3056 4750 3426 4639 
Q 3797 4528 4122 4306 
z
" transform="scale(0.015625)"/>
     </defs>
     <use xlink:href="#DejaVuSans-43"/>
    </g>
   </g>
   <g id="text_24">
    <!-- Experiment 02_1 -->
    <g transform="translate(244.172813 37.2) scale(0.12 -0.12)">
     <defs>
      <path id="DejaVuSans-45" d="M 628 4666 
L 3578 4666 
L 3578 4134 
L 1259 4134 
L 1259 2753 
L 3481 2753 
L 3481 2222 
L 1259 2222 
L 1259 531 
L 3634 531 
L 3634 0 
L 628 0 
L 628 4666 
z
" transform="scale(0.015625)"/>
      <path id="DejaVuSans-70" d="M 1159 525 
L 1159 -1331 
L 581 -1331 
L 581 3500 
L 1159 3500 
L 1159 2969 
Q 1341 3281 1617 3432 
Q 1894 3584 2278 3584 
Q 2916 3584 3314 3078 
Q 3713 2572 3713 1747 
Q 3713 922 3314 415 
Q 2916 -91 2278 -91 
Q 1894 -91 1617 61 
Q 1341 213 1159 525 
z
M 3116 1747 
Q 3116 2381 2855 2742 
Q 2594 3103 2138 3103 
Q 1681 3103 1420 2742 
Q 1159 2381 1159 1747 
Q 1159 1113 1420 752 
Q 1681 391 2138 391 
Q 2594 391 2855 752 
Q 3116 1113 3116 1747 
z
" transform="scale(0.015625)"/>
      <path id="DejaVuSans-65" d="M 3597 1894 
L 3597 1613 
L 953 1613 
Q 991 1019 1311 708 
Q 1631 397 2203 397 
Q 2534 397 2845 478 
Q 3156 559 3463 722 
L 3463 178 
Q 3153 47 2828 -22 
Q 2503 -91 2169 -91 
Q 1331 -91 842 396 
Q 353 884 353 1716 
Q 353 2575 817 3079 
Q 1281 3584 2069 3584 
Q 2775 3584 3186 3129 
Q 3597 2675 3597 1894 
z
M 3022 2063 
Q 3016 2534 2758 2815 
Q 2500 3097 2075 3097 
Q 1594 3097 1305 2825 
Q 1016 2553 972 2059 
L 3022 2063 
z
" transform="scale(0.015625)"/>
      <path id="DejaVuSans-72" d="M 2631 2963 
Q 2534 3019 2420 3045 
Q 2306 3072 2169 3072 
Q 1681 3072 1420 2755 
Q 1159 2438 1159 1844 
L 1159 0 
L 581 0 
L 581 3500 
L 1159 3500 
L 1159 2956 
Q 1341 3275 1631 3429 
Q 1922 3584 2338 3584 
Q 2397 3584 2469 3576 
Q 2541 3569 2628 3553 
L 2631 2963 
z
" transform="scale(0.015625)"/>
      <path id="DejaVuSans-69" d="M 603 3500 
L 1178 3500 
L 1178 0 
L 603 0 
L 603 3500 
z
M 603 4863 
L 1178 4863 
L 1178 4134 
L 603 4134 
L 603 4863 
z
" transform="scale(0.015625)"/>
      <path id="DejaVuSans-6e" d="M 3513 2113 
L 3513 0 
L 2938 0 
L 2938 2094 
Q 2938 2591 2744 2837 
Q 2550 3084 2163 3084 
Q 1697 3084 1428 2787 
Q 1159 2491 1159 1978 
L 1159 0 
L 581 0 
L 581 3500 
L 1159 3500 
L 1159 2956 
Q 1366 3272 1645 3428 
Q 1925 3584 2291 3584 
Q 2894 3584 3203 3211 
Q 3513 2838 3513 2113 
z
" transform="scale(0.015625)"/>
      <path id="DejaVuSans-74" d="M 1172 4494 
L 1172 3500 
L 2356 3500 
L 2356 3053 
L 1172 3053 
L 1172 1153 
Q 1172 725 1289 603 
Q 1406 481 1766 481 
L 2356 481 
L 2356 0 
L 1766 0 
Q 1100 0 847 248 
Q 594 497 594 1153 
L 594 3053 
L 172 3053 
L 172 3500 
L 594 3500 
L 594 4494 
L 1172 4494 
z
" transform="scale(0.015625)"/>
      <path id="DejaVuSans-5f" d="M 3263 -1063 
L 3263 -1509 
L -63 -1509 
L -63 -1063 
L 3263 -1063 
z
" transform="scale(0.015625)"/>
     </defs>
     <use xlink:href="#DejaVuSans-45"/>
     <use xlink:href="#DejaVuSans-78" x="63.183594"/>
     <use xlink:href="#DejaVuSans-70" x="122.363281"/>
     <use xlink:href="#DejaVuSans-65" x="185.839844"/>
     <use xlink:href="#DejaVuSans-72" x="247.363281"/>
     <use xlink:href="#DejaVuSans-69" x="288.476562"/>
     <use xlink:href="#DejaVuSans-6d" x="316.259766"/>
     <use xlink:href="#DejaVuSans-65" x="413.671875"/>
     <use xlink:href="#DejaVuSans-6e" x="475.195312"/>
     <use xlink:href="#DejaVuSans-74" x="538.574219"/>
     <use xlink:href="#DejaVuSans-20" x="577.783203"/>
     <use xlink:href="#DejaVuSans-30" x="609.570312"/>
     <use xlink:href="#DejaVuSans-32" x="673.193359"/>
     <use xlink:href="#DejaVuSans-5f" x="736.816406"/>
     <use xlink:href="#DejaVuSans-31" x="786.816406"/>
    </g>
   </g>
   <g id="legend_1">
    <g id="patch_13">
     <path d="M 320.684375 80.55625 
L 426.8 80.55625 
Q 428.8 80.55625 428.8 78.55625 
L 428.8 50.2 
Q 428.8 48.2 426.8 48.2 
L 320.684375 48.2 
Q 318.684375 48.2 318.684375 50.2 
L 318.684375 78.55625 
Q 318.684375 80.55625 320.684375 80.55625 
z
" style="fill: #ffffff; opacity: 0.8; stroke: #cccccc; stroke-linejoin: miter"/>
    </g>
    <g id="PathCollection_1">
     <defs>
      <path id="m4eca8ccf6a" d="M 0 1.2 
C 0.318244 1.2 0.623496 1.07356 0.848528 0.848528 
C 1.07356 0.623496 1.2 0.318244 1.2 0 
C 1.2 -0.318244 1.07356 -0.623496 0.848528 -0.848528 
C 0.623496 -1.07356 0.318244 -1.2 0 -1.2 
C -0.318244 -1.2 -0.623496 -1.07356 -0.848528 -0.848528 
C -1.07356 -0.623496 -1.2 -0.318244 -1.2 0 
C -1.2 0.318244 -1.07356 0.623496 -0.848528 0.848528 
C -0.623496 1.07356 -0.318244 1.2 0 1.2 
z
" style="stroke: #000000"/>
     </defs>
     <g>
      <use xlink:href="#m4eca8ccf6a" x="332.684375" y="57.173437" style="stroke: #000000"/>
     </g>
    </g>
    <g id="text_25">
     <!-- Anchor nodes -->
     <g transform="translate(350.684375 59.798437) scale(0.1 -0.1)">
      <defs>
       <path id="DejaVuSans-63" d="M 3122 3366 
L 3122 2828 
Q 2878 2963 2633 3030 
Q 2388 3097 2138 3097 
Q 1578 3097 1268 2742 
Q 959 2388 959 1747 
Q 959 1106 1268 751 
Q 1578 397 2138 397 
Q 2388 397 2633 464 
Q 2878 531 3122 666 
L 3122 134 
Q 2881 22 2623 -34 
Q 2366 -91 2075 -91 
Q 1284 -91 818 406 
Q 353 903 353 1747 
Q 353 2603 823 3093 
Q 1294 3584 2113 3584 
Q 2378 3584 2631 3529 
Q 2884 3475 3122 3366 
z
" transform="scale(0.015625)"/>
       <path id="DejaVuSans-68" d="M 3513 2113 
L 3513 0 
L 2938 0 
L 2938 2094 
Q 2938 2591 2744 2837 
Q 2550 3084 2163 3084 
Q 1697 3084 1428 2787 
Q 1159 2491 1159 1978 
L 1159 0 
L 581 0 
L 581 4863 
L 1159 4863 
L 1159 2956 
Q 1366 3272 1645 3428 
Q 1925 3584 2291 3584 
Q 2894 3584 3203 3211 
Q 3513 2838 3513 2113 
z
" transform="scale(0.015625)"/>
       <path id="DejaVuSans-6f" d="M 1959 3097 
Q 1497 3097 1228 2736 
Q 959 2375 959 1747 
Q 959 1119 1226 758 
Q 1494 397 1959 397 
Q 2419 397 2687 759 
Q 2956 1122 2956 1747 
Q 2956 2369 2687 2733 
Q 2419 3097 1959 3097 
z
M 1959 3584 
Q 2709 3584 3137 3096 
Q 3566 2609 3566 1747 
Q 3566 888 3137 398 
Q 2709 -91 1959 -91 
Q 1206 -91 779 398 
Q 353 888 353 1747 
Q 353 2609 779 3096 
Q 1206 3584 1959 3584 
z
" transform="scale(0.015625)"/>
       <path id="DejaVuSans-64" d="M 2906 2969 
L 2906 4863 
L 3481 4863 
L 3481 0 
L 2906 0 
L 2906 525 
Q 2725 213 2448 61 
Q 2172 -91 1784 -91 
Q 1150 -91 751 415 
Q 353 922 353 1747 
Q 353 2572 751 3078 
Q 1150 3584 1784 3584 
Q 2172 3584 2448 3432 
Q 2725 3281 2906 2969 
z
M 947 1747 
Q 947 1113 1208 752 
Q 1469 391 1925 391 
Q 2381 391 2643 752 
Q 2906 1113 2906 1747 
Q 2906 2381 2643 2742 
Q 2381 3103 1925 3103 
Q 1469 3103 1208 2742 
Q 947 2381 947 1747 
z
" transform="scale(0.015625)"/>
       <path id="DejaVuSans-73" d="M 2834 3397 
L 2834 2853 
Q 2591 2978 2328 3040 
Q 2066 3103 1784 3103 
Q 1356 3103 1142 2972 
Q 928 2841 928 2578 
Q 928 2378 1081 2264 
Q 1234 2150 1697 2047 
L 1894 2003 
Q 2506 1872 2764 1633 
Q 3022 1394 3022 966 
Q 3022 478 2636 193 
Q 2250 -91 1575 -91 
Q 1294 -91 989 -36 
Q 684 19 347 128 
L 347 722 
Q 666 556 975 473 
Q 1284 391 1588 391 
Q 1994 391 2212 530 
Q 2431 669 2431 922 
Q 2431 1156 2273 1281 
Q 2116 1406 1581 1522 
L 1381 1569 
Q 847 1681 609 1914 
Q 372 2147 372 2553 
Q 372 3047 722 3315 
Q 1072 3584 1716 3584 
Q 2034 3584 2315 3537 
Q 2597 3491 2834 3397 
z
" transform="scale(0.015625)"/>
      </defs>
      <use xlink:href="#DejaVuSans-41"/>
      <use xlink:href="#DejaVuSans-6e" x="68.408203"/>
      <use xlink:href="#DejaVuSans-63" x="131.787109"/>
      <use xlink:href="#DejaVuSans-68" x="186.767578"/>
      <use xlink:href="#DejaVuSans-6f" x="250.146484"/>
      <use xlink:href="#DejaVuSans-72" x="311.328125"/>
      <use xlink:href="#DejaVuSans-20" x="352.441406"/>
      <use xlink:href="#DejaVuSans-6e" x="384.228516"/>
      <use xlink:href="#DejaVuSans-6f" x="447.607422"/>
      <use xlink:href="#DejaVuSans-64" x="508.789062"/>
      <use xlink:href="#DejaVuSans-65" x="572.265625"/>
      <use xlink:href="#DejaVuSans-73" x="633.789062"/>
     </g>
    </g>
    <g id="PathCollection_2">
     <defs>
      <path id="mead056b9cb" d="M -5.4 5.4 
L 5.4 -5.4 
M -5.4 -5.4 
L 5.4 5.4 
" style="stroke: #000000; stroke-width: 1.5"/>
     </defs>
     <g>
      <use xlink:href="#mead056b9cb" x="332.684375" y="71.851562" style="stroke: #000000; stroke-width: 1.5"/>
     </g>
    </g>
    <g id="text_26">
     <!-- Actual position -->
     <g transform="translate(350.684375 74.476562) scale(0.1 -0.1)">
      <defs>
       <path id="DejaVuSans-75" d="M 544 1381 
L 544 3500 
L 1119 3500 
L 1119 1403 
Q 1119 906 1312 657 
Q 1506 409 1894 409 
Q 2359 409 2629 706 
Q 2900 1003 2900 1516 
L 2900 3500 
L 3475 3500 
L 3475 0 
L 2900 0 
L 2900 538 
Q 2691 219 2414 64 
Q 2138 -91 1772 -91 
Q 1169 -91 856 284 
Q 544 659 544 1381 
z
M 1991 3584 
L 1991 3584 
z
" transform="scale(0.015625)"/>
       <path id="DejaVuSans-61" d="M 2194 1759 
Q 1497 1759 1228 1600 
Q 959 1441 959 1056 
Q 959 750 1161 570 
Q 1363 391 1709 391 
Q 2188 391 2477 730 
Q 2766 1069 2766 1631 
L 2766 1759 
L 2194 1759 
z
M 3341 1997 
L 3341 0 
L 2766 0 
L 2766 531 
Q 2569 213 2275 61 
Q 1981 -91 1556 -91 
Q 1019 -91 701 211 
Q 384 513 384 1019 
Q 384 1609 779 1909 
Q 1175 2209 1959 2209 
L 2766 2209 
L 2766 2266 
Q 2766 2663 2505 2880 
Q 2244 3097 1772 3097 
Q 1472 3097 1187 3025 
Q 903 2953 641 2809 
L 641 3341 
Q 956 3463 1253 3523 
Q 1550 3584 1831 3584 
Q 2591 3584 2966 3190 
Q 3341 2797 3341 1997 
z
" transform="scale(0.015625)"/>
       <path id="DejaVuSans-6c" d="M 603 4863 
L 1178 4863 
L 1178 0 
L 603 0 
L 603 4863 
z
" transform="scale(0.015625)"/>
      </defs>
      <use xlink:href="#DejaVuSans-41"/>
      <use xlink:href="#DejaVuSans-63" x="66.658203"/>
      <use xlink:href="#DejaVuSans-74" x="121.638672"/>
      <use xlink:href="#DejaVuSans-75" x="160.847656"/>
      <use xlink:href="#DejaVuSans-61" x="224.226562"/>
      <use xlink:href="#DejaVuSans-6c" x="285.505859"/>
      <use xlink:href="#DejaVuSans-20" x="313.289062"/>
      <use xlink:href="#DejaVuSans-70" x="345.076172"/>
      <use xlink:href="#DejaVuSans-6f" x="408.552734"/>
      <use xlink:href="#DejaVuSans-73" x="469.734375"/>
      <use xlink:href="#DejaVuSans-69" x="521.833984"/>
      <use xlink:href="#DejaVuSans-74" x="549.617188"/>
      <use xlink:href="#DejaVuSans-69" x="588.826172"/>
      <use xlink:href="#DejaVuSans-6f" x="616.609375"/>
      <use xlink:href="#DejaVuSans-6e" x="677.791016"/>
     </g>
    </g>
   </g>
   <g id="PathCollection_3">
    <g clip-path="url(#p4780e9f5cb)">
     <use xlink:href="#m4eca8ccf6a" x="295.2" y="181.8" style="stroke: #000000"/>
     <use xlink:href="#m4eca8ccf6a" x="289.949895" y="163.255906" style="stroke: #000000"/>
     <use xlink:href="#m4eca8ccf6a" x="269.126749" y="161.55732" style="stroke: #000000"/>
    </g>
   </g>
   <g id="PathCollection_4">
    <g clip-path="url(#p4780e9f5cb)">
     <use xlink:href="#mead056b9cb" x="281.408565" y="169.562759" style="stroke: #000000; stroke-width: 1.5"/>
    </g>
   </g>
  </g>
 </g>
 <defs>
  <clipPath id="p4780e9f5cb">
   <rect x="156.6" y="43.2" width="277.2" height="277.2"/>
  </clipPath>
 </defs>
</svg>
