<?xml version="1.0" encoding="utf-8" standalone="no"?>
<!DOCTYPE svg PUBLIC "-//W3C//DTD SVG 1.1//EN"
  "http://www.w3.org/Graphics/SVG/1.1/DTD/svg11.dtd">
<svg xmlns:xlink="http://www.w3.org/1999/xlink" width="576pt" height="360pt" viewBox="0 0 576 360" xmlns="http://www.w3.org/2000/svg" version="1.1">
 <metadata>
  <rdf:RDF xmlns:dc="http://purl.org/dc/elements/1.1/" xmlns:cc="http://creativecommons.org/ns#" xmlns:rdf="http://www.w3.org/1999/02/22-rdf-syntax-ns#">
   <cc:Work>
    <dc:type rdf:resource="http://purl.org/dc/dcmitype/StillImage"/>
    <dc:date>2024-10-22T08:03:25.491615</dc:date>
    <dc:format>image/svg+xml</dc:format>
    <dc:creator>
     <cc:Agent>
      <dc:title>Matplotlib v3.9.2, https://matplotlib.org/</dc:title>
     </cc:Agent>
    </dc:creator>
   </cc:Work>
  </rdf:RDF>
 </metadata>
 <defs>
  <style type="text/css">*{stroke-linejoin: round; stroke-linecap: butt}</style>
 </defs>
 <g id="figure_1">
  <g id="patch_1">
   <path d="M 0 360 
L 576 360 
L 576 0 
L 0 0 
z
" style="fill: #ffffff"/>
  </g>
  <g id="axes_1">
   <g id="patch_2">
    <path d="M 156.6 320.4 
L 433.8 320.4 
L 433.8 43.2 
L 156.6 43.2 
z
" style="fill: #ffffff"/>
   </g>
   <g id="patch_3">
    <path d="M 390.009018 181.8 
C 390.009018 169.349794 387.556599 157.02065 382.792112 145.518159 
C 378.027624 134.015669 371.043725 123.563525 362.2401 114.7599 
C 353.436475 105.956275 342.984331 98.972376 331.481841 94.207888 
C 319.97935 89.443401 307.650206 86.990982 295.2 86.990982 
C 282.749794 86.990982 270.42065 89.443401 258.918159 94.207888 
C 247.415669 98.972376 236.963525 105.956275 228.1599 114.7599 
C 219.356275 123.563525 212.372376 134.015669 207.607888 145.518159 
C 202.843401 157.02065 200.390982 169.349794 200.390982 181.8 
C 200.390982 194.250206 202.843401 206.57935 207.607888 218.081841 
C 212.372376 229.584331 219.356275 240.036475 228.1599 248.8401 
C 236.963525 257.643725 247.415669 264.627624 258.918159 269.392112 
C 270.42065 274.156599 282.749794 276.609018 295.2 276.609018 
C 307.650206 276.609018 319.97935 274.156599 331.481841 269.392112 
C 342.984331 264.627624 353.436475 257.643725 362.2401 248.8401 
C 371.043725 240.036475 378.027624 229.584331 382.792112 218.081841 
C 387.556599 206.57935 390.009018 194.250206 390.009018 181.8 
M 364.670764 181.8 
C 364.670764 190.922817 362.873768 199.956926 359.382617 208.385311 
C 355.891466 216.813695 350.774054 224.472443 344.323249 230.923249 
C 337.872443 237.374054 330.213695 242.491466 321.785311 245.982617 
C 313.356926 249.473768 304.322817 251.270764 295.2 251.270764 
C 286.077183 251.270764 277.043074 249.473768 268.614689 245.982617 
C 260.186305 242.491466 252.527557 237.374054 246.076751 230.923249 
C 239.625946 224.472443 234.508534 216.813695 231.017383 208.385311 
C 227.526232 199.956926 225.729236 190.922817 225.729236 181.8 
C 225.729236 172.677183 227.526232 163.643074 231.017383 155.214689 
C 234.508534 146.786305 239.625946 139.127557 246.076751 132.676751 
C 252.527557 126.225946 260.186305 121.108534 268.614689 117.617383 
C 277.043074 114.126232 286.077183 112.329236 295.2 112.329236 
C 304.322817 112.329236 313.356926 114.126232 321.785311 117.617383 
C 330.213695 121.108534 337.872443 126.225946 344.323249 132.676751 
C 350.774054 139.127557 355.891466 146.786305 359.382617 155.214689 
C 362.873768 163.643074 364.670764 172.677183 364.670764 181.8 
z
" clip-path="url(#p7639ca8c80)" style="fill: #1f77b4; fill-opacity: 0.3; stroke: #1f77b4; stroke-opacity: 0.3; stroke-linejoin: miter"/>
   </g>
   <g id="patch_4">
    <path d="M 299.093491 127.403992 
C 299.093491 124.870353 298.594419 122.361351 297.624838 120.020574 
C 296.655256 117.679797 295.234021 115.552768 293.442468 113.761215 
C 291.650915 111.969662 289.523885 110.548426 287.183108 109.578845 
C 284.842331 108.609263 282.333329 108.110192 279.799691 108.110192 
C 277.266052 108.110192 274.75705 108.609263 272.416273 109.578845 
C 270.075496 110.548426 267.948467 111.969662 266.156914 113.761215 
C 264.36536 115.552768 262.944125 117.679797 261.974543 120.020574 
C 261.004962 122.361351 260.50589 124.870353 260.50589 127.403992 
C 260.50589 129.937631 261.004962 132.446633 261.974543 134.78741 
C 262.944125 137.128187 264.36536 139.255216 266.156914 141.046769 
C 267.948467 142.838322 270.075496 144.259558 272.416273 145.229139 
C 274.75705 146.198721 277.266052 146.697792 279.799691 146.697792 
C 282.333329 146.697792 284.842331 146.198721 287.183108 145.229139 
C 289.523885 144.259558 291.650915 142.838322 293.442468 141.046769 
C 295.234021 139.255216 296.655256 137.128187 297.624838 134.78741 
C 298.594419 132.446633 299.093491 129.937631 299.093491 127.403992 
M 293.937112 127.403992 
C 293.937112 129.260501 293.57142 131.098958 292.860965 132.814149 
C 292.15051 134.52934 291.109107 136.087908 289.796357 137.400659 
C 288.483607 138.713409 286.925038 139.754811 285.209848 140.465266 
C 283.494657 141.175722 281.6562 141.541414 279.799691 141.541414 
C 277.943181 141.541414 276.104724 141.175722 274.389534 140.465266 
C 272.674343 139.754811 271.115774 138.713409 269.803024 137.400659 
C 268.490274 136.087908 267.448872 134.52934 266.738416 132.814149 
C 266.027961 131.098958 265.662269 129.260501 265.662269 127.403992 
C 265.662269 125.547483 266.027961 123.709026 266.738416 121.993835 
C 267.448872 120.278644 268.490274 118.720076 269.803024 117.407326 
C 271.115774 116.094575 272.674343 115.053173 274.389534 114.342718 
C 276.104724 113.632262 277.943181 113.266571 279.799691 113.266571 
C 281.6562 113.266571 283.494657 113.632262 285.209848 114.342718 
C 286.925038 115.053173 288.483607 116.094575 289.796357 117.407326 
C 291.109107 118.720076 292.15051 120.278644 292.860965 121.993835 
C 293.57142 123.709026 293.937112 125.547483 293.937112 127.403992 
z
" clip-path="url(#p7639ca8c80)" style="fill: #ff7f0e; fill-opacity: 0.3; stroke: #ff7f0e; stroke-opacity: 0.3; stroke-linejoin: miter"/>
   </g>
   <g id="patch_5">
    <path d="M 272.82557 122.421471 
C 272.82557 115.316191 271.425985 108.280001 268.706912 101.715578 
C 265.987839 95.151155 262.002157 89.186161 256.977965 84.161969 
C 251.953773 79.137777 245.988779 75.152096 239.424357 72.433023 
C 232.859934 69.71395 225.823743 68.314364 218.718463 68.314364 
C 211.613183 68.314364 204.576993 69.71395 198.01257 72.433023 
C 191.448147 75.152096 185.483153 79.137777 180.458961 84.161969 
C 175.43477 89.186161 171.449088 95.151155 168.730015 101.715578 
C 166.010942 108.280001 164.611357 115.316191 164.611357 122.421471 
C 164.611357 129.526751 166.010942 136.562941 168.730015 143.127364 
C 171.449088 149.691787 175.43477 155.656781 180.458961 160.680973 
C 185.483153 165.705164 191.448147 169.690846 198.01257 172.409919 
C 204.576993 175.128992 211.613183 176.528577 218.718463 176.528577 
C 225.823743 176.528577 232.859934 175.128992 239.424357 172.409919 
C 245.988779 169.690846 251.953773 165.705164 256.977965 160.680973 
C 262.002157 155.656781 265.987839 149.691787 268.706912 143.127364 
C 271.425985 136.562941 272.82557 129.526751 272.82557 122.421471 
M 258.365135 122.421471 
C 258.365135 127.627824 257.339597 132.783552 255.347212 137.593595 
C 253.354827 142.403638 250.434342 146.774454 246.752894 150.455901 
C 243.071446 154.137349 238.700631 157.057834 233.890588 159.050219 
C 229.080545 161.042605 223.924817 162.068143 218.718463 162.068143 
C 213.51211 162.068143 208.356382 161.042605 203.546339 159.050219 
C 198.736296 157.057834 194.365481 154.137349 190.684033 150.455901 
C 187.002585 146.774454 184.0821 142.403638 182.089715 137.593595 
C 180.09733 132.783552 179.071792 127.627824 179.071792 122.421471 
C 179.071792 117.215118 180.09733 112.05939 182.089715 107.249346 
C 184.0821 102.439303 187.002585 98.068488 190.684033 94.38704 
C 194.365481 90.705593 198.736296 87.785107 203.546339 85.792722 
C 208.356382 83.800337 213.51211 82.774799 218.718463 82.774799 
C 223.924817 82.774799 229.080545 83.800337 233.890588 85.792722 
C 238.700631 87.785107 243.071446 90.705593 246.752894 94.38704 
C 250.434342 98.068488 253.354827 102.439303 255.347212 107.249346 
C 257.339597 112.05939 258.365135 117.215118 258.365135 122.421471 
z
" clip-path="url(#p7639ca8c80)" style="fill: #2ca02c; fill-opacity: 0.3; stroke: #2ca02c; stroke-opacity: 0.3; stroke-linejoin: miter"/>
   </g>
   <g id="patch_6">
    <path d="M 295.2 263.939891 
C 316.983754 263.939891 337.878234 255.285114 353.281674 239.881674 
C 368.685114 224.478234 377.339891 203.583754 377.339891 181.8 
C 377.339891 160.016246 368.685114 139.121766 353.281674 123.718326 
C 337.878234 108.314886 316.983754 99.660109 295.2 99.660109 
C 273.416246 99.660109 252.521766 108.314886 237.118326 123.718326 
C 221.714886 139.121766 213.060109 160.016246 213.060109 181.8 
C 213.060109 203.583754 221.714886 224.478234 237.118326 239.881674 
C 252.521766 255.285114 273.416246 263.939891 295.2 263.939891 
L 295.2 263.939891 
z
" clip-path="url(#p7639ca8c80)" style="fill: none; stroke: #1f77b4; stroke-opacity: 0.8; stroke-linejoin: miter"/>
   </g>
   <g id="patch_7">
    <path d="M 279.799691 144.119603 
C 284.232722 144.119603 288.484786 142.358341 291.619412 139.223714 
C 294.754039 136.089087 296.515301 131.837024 296.515301 127.403992 
C 296.515301 122.97096 294.754039 118.718897 291.619412 115.58427 
C 288.484786 112.449643 284.232722 110.688381 279.799691 110.688381 
C 275.366659 110.688381 271.114596 112.449643 267.979969 115.58427 
C 264.845342 118.718897 263.08408 122.97096 263.08408 127.403992 
C 263.08408 131.837024 264.845342 136.089087 267.979969 139.223714 
C 271.114596 142.358341 275.366659 144.119603 279.799691 144.119603 
L 279.799691 144.119603 
z
" clip-path="url(#p7639ca8c80)" style="fill: none; stroke: #ff7f0e; stroke-opacity: 0.8; stroke-linejoin: miter"/>
   </g>
   <g id="patch_8">
    <path d="M 218.718463 169.29836 
C 231.15036 169.29836 243.074751 164.359115 251.86543 155.568437 
C 260.656108 146.777759 265.595352 134.853367 265.595352 122.421471 
C 265.595352 109.989575 260.656108 98.065183 251.86543 89.274505 
C 243.074751 80.483826 231.15036 75.544582 218.718463 75.544582 
C 206.286567 75.544582 194.362175 80.483826 185.571497 89.274505 
C 176.780819 98.065183 171.841574 109.989575 171.841574 122.421471 
C 171.841574 134.853367 176.780819 146.777759 185.571497 155.568437 
C 194.362175 164.359115 206.286567 169.29836 218.718463 169.29836 
L 218.718463 169.29836 
z
" clip-path="url(#p7639ca8c80)" style="fill: none; stroke: #2ca02c; stroke-opacity: 0.8; stroke-linejoin: miter"/>
   </g>
   <g id="matplotlib.axis_1">
    <g id="xtick_1">
     <g id="line2d_1">
      <defs>
       <path id="md7267d3930" d="M 0 0 
L 0 3.5 
" style="stroke: #000000; stroke-width: 0.8"/>
      </defs>
      <g>
       <use xlink:href="#md7267d3930" x="184.32" y="320.4" style="stroke: #000000; stroke-width: 0.8"/>
      </g>
     </g>
     <g id="text_1">
      <!-- −600 -->
      <g transform="translate(170.586406 334.998438) scale(0.1 -0.1)">
       <defs>
        <path id="DejaVuSans-2212" d="M 678 2272 
L 4684 2272 
L 4684 1741 
L 678 1741 
L 678 2272 
z
" transform="scale(0.015625)"/>
        <path id="DejaVuSans-36" d="M 2113 2584 
Q 1688 2584 1439 2293 
Q 1191 2003 1191 1497 
Q 1191 994 1439 701 
Q 1688 409 2113 409 
Q 2538 409 2786 701 
Q 3034 994 3034 1497 
Q 3034 2003 2786 2293 
Q 2538 2584 2113 2584 
z
M 3366 4563 
L 3366 3988 
Q 3128 4100 2886 4159 
Q 2644 4219 2406 4219 
Q 1781 4219 1451 3797 
Q 1122 3375 1075 2522 
Q 1259 2794 1537 2939 
Q 1816 3084 2150 3084 
Q 2853 3084 3261 2657 
Q 3669 2231 3669 1497 
Q 3669 778 3244 343 
Q 2819 -91 2113 -91 
Q 1303 -91 875 529 
Q 447 1150 447 2328 
Q 447 3434 972 4092 
Q 1497 4750 2381 4750 
Q 2619 4750 2861 4703 
Q 3103 4656 3366 4563 
z
" transform="scale(0.015625)"/>
        <path id="DejaVuSans-30" d="M 2034 4250 
Q 1547 4250 1301 3770 
Q 1056 3291 1056 2328 
Q 1056 1369 1301 889 
Q 1547 409 2034 409 
Q 2525 409 2770 889 
Q 3016 1369 3016 2328 
Q 3016 3291 2770 3770 
Q 2525 4250 2034 4250 
z
M 2034 4750 
Q 2819 4750 3233 4129 
Q 3647 3509 3647 2328 
Q 3647 1150 3233 529 
Q 2819 -91 2034 -91 
Q 1250 -91 836 529 
Q 422 1150 422 2328 
Q 422 3509 836 4129 
Q 1250 4750 2034 4750 
z
" transform="scale(0.015625)"/>
       </defs>
       <use xlink:href="#DejaVuSans-2212"/>
       <use xlink:href="#DejaVuSans-36" x="83.789062"/>
       <use xlink:href="#DejaVuSans-30" x="147.412109"/>
       <use xlink:href="#DejaVuSans-30" x="211.035156"/>
      </g>
     </g>
    </g>
    <g id="xtick_2">
     <g id="line2d_2">
      <g>
       <use xlink:href="#md7267d3930" x="221.28" y="320.4" style="stroke: #000000; stroke-width: 0.8"/>
      </g>
     </g>
     <g id="text_2">
      <!-- −400 -->
      <g transform="translate(207.546406 334.998438) scale(0.1 -0.1)">
       <defs>
        <path id="DejaVuSans-34" d="M 2419 4116 
L 825 1625 
L 2419 1625 
L 2419 4116 
z
M 2253 4666 
L 3047 4666 
L 3047 1625 
L 3713 1625 
L 3713 1100 
L 3047 1100 
L 3047 0 
L 2419 0 
L 2419 1100 
L 313 1100 
L 313 1709 
L 2253 4666 
z
" transform="scale(0.015625)"/>
       </defs>
       <use xlink:href="#DejaVuSans-2212"/>
       <use xlink:href="#DejaVuSans-34" x="83.789062"/>
       <use xlink:href="#DejaVuSans-30" x="147.412109"/>
       <use xlink:href="#DejaVuSans-30" x="211.035156"/>
      </g>
     </g>
    </g>
    <g id="xtick_3">
     <g id="line2d_3">
      <g>
       <use xlink:href="#md7267d3930" x="258.24" y="320.4" style="stroke: #000000; stroke-width: 0.8"/>
      </g>
     </g>
     <g id="text_3">
      <!-- −200 -->
      <g transform="translate(244.506406 334.998438) scale(0.1 -0.1)">
       <defs>
        <path id="DejaVuSans-32" d="M 1228 531 
L 3431 531 
L 3431 0 
L 469 0 
L 469 531 
Q 828 903 1448 1529 
Q 2069 2156 2228 2338 
Q 2531 2678 2651 2914 
Q 2772 3150 2772 3378 
Q 2772 3750 2511 3984 
Q 2250 4219 1831 4219 
Q 1534 4219 1204 4116 
Q 875 4013 500 3803 
L 500 4441 
Q 881 4594 1212 4672 
Q 1544 4750 1819 4750 
Q 2544 4750 2975 4387 
Q 3406 4025 3406 3419 
Q 3406 3131 3298 2873 
Q 3191 2616 2906 2266 
Q 2828 2175 2409 1742 
Q 1991 1309 1228 531 
z
" transform="scale(0.015625)"/>
       </defs>
       <use xlink:href="#DejaVuSans-2212"/>
       <use xlink:href="#DejaVuSans-32" x="83.789062"/>
       <use xlink:href="#DejaVuSans-30" x="147.412109"/>
       <use xlink:href="#DejaVuSans-30" x="211.035156"/>
      </g>
     </g>
    </g>
    <g id="xtick_4">
     <g id="line2d_4">
      <g>
       <use xlink:href="#md7267d3930" x="295.2" y="320.4" style="stroke: #000000; stroke-width: 0.8"/>
      </g>
     </g>
     <g id="text_4">
      <!-- 0 -->
      <g transform="translate(292.01875 334.998438) scale(0.1 -0.1)">
       <use xlink:href="#DejaVuSans-30"/>
      </g>
     </g>
    </g>
    <g id="xtick_5">
     <g id="line2d_5">
      <g>
       <use xlink:href="#md7267d3930" x="332.16" y="320.4" style="stroke: #000000; stroke-width: 0.8"/>
      </g>
     </g>
     <g id="text_5">
      <!-- 200 -->
      <g transform="translate(322.61625 334.998438) scale(0.1 -0.1)">
       <use xlink:href="#DejaVuSans-32"/>
       <use xlink:href="#DejaVuSans-30" x="63.623047"/>
       <use xlink:href="#DejaVuSans-30" x="127.246094"/>
      </g>
     </g>
    </g>
    <g id="xtick_6">
     <g id="line2d_6">
      <g>
       <use xlink:href="#md7267d3930" x="369.12" y="320.4" style="stroke: #000000; stroke-width: 0.8"/>
      </g>
     </g>
     <g id="text_6">
      <!-- 400 -->
      <g transform="translate(359.57625 334.998438) scale(0.1 -0.1)">
       <use xlink:href="#DejaVuSans-34"/>
       <use xlink:href="#DejaVuSans-30" x="63.623047"/>
       <use xlink:href="#DejaVuSans-30" x="127.246094"/>
      </g>
     </g>
    </g>
    <g id="xtick_7">
     <g id="line2d_7">
      <g>
       <use xlink:href="#md7267d3930" x="406.08" y="320.4" style="stroke: #000000; stroke-width: 0.8"/>
      </g>
     </g>
     <g id="text_7">
      <!-- 600 -->
      <g transform="translate(396.53625 334.998438) scale(0.1 -0.1)">
       <use xlink:href="#DejaVuSans-36"/>
       <use xlink:href="#DejaVuSans-30" x="63.623047"/>
       <use xlink:href="#DejaVuSans-30" x="127.246094"/>
      </g>
     </g>
    </g>
    <g id="text_8">
     <!-- x [m] -->
     <g transform="translate(281.879688 348.676562) scale(0.1 -0.1)">
      <defs>
       <path id="DejaVuSans-78" d="M 3513 3500 
L 2247 1797 
L 3578 0 
L 2900 0 
L 1881 1375 
L 863 0 
L 184 0 
L 1544 1831 
L 300 3500 
L 978 3500 
L 1906 2253 
L 2834 3500 
L 3513 3500 
z
" transform="scale(0.015625)"/>
       <path id="DejaVuSans-20" transform="scale(0.015625)"/>
       <path id="DejaVuSans-5b" d="M 550 4863 
L 1875 4863 
L 1875 4416 
L 1125 4416 
L 1125 -397 
L 1875 -397 
L 1875 -844 
L 550 -844 
L 550 4863 
z
" transform="scale(0.015625)"/>
       <path id="DejaVuSans-6d" d="M 3328 2828 
Q 3544 3216 3844 3400 
Q 4144 3584 4550 3584 
Q 5097 3584 5394 3201 
Q 5691 2819 5691 2113 
L 5691 0 
L 5113 0 
L 5113 2094 
Q 5113 2597 4934 2840 
Q 4756 3084 4391 3084 
Q 3944 3084 3684 2787 
Q 3425 2491 3425 1978 
L 3425 0 
L 2847 0 
L 2847 2094 
Q 2847 2600 2669 2842 
Q 2491 3084 2119 3084 
Q 1678 3084 1418 2786 
Q 1159 2488 1159 1978 
L 1159 0 
L 581 0 
L 581 3500 
L 1159 3500 
L 1159 2956 
Q 1356 3278 1631 3431 
Q 1906 3584 2284 3584 
Q 2666 3584 2933 3390 
Q 3200 3197 3328 2828 
z
" transform="scale(0.015625)"/>
       <path id="DejaVuSans-5d" d="M 1947 4863 
L 1947 -844 
L 622 -844 
L 622 -397 
L 1369 -397 
L 1369 4416 
L 622 4416 
L 622 4863 
L 1947 4863 
z
" transform="scale(0.015625)"/>
      </defs>
      <use xlink:href="#DejaVuSans-78"/>
      <use xlink:href="#DejaVuSans-20" x="59.179688"/>
      <use xlink:href="#DejaVuSans-5b" x="90.966797"/>
      <use xlink:href="#DejaVuSans-6d" x="129.980469"/>
      <use xlink:href="#DejaVuSans-5d" x="227.392578"/>
     </g>
    </g>
   </g>
   <g id="matplotlib.axis_2">
    <g id="ytick_1">
     <g id="line2d_8">
      <defs>
       <path id="m28d24dd6cf" d="M 0 0 
L -3.5 0 
" style="stroke: #000000; stroke-width: 0.8"/>
      </defs>
      <g>
       <use xlink:href="#m28d24dd6cf" x="156.6" y="292.68" style="stroke: #000000; stroke-width: 0.8"/>
      </g>
     </g>
     <g id="text_9">
      <!-- −600 -->
      <g transform="translate(122.132813 296.479219) scale(0.1 -0.1)">
       <use xlink:href="#DejaVuSans-2212"/>
       <use xlink:href="#DejaVuSans-36" x="83.789062"/>
       <use xlink:href="#DejaVuSans-30" x="147.412109"/>
       <use xlink:href="#DejaVuSans-30" x="211.035156"/>
      </g>
     </g>
    </g>
    <g id="ytick_2">
     <g id="line2d_9">
      <g>
       <use xlink:href="#m28d24dd6cf" x="156.6" y="255.72" style="stroke: #000000; stroke-width: 0.8"/>
      </g>
     </g>
     <g id="text_10">
      <!-- −400 -->
      <g transform="translate(122.132813 259.519219) scale(0.1 -0.1)">
       <use xlink:href="#DejaVuSans-2212"/>
       <use xlink:href="#DejaVuSans-34" x="83.789062"/>
       <use xlink:href="#DejaVuSans-30" x="147.412109"/>
       <use xlink:href="#DejaVuSans-30" x="211.035156"/>
      </g>
     </g>
    </g>
    <g id="ytick_3">
     <g id="line2d_10">
      <g>
       <use xlink:href="#m28d24dd6cf" x="156.6" y="218.76" style="stroke: #000000; stroke-width: 0.8"/>
      </g>
     </g>
     <g id="text_11">
      <!-- −200 -->
      <g transform="translate(122.132813 222.559219) scale(0.1 -0.1)">
       <use xlink:href="#DejaVuSans-2212"/>
       <use xlink:href="#DejaVuSans-32" x="83.789062"/>
       <use xlink:href="#DejaVuSans-30" x="147.412109"/>
       <use xlink:href="#DejaVuSans-30" x="211.035156"/>
      </g>
     </g>
    </g>
    <g id="ytick_4">
     <g id="line2d_11">
      <g>
       <use xlink:href="#m28d24dd6cf" x="156.6" y="181.8" style="stroke: #000000; stroke-width: 0.8"/>
      </g>
     </g>
     <g id="text_12">
      <!-- 0 -->
      <g transform="translate(143.2375 185.599219) scale(0.1 -0.1)">
       <use xlink:href="#DejaVuSans-30"/>
      </g>
     </g>
    </g>
    <g id="ytick_5">
     <g id="line2d_12">
      <g>
       <use xlink:href="#m28d24dd6cf" x="156.6" y="144.84" style="stroke: #000000; stroke-width: 0.8"/>
      </g>
     </g>
     <g id="text_13">
      <!-- 200 -->
      <g transform="translate(130.5125 148.639219) scale(0.1 -0.1)">
       <use xlink:href="#DejaVuSans-32"/>
       <use xlink:href="#DejaVuSans-30" x="63.623047"/>
       <use xlink:href="#DejaVuSans-30" x="127.246094"/>
      </g>
     </g>
    </g>
    <g id="ytick_6">
     <g id="line2d_13">
      <g>
       <use xlink:href="#m28d24dd6cf" x="156.6" y="107.88" style="stroke: #000000; stroke-width: 0.8"/>
      </g>
     </g>
     <g id="text_14">
      <!-- 400 -->
      <g transform="translate(130.5125 111.679219) scale(0.1 -0.1)">
       <use xlink:href="#DejaVuSans-34"/>
       <use xlink:href="#DejaVuSans-30" x="63.623047"/>
       <use xlink:href="#DejaVuSans-30" x="127.246094"/>
      </g>
     </g>
    </g>
    <g id="ytick_7">
     <g id="line2d_14">
      <g>
       <use xlink:href="#m28d24dd6cf" x="156.6" y="70.92" style="stroke: #000000; stroke-width: 0.8"/>
      </g>
     </g>
     <g id="text_15">
      <!-- 600 -->
      <g transform="translate(130.5125 74.719219) scale(0.1 -0.1)">
       <use xlink:href="#DejaVuSans-36"/>
       <use xlink:href="#DejaVuSans-30" x="63.623047"/>
       <use xlink:href="#DejaVuSans-30" x="127.246094"/>
      </g>
     </g>
    </g>
    <g id="text_16">
     <!-- y [m] -->
     <g transform="translate(116.053125 195.120312) rotate(-90) scale(0.1 -0.1)">
      <defs>
       <path id="DejaVuSans-79" d="M 2059 -325 
Q 1816 -950 1584 -1140 
Q 1353 -1331 966 -1331 
L 506 -1331 
L 506 -850 
L 844 -850 
Q 1081 -850 1212 -737 
Q 1344 -625 1503 -206 
L 1606 56 
L 191 3500 
L 800 3500 
L 1894 763 
L 2988 3500 
L 3597 3500 
L 2059 -325 
z
" transform="scale(0.015625)"/>
      </defs>
      <use xlink:href="#DejaVuSans-79"/>
      <use xlink:href="#DejaVuSans-20" x="59.179688"/>
      <use xlink:href="#DejaVuSans-5b" x="90.966797"/>
      <use xlink:href="#DejaVuSans-6d" x="129.980469"/>
      <use xlink:href="#DejaVuSans-5d" x="227.392578"/>
     </g>
    </g>
   </g>
   <g id="patch_9">
    <path d="M 156.6 320.4 
L 156.6 43.2 
" style="fill: none; stroke: #000000; stroke-width: 0.8; stroke-linejoin: miter; stroke-linecap: square"/>
   </g>
   <g id="patch_10">
    <path d="M 433.8 320.4 
L 433.8 43.2 
" style="fill: none; stroke: #000000; stroke-width: 0.8; stroke-linejoin: miter; stroke-linecap: square"/>
   </g>
   <g id="patch_11">
    <path d="M 156.6 320.4 
L 433.8 320.4 
" style="fill: none; stroke: #000000; stroke-width: 0.8; stroke-linejoin: miter; stroke-linecap: square"/>
   </g>
   <g id="patch_12">
    <path d="M 156.6 43.2 
L 433.8 43.2 
" style="fill: none; stroke: #000000; stroke-width: 0.8; stroke-linejoin: miter; stroke-linecap: square"/>
   </g>
   <g id="text_17">
    <!-- A -->
    <g transform="translate(295.2 177.8) scale(0.1 -0.1)">
     <defs>
      <path id="DejaVuSans-41" d="M 2188 4044 
L 1331 1722 
L 3047 1722 
L 2188 4044 
z
M 1831 4666 
L 2547 4666 
L 4325 0 
L 3669 0 
L 3244 1197 
L 1141 1197 
L 716 0 
L 50 0 
L 1831 4666 
z
" transform="scale(0.015625)"/>
     </defs>
     <use xlink:href="#DejaVuSans-41"/>
    </g>
   </g>
   <g id="text_18">
    <!-- B -->
    <g transform="translate(279.799691 123.403992) scale(0.1 -0.1)">
     <defs>
      <path id="DejaVuSans-42" d="M 1259 2228 
L 1259 519 
L 2272 519 
Q 2781 519 3026 730 
Q 3272 941 3272 1375 
Q 3272 1813 3026 2020 
Q 2781 2228 2272 2228 
L 1259 2228 
z
M 1259 4147 
L 1259 2741 
L 2194 2741 
Q 2656 2741 2882 2914 
Q 3109 3088 3109 3444 
Q 3109 3797 2882 3972 
Q 2656 4147 2194 4147 
L 1259 4147 
z
M 628 4666 
L 2241 4666 
Q 2963 4666 3353 4366 
Q 3744 4066 3744 3513 
Q 3744 3084 3544 2831 
Q 3344 2578 2956 2516 
Q 3422 2416 3680 2098 
Q 3938 1781 3938 1306 
Q 3938 681 3513 340 
Q 3088 0 2303 0 
L 628 0 
L 628 4666 
z
" transform="scale(0.015625)"/>
     </defs>
     <use xlink:href="#DejaVuSans-42"/>
    </g>
   </g>
   <g id="text_19">
    <!-- C -->
    <g transform="translate(218.718463 118.421471) scale(0.1 -0.1)">
     <defs>
      <path id="DejaVuSans-43" d="M 4122 4306 
L 4122 3641 
Q 3803 3938 3442 4084 
Q 3081 4231 2675 4231 
Q 1875 4231 1450 3742 
Q 1025 3253 1025 2328 
Q 1025 1406 1450 917 
Q 1875 428 2675 428 
Q 3081 428 3442 575 
Q 3803 722 4122 1019 
L 4122 359 
Q 3791 134 3420 21 
Q 3050 -91 2638 -91 
Q 1578 -91 968 557 
Q 359 1206 359 2328 
Q 359 3453 968 4101 
Q 1578 4750 2638 4750 
Q 3056 4750 3426 4639 
Q 3797 4528 4122 4306 
z
" transform="scale(0.015625)"/>
     </defs>
     <use xlink:href="#DejaVuSans-43"/>
    </g>
   </g>
   <g id="text_20">
    <!-- Experiment 07 -->
    <g transform="translate(250.990313 37.2) scale(0.12 -0.12)">
     <defs>
      <path id="DejaVuSans-45" d="M 628 4666 
L 3578 4666 
L 3578 4134 
L 1259 4134 
L 1259 2753 
L 3481 2753 
L 3481 2222 
L 1259 2222 
L 1259 531 
L 3634 531 
L 3634 0 
L 628 0 
L 628 4666 
z
" transform="scale(0.015625)"/>
      <path id="DejaVuSans-70" d="M 1159 525 
L 1159 -1331 
L 581 -1331 
L 581 3500 
L 1159 3500 
L 1159 2969 
Q 1341 3281 1617 3432 
Q 1894 3584 2278 3584 
Q 2916 3584 3314 3078 
Q 3713 2572 3713 1747 
Q 3713 922 3314 415 
Q 2916 -91 2278 -91 
Q 1894 -91 1617 61 
Q 1341 213 1159 525 
z
M 3116 1747 
Q 3116 2381 2855 2742 
Q 2594 3103 2138 3103 
Q 1681 3103 1420 2742 
Q 1159 2381 1159 1747 
Q 1159 1113 1420 752 
Q 1681 391 2138 391 
Q 2594 391 2855 752 
Q 3116 1113 3116 1747 
z
" transform="scale(0.015625)"/>
      <path id="DejaVuSans-65" d="M 3597 1894 
L 3597 1613 
L 953 1613 
Q 991 1019 1311 708 
Q 1631 397 2203 397 
Q 2534 397 2845 478 
Q 3156 559 3463 722 
L 3463 178 
Q 3153 47 2828 -22 
Q 2503 -91 2169 -91 
Q 1331 -91 842 396 
Q 353 884 353 1716 
Q 353 2575 817 3079 
Q 1281 3584 2069 3584 
Q 2775 3584 3186 3129 
Q 3597 2675 3597 1894 
z
M 3022 2063 
Q 3016 2534 2758 2815 
Q 2500 3097 2075 3097 
Q 1594 3097 1305 2825 
Q 1016 2553 972 2059 
L 3022 2063 
z
" transform="scale(0.015625)"/>
      <path id="DejaVuSans-72" d="M 2631 2963 
Q 2534 3019 2420 3045 
Q 2306 3072 2169 3072 
Q 1681 3072 1420 2755 
Q 1159 2438 1159 1844 
L 1159 0 
L 581 0 
L 581 3500 
L 1159 3500 
L 1159 2956 
Q 1341 3275 1631 3429 
Q 1922 3584 2338 3584 
Q 2397 3584 2469 3576 
Q 2541 3569 2628 3553 
L 2631 2963 
z
" transform="scale(0.015625)"/>
      <path id="DejaVuSans-69" d="M 603 3500 
L 1178 3500 
L 1178 0 
L 603 0 
L 603 3500 
z
M 603 4863 
L 1178 4863 
L 1178 4134 
L 603 4134 
L 603 4863 
z
" transform="scale(0.015625)"/>
      <path id="DejaVuSans-6e" d="M 3513 2113 
L 3513 0 
L 2938 0 
L 2938 2094 
Q 2938 2591 2744 2837 
Q 2550 3084 2163 3084 
Q 1697 3084 1428 2787 
Q 1159 2491 1159 1978 
L 1159 0 
L 581 0 
L 581 3500 
L 1159 3500 
L 1159 2956 
Q 1366 3272 1645 3428 
Q 1925 3584 2291 3584 
Q 2894 3584 3203 3211 
Q 3513 2838 3513 2113 
z
" transform="scale(0.015625)"/>
      <path id="DejaVuSans-74" d="M 1172 4494 
L 1172 3500 
L 2356 3500 
L 2356 3053 
L 1172 3053 
L 1172 1153 
Q 1172 725 1289 603 
Q 1406 481 1766 481 
L 2356 481 
L 2356 0 
L 1766 0 
Q 1100 0 847 248 
Q 594 497 594 1153 
L 594 3053 
L 172 3053 
L 172 3500 
L 594 3500 
L 594 4494 
L 1172 4494 
z
" transform="scale(0.015625)"/>
      <path id="DejaVuSans-37" d="M 525 4666 
L 3525 4666 
L 3525 4397 
L 1831 0 
L 1172 0 
L 2766 4134 
L 525 4134 
L 525 4666 
z
" transform="scale(0.015625)"/>
     </defs>
     <use xlink:href="#DejaVuSans-45"/>
     <use xlink:href="#DejaVuSans-78" x="63.183594"/>
     <use xlink:href="#DejaVuSans-70" x="122.363281"/>
     <use xlink:href="#DejaVuSans-65" x="185.839844"/>
     <use xlink:href="#DejaVuSans-72" x="247.363281"/>
     <use xlink:href="#DejaVuSans-69" x="288.476562"/>
     <use xlink:href="#DejaVuSans-6d" x="316.259766"/>
     <use xlink:href="#DejaVuSans-65" x="413.671875"/>
     <use xlink:href="#DejaVuSans-6e" x="475.195312"/>
     <use xlink:href="#DejaVuSans-74" x="538.574219"/>
     <use xlink:href="#DejaVuSans-20" x="577.783203"/>
     <use xlink:href="#DejaVuSans-30" x="609.570312"/>
     <use xlink:href="#DejaVuSans-37" x="673.193359"/>
    </g>
   </g>
   <g id="legend_1">
    <g id="patch_13">
     <path d="M 320.684375 80.55625 
L 426.8 80.55625 
Q 428.8 80.55625 428.8 78.55625 
L 428.8 50.2 
Q 428.8 48.2 426.8 48.2 
L 320.684375 48.2 
Q 318.684375 48.2 318.684375 50.2 
L 318.684375 78.55625 
Q 318.684375 80.55625 320.684375 80.55625 
z
" style="fill: #ffffff; opacity: 0.8; stroke: #cccccc; stroke-linejoin: miter"/>
    </g>
    <g id="PathCollection_1">
     <defs>
      <path id="mb5b25f63be" d="M 0 1.2 
C 0.318244 1.2 0.623496 1.07356 0.848528 0.848528 
C 1.07356 0.623496 1.2 0.318244 1.2 0 
C 1.2 -0.318244 1.07356 -0.623496 0.848528 -0.848528 
C 0.623496 -1.07356 0.318244 -1.2 0 -1.2 
C -0.318244 -1.2 -0.623496 -1.07356 -0.848528 -0.848528 
C -1.07356 -0.623496 -1.2 -0.318244 -1.2 0 
C -1.2 0.318244 -1.07356 0.623496 -0.848528 0.848528 
C -0.623496 1.07356 -0.318244 1.2 0 1.2 
z
" style="stroke: #000000"/>
     </defs>
     <g>
      <use xlink:href="#mb5b25f63be" x="332.684375" y="57.173437" style="stroke: #000000"/>
     </g>
    </g>
    <g id="text_21">
     <!-- Anchor nodes -->
     <g transform="translate(350.684375 59.798437) scale(0.1 -0.1)">
      <defs>
       <path id="DejaVuSans-63" d="M 3122 3366 
L 3122 2828 
Q 2878 2963 2633 3030 
Q 2388 3097 2138 3097 
Q 1578 3097 1268 2742 
Q 959 2388 959 1747 
Q 959 1106 1268 751 
Q 1578 397 2138 397 
Q 2388 397 2633 464 
Q 2878 531 3122 666 
L 3122 134 
Q 2881 22 2623 -34 
Q 2366 -91 2075 -91 
Q 1284 -91 818 406 
Q 353 903 353 1747 
Q 353 2603 823 3093 
Q 1294 3584 2113 3584 
Q 2378 3584 2631 3529 
Q 2884 3475 3122 3366 
z
" transform="scale(0.015625)"/>
       <path id="DejaVuSans-68" d="M 3513 2113 
L 3513 0 
L 2938 0 
L 2938 2094 
Q 2938 2591 2744 2837 
Q 2550 3084 2163 3084 
Q 1697 3084 1428 2787 
Q 1159 2491 1159 1978 
L 1159 0 
L 581 0 
L 581 4863 
L 1159 4863 
L 1159 2956 
Q 1366 3272 1645 3428 
Q 1925 3584 2291 3584 
Q 2894 3584 3203 3211 
Q 3513 2838 3513 2113 
z
" transform="scale(0.015625)"/>
       <path id="DejaVuSans-6f" d="M 1959 3097 
Q 1497 3097 1228 2736 
Q 959 2375 959 1747 
Q 959 1119 1226 758 
Q 1494 397 1959 397 
Q 2419 397 2687 759 
Q 2956 1122 2956 1747 
Q 2956 2369 2687 2733 
Q 2419 3097 1959 3097 
z
M 1959 3584 
Q 2709 3584 3137 3096 
Q 3566 2609 3566 1747 
Q 3566 888 3137 398 
Q 2709 -91 1959 -91 
Q 1206 -91 779 398 
Q 353 888 353 1747 
Q 353 2609 779 3096 
Q 1206 3584 1959 3584 
z
" transform="scale(0.015625)"/>
       <path id="DejaVuSans-64" d="M 2906 2969 
L 2906 4863 
L 3481 4863 
L 3481 0 
L 2906 0 
L 2906 525 
Q 2725 213 2448 61 
Q 2172 -91 1784 -91 
Q 1150 -91 751 415 
Q 353 922 353 1747 
Q 353 2572 751 3078 
Q 1150 3584 1784 3584 
Q 2172 3584 2448 3432 
Q 2725 3281 2906 2969 
z
M 947 1747 
Q 947 1113 1208 752 
Q 1469 391 1925 391 
Q 2381 391 2643 752 
Q 2906 1113 2906 1747 
Q 2906 2381 2643 2742 
Q 2381 3103 1925 3103 
Q 1469 3103 1208 2742 
Q 947 2381 947 1747 
z
" transform="scale(0.015625)"/>
       <path id="DejaVuSans-73" d="M 2834 3397 
L 2834 2853 
Q 2591 2978 2328 3040 
Q 2066 3103 1784 3103 
Q 1356 3103 1142 2972 
Q 928 2841 928 2578 
Q 928 2378 1081 2264 
Q 1234 2150 1697 2047 
L 1894 2003 
Q 2506 1872 2764 1633 
Q 3022 1394 3022 966 
Q 3022 478 2636 193 
Q 2250 -91 1575 -91 
Q 1294 -91 989 -36 
Q 684 19 347 128 
L 347 722 
Q 666 556 975 473 
Q 1284 391 1588 391 
Q 1994 391 2212 530 
Q 2431 669 2431 922 
Q 2431 1156 2273 1281 
Q 2116 1406 1581 1522 
L 1381 1569 
Q 847 1681 609 1914 
Q 372 2147 372 2553 
Q 372 3047 722 3315 
Q 1072 3584 1716 3584 
Q 2034 3584 2315 3537 
Q 2597 3491 2834 3397 
z
" transform="scale(0.015625)"/>
      </defs>
      <use xlink:href="#DejaVuSans-41"/>
      <use xlink:href="#DejaVuSans-6e" x="68.408203"/>
      <use xlink:href="#DejaVuSans-63" x="131.787109"/>
      <use xlink:href="#DejaVuSans-68" x="186.767578"/>
      <use xlink:href="#DejaVuSans-6f" x="250.146484"/>
      <use xlink:href="#DejaVuSans-72" x="311.328125"/>
      <use xlink:href="#DejaVuSans-20" x="352.441406"/>
      <use xlink:href="#DejaVuSans-6e" x="384.228516"/>
      <use xlink:href="#DejaVuSans-6f" x="447.607422"/>
      <use xlink:href="#DejaVuSans-64" x="508.789062"/>
      <use xlink:href="#DejaVuSans-65" x="572.265625"/>
      <use xlink:href="#DejaVuSans-73" x="633.789062"/>
     </g>
    </g>
    <g id="PathCollection_2">
     <defs>
      <path id="ma2a18bce38" d="M -5.4 5.4 
L 5.4 -5.4 
M -5.4 -5.4 
L 5.4 5.4 
" style="stroke: #000000; stroke-width: 1.5"/>
     </defs>
     <g>
      <use xlink:href="#ma2a18bce38" x="332.684375" y="71.851562" style="stroke: #000000; stroke-width: 1.5"/>
     </g>
    </g>
    <g id="text_22">
     <!-- Actual position -->
     <g transform="translate(350.684375 74.476562) scale(0.1 -0.1)">
      <defs>
       <path id="DejaVuSans-75" d="M 544 1381 
L 544 3500 
L 1119 3500 
L 1119 1403 
Q 1119 906 1312 657 
Q 1506 409 1894 409 
Q 2359 409 2629 706 
Q 2900 1003 2900 1516 
L 2900 3500 
L 3475 3500 
L 3475 0 
L 2900 0 
L 2900 538 
Q 2691 219 2414 64 
Q 2138 -91 1772 -91 
Q 1169 -91 856 284 
Q 544 659 544 1381 
z
M 1991 3584 
L 1991 3584 
z
" transform="scale(0.015625)"/>
       <path id="DejaVuSans-61" d="M 2194 1759 
Q 1497 1759 1228 1600 
Q 959 1441 959 1056 
Q 959 750 1161 570 
Q 1363 391 1709 391 
Q 2188 391 2477 730 
Q 2766 1069 2766 1631 
L 2766 1759 
L 2194 1759 
z
M 3341 1997 
L 3341 0 
L 2766 0 
L 2766 531 
Q 2569 213 2275 61 
Q 1981 -91 1556 -91 
Q 1019 -91 701 211 
Q 384 513 384 1019 
Q 384 1609 779 1909 
Q 1175 2209 1959 2209 
L 2766 2209 
L 2766 2266 
Q 2766 2663 2505 2880 
Q 2244 3097 1772 3097 
Q 1472 3097 1187 3025 
Q 903 2953 641 2809 
L 641 3341 
Q 956 3463 1253 3523 
Q 1550 3584 1831 3584 
Q 2591 3584 2966 3190 
Q 3341 2797 3341 1997 
z
" transform="scale(0.015625)"/>
       <path id="DejaVuSans-6c" d="M 603 4863 
L 1178 4863 
L 1178 0 
L 603 0 
L 603 4863 
z
" transform="scale(0.015625)"/>
      </defs>
      <use xlink:href="#DejaVuSans-41"/>
      <use xlink:href="#DejaVuSans-63" x="66.658203"/>
      <use xlink:href="#DejaVuSans-74" x="121.638672"/>
      <use xlink:href="#DejaVuSans-75" x="160.847656"/>
      <use xlink:href="#DejaVuSans-61" x="224.226562"/>
      <use xlink:href="#DejaVuSans-6c" x="285.505859"/>
      <use xlink:href="#DejaVuSans-20" x="313.289062"/>
      <use xlink:href="#DejaVuSans-70" x="345.076172"/>
      <use xlink:href="#DejaVuSans-6f" x="408.552734"/>
      <use xlink:href="#DejaVuSans-73" x="469.734375"/>
      <use xlink:href="#DejaVuSans-69" x="521.833984"/>
      <use xlink:href="#DejaVuSans-74" x="549.617188"/>
      <use xlink:href="#DejaVuSans-69" x="588.826172"/>
      <use xlink:href="#DejaVuSans-6f" x="616.609375"/>
      <use xlink:href="#DejaVuSans-6e" x="677.791016"/>
     </g>
    </g>
   </g>
   <g id="PathCollection_3">
    <g clip-path="url(#p7639ca8c80)">
     <use xlink:href="#mb5b25f63be" x="295.2" y="181.8" style="stroke: #000000"/>
     <use xlink:href="#mb5b25f63be" x="279.799691" y="127.403992" style="stroke: #000000"/>
     <use xlink:href="#mb5b25f63be" x="218.718463" y="122.421471" style="stroke: #000000"/>
    </g>
   </g>
   <g id="PathCollection_4">
    <g clip-path="url(#p7639ca8c80)">
     <use xlink:href="#ma2a18bce38" x="254.745124" y="145.904094" style="stroke: #000000; stroke-width: 1.5"/>
    </g>
   </g>
  </g>
 </g>
 <defs>
  <clipPath id="p7639ca8c80">
   <rect x="156.6" y="43.2" width="277.2" height="277.2"/>
  </clipPath>
 </defs>
</svg>
