<?xml version="1.0" encoding="utf-8" standalone="no"?>
<!DOCTYPE svg PUBLIC "-//W3C//DTD SVG 1.1//EN"
  "http://www.w3.org/Graphics/SVG/1.1/DTD/svg11.dtd">
<svg xmlns:xlink="http://www.w3.org/1999/xlink" width="576pt" height="360pt" viewBox="0 0 576 360" xmlns="http://www.w3.org/2000/svg" version="1.1">
 <metadata>
  <rdf:RDF xmlns:dc="http://purl.org/dc/elements/1.1/" xmlns:cc="http://creativecommons.org/ns#" xmlns:rdf="http://www.w3.org/1999/02/22-rdf-syntax-ns#">
   <cc:Work>
    <dc:type rdf:resource="http://purl.org/dc/dcmitype/StillImage"/>
    <dc:date>2024-10-22T08:03:25.328389</dc:date>
    <dc:format>image/svg+xml</dc:format>
    <dc:creator>
     <cc:Agent>
      <dc:title>Matplotlib v3.9.2, https://matplotlib.org/</dc:title>
     </cc:Agent>
    </dc:creator>
   </cc:Work>
  </rdf:RDF>
 </metadata>
 <defs>
  <style type="text/css">*{stroke-linejoin: round; stroke-linecap: butt}</style>
 </defs>
 <g id="figure_1">
  <g id="patch_1">
   <path d="M 0 360 
L 576 360 
L 576 0 
L 0 0 
z
" style="fill: #ffffff"/>
  </g>
  <g id="axes_1">
   <g id="patch_2">
    <path d="M 156.6 320.4 
L 433.8 320.4 
L 433.8 43.2 
L 156.6 43.2 
z
" style="fill: #ffffff"/>
   </g>
   <g id="patch_3">
    <path d="M 439.619201 181.8 
C 439.619201 162.835044 435.883518 144.054499 428.625944 126.533164 
C 421.36837 109.01183 410.730045 93.090452 397.319796 79.680204 
C 383.909548 66.269955 367.98817 55.63163 350.466836 48.374056 
C 332.945501 41.116482 314.164956 37.380799 295.2 37.380799 
C 276.235044 37.380799 257.454499 41.116482 239.933164 48.374056 
C 222.41183 55.63163 206.490452 66.269955 193.080204 79.680204 
C 179.669955 93.090452 169.03163 109.01183 161.774056 126.533164 
C 154.516482 144.054499 150.780799 162.835044 150.780799 181.8 
C 150.780799 200.764956 154.516482 219.545501 161.774056 237.066836 
C 169.03163 254.58817 179.669955 270.509548 193.080204 283.919796 
C 206.490452 297.330045 222.41183 307.96837 239.933164 315.225944 
C 257.454499 322.483518 276.235044 326.219201 295.2 326.219201 
C 314.164956 326.219201 332.945501 322.483518 350.466836 315.225944 
C 367.98817 307.96837 383.909548 297.330045 397.319796 283.919796 
C 410.730045 270.509548 421.36837 254.58817 428.625944 237.066836 
C 435.883518 219.545501 439.619201 200.764956 439.619201 181.8 
M 401.022341 181.8 
C 401.022341 195.696463 398.285041 209.457799 392.967095 222.296457 
C 387.649149 235.135114 379.853978 246.801412 370.027695 256.627695 
C 360.201412 266.453978 348.535114 274.249149 335.696457 279.567095 
C 322.857799 284.885041 309.096463 287.622341 295.2 287.622341 
C 281.303537 287.622341 267.542201 284.885041 254.703543 279.567095 
C 241.864886 274.249149 230.198588 266.453978 220.372305 256.627695 
C 210.546022 246.801412 202.750851 235.135114 197.432905 222.296457 
C 192.114959 209.457799 189.377659 195.696463 189.377659 181.8 
C 189.377659 167.903537 192.114959 154.142201 197.432905 141.303543 
C 202.750851 128.464886 210.546022 116.798588 220.372305 106.972305 
C 230.198588 97.146022 241.864886 89.350851 254.703543 84.032905 
C 267.542201 78.714959 281.303537 75.977659 295.2 75.977659 
C 309.096463 75.977659 322.857799 78.714959 335.696457 84.032905 
C 348.535114 89.350851 360.201412 97.146022 370.027695 106.972305 
C 379.853978 116.798588 387.649149 128.464886 392.967095 141.303543 
C 398.285041 154.142201 401.022341 167.903537 401.022341 181.8 
z
" clip-path="url(#pf73d38541e)" style="fill: #1f77b4; fill-opacity: 0.3; stroke: #1f77b4; stroke-opacity: 0.3; stroke-linejoin: miter"/>
   </g>
   <g id="patch_4">
    <path d="M 379.905866 127.403992 
C 379.905866 114.25817 377.316425 101.240174 372.285737 89.095017 
C 367.255048 76.949861 359.880946 65.913737 350.585446 56.618237 
C 341.289946 47.322737 330.253822 39.948634 318.108665 34.917946 
C 305.963509 29.887257 292.945513 27.297817 279.799691 27.297817 
C 266.653868 27.297817 253.635872 29.887257 241.490716 34.917946 
C 229.34556 39.948634 218.309435 47.322737 209.013935 56.618237 
C 199.718435 65.913737 192.344333 76.949861 187.313644 89.095017 
C 182.282956 101.240174 179.693515 114.25817 179.693515 127.403992 
C 179.693515 140.549815 182.282956 153.567811 187.313644 165.712967 
C 192.344333 177.858123 199.718435 188.894247 209.013935 198.189747 
C 218.309435 207.485248 229.34556 214.85935 241.490716 219.890038 
C 253.635872 224.920727 266.653868 227.510167 279.799691 227.510167 
C 292.945513 227.510167 305.963509 224.920727 318.108665 219.890038 
C 330.253822 214.85935 341.289946 207.485248 350.585446 198.189747 
C 359.880946 188.894247 367.255048 177.858123 372.285737 165.712967 
C 377.316425 153.567811 379.905866 140.549815 379.905866 127.403992 
M 353.151916 127.403992 
C 353.151916 137.036518 351.254519 146.57538 347.56831 155.474674 
C 343.882102 164.373967 338.478771 172.460624 331.667547 179.271848 
C 324.856322 186.083073 316.769666 191.486404 307.870372 195.172612 
C 298.971078 198.85882 289.432217 200.756218 279.799691 200.756218 
C 270.167165 200.756218 260.628303 198.85882 251.729009 195.172612 
C 242.829715 191.486404 234.743059 186.083073 227.931834 179.271848 
C 221.12061 172.460624 215.717279 164.373967 212.031071 155.474674 
C 208.344863 146.57538 206.447465 137.036518 206.447465 127.403992 
C 206.447465 117.771466 208.344863 108.232604 212.031071 99.333311 
C 215.717279 90.434017 221.12061 82.34736 227.931834 75.536136 
C 234.743059 68.724912 242.829715 63.32158 251.729009 59.635372 
C 260.628303 55.949164 270.167165 54.051767 279.799691 54.051767 
C 289.432217 54.051767 298.971078 55.949164 307.870372 59.635372 
C 316.769666 63.32158 324.856322 68.724912 331.667547 75.536136 
C 338.478771 82.34736 343.882102 90.434017 347.56831 99.333311 
C 351.254519 108.232604 353.151916 117.771466 353.151916 127.403992 
z
" clip-path="url(#pf73d38541e)" style="fill: #ff7f0e; fill-opacity: 0.3; stroke: #ff7f0e; stroke-opacity: 0.3; stroke-linejoin: miter"/>
   </g>
   <g id="patch_5">
    <path d="M 270.187499 122.421471 
C 270.187499 115.662619 268.856152 108.969489 266.269652 102.725124 
C 263.683151 96.480759 259.891797 90.806597 255.112567 86.027367 
C 250.333337 81.248137 244.659175 77.456783 238.41481 74.870283 
C 232.170446 72.283782 225.477315 70.952436 218.718463 70.952436 
C 211.959612 70.952436 205.266481 72.283782 199.022116 74.870283 
C 192.777751 77.456783 187.103589 81.248137 182.32436 86.027367 
C 177.54513 90.806597 173.753776 96.480759 171.167275 102.725124 
C 168.580775 108.969489 167.249428 115.662619 167.249428 122.421471 
C 167.249428 129.180323 168.580775 135.873453 171.167275 142.117818 
C 173.753776 148.362183 177.54513 154.036345 182.32436 158.815575 
C 187.103589 163.594805 192.777751 167.386158 199.022116 169.972659 
C 205.266481 172.55916 211.959612 173.890506 218.718463 173.890506 
C 225.477315 173.890506 232.170446 172.55916 238.41481 169.972659 
C 244.659175 167.386158 250.333337 163.594805 255.112567 158.815575 
C 259.891797 154.036345 263.683151 148.362183 266.269652 142.117818 
C 268.856152 135.873453 270.187499 129.180323 270.187499 122.421471 
M 256.432104 122.421471 
C 256.432104 127.373981 255.456567 132.278334 253.561324 136.853856 
C 251.66608 141.429379 248.887987 145.587088 245.386034 149.089042 
C 241.884081 152.590995 237.726371 155.369088 233.150849 157.264331 
C 228.575326 159.159575 223.670973 160.135111 218.718463 160.135111 
C 213.765953 160.135111 208.861601 159.159575 204.286078 157.264331 
C 199.710556 155.369088 195.552846 152.590995 192.050893 149.089042 
C 188.548939 145.587088 185.770846 141.429379 183.875603 136.853856 
C 181.98036 132.278334 181.004823 127.373981 181.004823 122.421471 
C 181.004823 117.468961 181.98036 112.564608 183.875603 107.989086 
C 185.770846 103.413563 188.548939 99.255853 192.050893 95.7539 
C 195.552846 92.251947 199.710556 89.473854 204.286078 87.578611 
C 208.861601 85.683367 213.765953 84.707831 218.718463 84.707831 
C 223.670973 84.707831 228.575326 85.683367 233.150849 87.578611 
C 237.726371 89.473854 241.884081 92.251947 245.386034 95.7539 
C 248.887987 99.255853 251.66608 103.413563 253.561324 107.989086 
C 255.456567 112.564608 256.432104 117.468961 256.432104 122.421471 
z
" clip-path="url(#pf73d38541e)" style="fill: #2ca02c; fill-opacity: 0.3; stroke: #2ca02c; stroke-opacity: 0.3; stroke-linejoin: miter"/>
   </g>
   <g id="patch_6">
    <path d="M 295.2 306.920771 
C 328.382416 306.920771 360.210234 293.737257 383.673746 270.273746 
C 407.137257 246.810234 420.320771 214.982416 420.320771 181.8 
C 420.320771 148.617584 407.137257 116.789766 383.673746 93.326254 
C 360.210234 69.862743 328.382416 56.679229 295.2 56.679229 
C 262.017584 56.679229 230.189766 69.862743 206.726254 93.326254 
C 183.262743 116.789766 170.079229 148.617584 170.079229 181.8 
C 170.079229 214.982416 183.262743 246.810234 206.726254 270.273746 
C 230.189766 293.737257 262.017584 306.920771 295.2 306.920771 
L 295.2 306.920771 
z
" clip-path="url(#pf73d38541e)" style="fill: none; stroke: #1f77b4; stroke-opacity: 0.8; stroke-linejoin: miter"/>
   </g>
   <g id="patch_7">
    <path d="M 279.799691 214.133192 
C 302.800543 214.133192 324.862437 204.994857 341.126496 188.730798 
C 357.390555 172.466739 366.528891 150.404845 366.528891 127.403992 
C 366.528891 104.403139 357.390555 82.341245 341.126496 66.077186 
C 324.862437 49.813127 302.800543 40.674792 279.799691 40.674792 
C 256.798838 40.674792 234.736944 49.813127 218.472885 66.077186 
C 202.208826 82.341245 193.07049 104.403139 193.07049 127.403992 
C 193.07049 150.404845 202.208826 172.466739 218.472885 188.730798 
C 234.736944 204.994857 256.798838 214.133192 279.799691 214.133192 
L 279.799691 214.133192 
z
" clip-path="url(#pf73d38541e)" style="fill: none; stroke: #ff7f0e; stroke-opacity: 0.8; stroke-linejoin: miter"/>
   </g>
   <g id="patch_8">
    <path d="M 218.718463 167.012809 
C 230.544224 167.012809 241.887225 162.314384 250.249301 153.952308 
C 258.611376 145.590232 263.309801 134.247232 263.309801 122.421471 
C 263.309801 110.59571 258.611376 99.252709 250.249301 90.890634 
C 241.887225 82.528558 230.544224 77.830133 218.718463 77.830133 
C 206.892702 77.830133 195.549702 82.528558 187.187626 90.890634 
C 178.82555 99.252709 174.127126 110.59571 174.127126 122.421471 
C 174.127126 134.247232 178.82555 145.590232 187.187626 153.952308 
C 195.549702 162.314384 206.892702 167.012809 218.718463 167.012809 
L 218.718463 167.012809 
z
" clip-path="url(#pf73d38541e)" style="fill: none; stroke: #2ca02c; stroke-opacity: 0.8; stroke-linejoin: miter"/>
   </g>
   <g id="patch_9">
    <path d="M 195.803576 105.802907 
L 177.484043 139.395274 
L 200.833495 163.268935 
z
" clip-path="url(#pf73d38541e)" style="fill: #9467bd; fill-opacity: 0.8; stroke: #9467bd; stroke-opacity: 0.8; stroke-linejoin: miter"/>
   </g>
   <g id="matplotlib.axis_1">
    <g id="xtick_1">
     <g id="line2d_1">
      <defs>
       <path id="mc127385de2" d="M 0 0 
L 0 3.5 
" style="stroke: #000000; stroke-width: 0.8"/>
      </defs>
      <g>
       <use xlink:href="#mc127385de2" x="184.32" y="320.4" style="stroke: #000000; stroke-width: 0.8"/>
      </g>
     </g>
     <g id="text_1">
      <!-- −600 -->
      <g transform="translate(170.586406 334.998438) scale(0.1 -0.1)">
       <defs>
        <path id="DejaVuSans-2212" d="M 678 2272 
L 4684 2272 
L 4684 1741 
L 678 1741 
L 678 2272 
z
" transform="scale(0.015625)"/>
        <path id="DejaVuSans-36" d="M 2113 2584 
Q 1688 2584 1439 2293 
Q 1191 2003 1191 1497 
Q 1191 994 1439 701 
Q 1688 409 2113 409 
Q 2538 409 2786 701 
Q 3034 994 3034 1497 
Q 3034 2003 2786 2293 
Q 2538 2584 2113 2584 
z
M 3366 4563 
L 3366 3988 
Q 3128 4100 2886 4159 
Q 2644 4219 2406 4219 
Q 1781 4219 1451 3797 
Q 1122 3375 1075 2522 
Q 1259 2794 1537 2939 
Q 1816 3084 2150 3084 
Q 2853 3084 3261 2657 
Q 3669 2231 3669 1497 
Q 3669 778 3244 343 
Q 2819 -91 2113 -91 
Q 1303 -91 875 529 
Q 447 1150 447 2328 
Q 447 3434 972 4092 
Q 1497 4750 2381 4750 
Q 2619 4750 2861 4703 
Q 3103 4656 3366 4563 
z
" transform="scale(0.015625)"/>
        <path id="DejaVuSans-30" d="M 2034 4250 
Q 1547 4250 1301 3770 
Q 1056 3291 1056 2328 
Q 1056 1369 1301 889 
Q 1547 409 2034 409 
Q 2525 409 2770 889 
Q 3016 1369 3016 2328 
Q 3016 3291 2770 3770 
Q 2525 4250 2034 4250 
z
M 2034 4750 
Q 2819 4750 3233 4129 
Q 3647 3509 3647 2328 
Q 3647 1150 3233 529 
Q 2819 -91 2034 -91 
Q 1250 -91 836 529 
Q 422 1150 422 2328 
Q 422 3509 836 4129 
Q 1250 4750 2034 4750 
z
" transform="scale(0.015625)"/>
       </defs>
       <use xlink:href="#DejaVuSans-2212"/>
       <use xlink:href="#DejaVuSans-36" x="83.789062"/>
       <use xlink:href="#DejaVuSans-30" x="147.412109"/>
       <use xlink:href="#DejaVuSans-30" x="211.035156"/>
      </g>
     </g>
    </g>
    <g id="xtick_2">
     <g id="line2d_2">
      <g>
       <use xlink:href="#mc127385de2" x="221.28" y="320.4" style="stroke: #000000; stroke-width: 0.8"/>
      </g>
     </g>
     <g id="text_2">
      <!-- −400 -->
      <g transform="translate(207.546406 334.998438) scale(0.1 -0.1)">
       <defs>
        <path id="DejaVuSans-34" d="M 2419 4116 
L 825 1625 
L 2419 1625 
L 2419 4116 
z
M 2253 4666 
L 3047 4666 
L 3047 1625 
L 3713 1625 
L 3713 1100 
L 3047 1100 
L 3047 0 
L 2419 0 
L 2419 1100 
L 313 1100 
L 313 1709 
L 2253 4666 
z
" transform="scale(0.015625)"/>
       </defs>
       <use xlink:href="#DejaVuSans-2212"/>
       <use xlink:href="#DejaVuSans-34" x="83.789062"/>
       <use xlink:href="#DejaVuSans-30" x="147.412109"/>
       <use xlink:href="#DejaVuSans-30" x="211.035156"/>
      </g>
     </g>
    </g>
    <g id="xtick_3">
     <g id="line2d_3">
      <g>
       <use xlink:href="#mc127385de2" x="258.24" y="320.4" style="stroke: #000000; stroke-width: 0.8"/>
      </g>
     </g>
     <g id="text_3">
      <!-- −200 -->
      <g transform="translate(244.506406 334.998438) scale(0.1 -0.1)">
       <defs>
        <path id="DejaVuSans-32" d="M 1228 531 
L 3431 531 
L 3431 0 
L 469 0 
L 469 531 
Q 828 903 1448 1529 
Q 2069 2156 2228 2338 
Q 2531 2678 2651 2914 
Q 2772 3150 2772 3378 
Q 2772 3750 2511 3984 
Q 2250 4219 1831 4219 
Q 1534 4219 1204 4116 
Q 875 4013 500 3803 
L 500 4441 
Q 881 4594 1212 4672 
Q 1544 4750 1819 4750 
Q 2544 4750 2975 4387 
Q 3406 4025 3406 3419 
Q 3406 3131 3298 2873 
Q 3191 2616 2906 2266 
Q 2828 2175 2409 1742 
Q 1991 1309 1228 531 
z
" transform="scale(0.015625)"/>
       </defs>
       <use xlink:href="#DejaVuSans-2212"/>
       <use xlink:href="#DejaVuSans-32" x="83.789062"/>
       <use xlink:href="#DejaVuSans-30" x="147.412109"/>
       <use xlink:href="#DejaVuSans-30" x="211.035156"/>
      </g>
     </g>
    </g>
    <g id="xtick_4">
     <g id="line2d_4">
      <g>
       <use xlink:href="#mc127385de2" x="295.2" y="320.4" style="stroke: #000000; stroke-width: 0.8"/>
      </g>
     </g>
     <g id="text_4">
      <!-- 0 -->
      <g transform="translate(292.01875 334.998438) scale(0.1 -0.1)">
       <use xlink:href="#DejaVuSans-30"/>
      </g>
     </g>
    </g>
    <g id="xtick_5">
     <g id="line2d_5">
      <g>
       <use xlink:href="#mc127385de2" x="332.16" y="320.4" style="stroke: #000000; stroke-width: 0.8"/>
      </g>
     </g>
     <g id="text_5">
      <!-- 200 -->
      <g transform="translate(322.61625 334.998438) scale(0.1 -0.1)">
       <use xlink:href="#DejaVuSans-32"/>
       <use xlink:href="#DejaVuSans-30" x="63.623047"/>
       <use xlink:href="#DejaVuSans-30" x="127.246094"/>
      </g>
     </g>
    </g>
    <g id="xtick_6">
     <g id="line2d_6">
      <g>
       <use xlink:href="#mc127385de2" x="369.12" y="320.4" style="stroke: #000000; stroke-width: 0.8"/>
      </g>
     </g>
     <g id="text_6">
      <!-- 400 -->
      <g transform="translate(359.57625 334.998438) scale(0.1 -0.1)">
       <use xlink:href="#DejaVuSans-34"/>
       <use xlink:href="#DejaVuSans-30" x="63.623047"/>
       <use xlink:href="#DejaVuSans-30" x="127.246094"/>
      </g>
     </g>
    </g>
    <g id="xtick_7">
     <g id="line2d_7">
      <g>
       <use xlink:href="#mc127385de2" x="406.08" y="320.4" style="stroke: #000000; stroke-width: 0.8"/>
      </g>
     </g>
     <g id="text_7">
      <!-- 600 -->
      <g transform="translate(396.53625 334.998438) scale(0.1 -0.1)">
       <use xlink:href="#DejaVuSans-36"/>
       <use xlink:href="#DejaVuSans-30" x="63.623047"/>
       <use xlink:href="#DejaVuSans-30" x="127.246094"/>
      </g>
     </g>
    </g>
    <g id="text_8">
     <!-- x [m] -->
     <g transform="translate(281.879688 348.676562) scale(0.1 -0.1)">
      <defs>
       <path id="DejaVuSans-78" d="M 3513 3500 
L 2247 1797 
L 3578 0 
L 2900 0 
L 1881 1375 
L 863 0 
L 184 0 
L 1544 1831 
L 300 3500 
L 978 3500 
L 1906 2253 
L 2834 3500 
L 3513 3500 
z
" transform="scale(0.015625)"/>
       <path id="DejaVuSans-20" transform="scale(0.015625)"/>
       <path id="DejaVuSans-5b" d="M 550 4863 
L 1875 4863 
L 1875 4416 
L 1125 4416 
L 1125 -397 
L 1875 -397 
L 1875 -844 
L 550 -844 
L 550 4863 
z
" transform="scale(0.015625)"/>
       <path id="DejaVuSans-6d" d="M 3328 2828 
Q 3544 3216 3844 3400 
Q 4144 3584 4550 3584 
Q 5097 3584 5394 3201 
Q 5691 2819 5691 2113 
L 5691 0 
L 5113 0 
L 5113 2094 
Q 5113 2597 4934 2840 
Q 4756 3084 4391 3084 
Q 3944 3084 3684 2787 
Q 3425 2491 3425 1978 
L 3425 0 
L 2847 0 
L 2847 2094 
Q 2847 2600 2669 2842 
Q 2491 3084 2119 3084 
Q 1678 3084 1418 2786 
Q 1159 2488 1159 1978 
L 1159 0 
L 581 0 
L 581 3500 
L 1159 3500 
L 1159 2956 
Q 1356 3278 1631 3431 
Q 1906 3584 2284 3584 
Q 2666 3584 2933 3390 
Q 3200 3197 3328 2828 
z
" transform="scale(0.015625)"/>
       <path id="DejaVuSans-5d" d="M 1947 4863 
L 1947 -844 
L 622 -844 
L 622 -397 
L 1369 -397 
L 1369 4416 
L 622 4416 
L 622 4863 
L 1947 4863 
z
" transform="scale(0.015625)"/>
      </defs>
      <use xlink:href="#DejaVuSans-78"/>
      <use xlink:href="#DejaVuSans-20" x="59.179688"/>
      <use xlink:href="#DejaVuSans-5b" x="90.966797"/>
      <use xlink:href="#DejaVuSans-6d" x="129.980469"/>
      <use xlink:href="#DejaVuSans-5d" x="227.392578"/>
     </g>
    </g>
   </g>
   <g id="matplotlib.axis_2">
    <g id="ytick_1">
     <g id="line2d_8">
      <defs>
       <path id="m0bd21fa0c2" d="M 0 0 
L -3.5 0 
" style="stroke: #000000; stroke-width: 0.8"/>
      </defs>
      <g>
       <use xlink:href="#m0bd21fa0c2" x="156.6" y="292.68" style="stroke: #000000; stroke-width: 0.8"/>
      </g>
     </g>
     <g id="text_9">
      <!-- −600 -->
      <g transform="translate(122.132813 296.479219) scale(0.1 -0.1)">
       <use xlink:href="#DejaVuSans-2212"/>
       <use xlink:href="#DejaVuSans-36" x="83.789062"/>
       <use xlink:href="#DejaVuSans-30" x="147.412109"/>
       <use xlink:href="#DejaVuSans-30" x="211.035156"/>
      </g>
     </g>
    </g>
    <g id="ytick_2">
     <g id="line2d_9">
      <g>
       <use xlink:href="#m0bd21fa0c2" x="156.6" y="255.72" style="stroke: #000000; stroke-width: 0.8"/>
      </g>
     </g>
     <g id="text_10">
      <!-- −400 -->
      <g transform="translate(122.132813 259.519219) scale(0.1 -0.1)">
       <use xlink:href="#DejaVuSans-2212"/>
       <use xlink:href="#DejaVuSans-34" x="83.789062"/>
       <use xlink:href="#DejaVuSans-30" x="147.412109"/>
       <use xlink:href="#DejaVuSans-30" x="211.035156"/>
      </g>
     </g>
    </g>
    <g id="ytick_3">
     <g id="line2d_10">
      <g>
       <use xlink:href="#m0bd21fa0c2" x="156.6" y="218.76" style="stroke: #000000; stroke-width: 0.8"/>
      </g>
     </g>
     <g id="text_11">
      <!-- −200 -->
      <g transform="translate(122.132813 222.559219) scale(0.1 -0.1)">
       <use xlink:href="#DejaVuSans-2212"/>
       <use xlink:href="#DejaVuSans-32" x="83.789062"/>
       <use xlink:href="#DejaVuSans-30" x="147.412109"/>
       <use xlink:href="#DejaVuSans-30" x="211.035156"/>
      </g>
     </g>
    </g>
    <g id="ytick_4">
     <g id="line2d_11">
      <g>
       <use xlink:href="#m0bd21fa0c2" x="156.6" y="181.8" style="stroke: #000000; stroke-width: 0.8"/>
      </g>
     </g>
     <g id="text_12">
      <!-- 0 -->
      <g transform="translate(143.2375 185.599219) scale(0.1 -0.1)">
       <use xlink:href="#DejaVuSans-30"/>
      </g>
     </g>
    </g>
    <g id="ytick_5">
     <g id="line2d_12">
      <g>
       <use xlink:href="#m0bd21fa0c2" x="156.6" y="144.84" style="stroke: #000000; stroke-width: 0.8"/>
      </g>
     </g>
     <g id="text_13">
      <!-- 200 -->
      <g transform="translate(130.5125 148.639219) scale(0.1 -0.1)">
       <use xlink:href="#DejaVuSans-32"/>
       <use xlink:href="#DejaVuSans-30" x="63.623047"/>
       <use xlink:href="#DejaVuSans-30" x="127.246094"/>
      </g>
     </g>
    </g>
    <g id="ytick_6">
     <g id="line2d_13">
      <g>
       <use xlink:href="#m0bd21fa0c2" x="156.6" y="107.88" style="stroke: #000000; stroke-width: 0.8"/>
      </g>
     </g>
     <g id="text_14">
      <!-- 400 -->
      <g transform="translate(130.5125 111.679219) scale(0.1 -0.1)">
       <use xlink:href="#DejaVuSans-34"/>
       <use xlink:href="#DejaVuSans-30" x="63.623047"/>
       <use xlink:href="#DejaVuSans-30" x="127.246094"/>
      </g>
     </g>
    </g>
    <g id="ytick_7">
     <g id="line2d_14">
      <g>
       <use xlink:href="#m0bd21fa0c2" x="156.6" y="70.92" style="stroke: #000000; stroke-width: 0.8"/>
      </g>
     </g>
     <g id="text_15">
      <!-- 600 -->
      <g transform="translate(130.5125 74.719219) scale(0.1 -0.1)">
       <use xlink:href="#DejaVuSans-36"/>
       <use xlink:href="#DejaVuSans-30" x="63.623047"/>
       <use xlink:href="#DejaVuSans-30" x="127.246094"/>
      </g>
     </g>
    </g>
    <g id="text_16">
     <!-- y [m] -->
     <g transform="translate(116.053125 195.120312) rotate(-90) scale(0.1 -0.1)">
      <defs>
       <path id="DejaVuSans-79" d="M 2059 -325 
Q 1816 -950 1584 -1140 
Q 1353 -1331 966 -1331 
L 506 -1331 
L 506 -850 
L 844 -850 
Q 1081 -850 1212 -737 
Q 1344 -625 1503 -206 
L 1606 56 
L 191 3500 
L 800 3500 
L 1894 763 
L 2988 3500 
L 3597 3500 
L 2059 -325 
z
" transform="scale(0.015625)"/>
      </defs>
      <use xlink:href="#DejaVuSans-79"/>
      <use xlink:href="#DejaVuSans-20" x="59.179688"/>
      <use xlink:href="#DejaVuSans-5b" x="90.966797"/>
      <use xlink:href="#DejaVuSans-6d" x="129.980469"/>
      <use xlink:href="#DejaVuSans-5d" x="227.392578"/>
     </g>
    </g>
   </g>
   <g id="patch_10">
    <path d="M 156.6 320.4 
L 156.6 43.2 
" style="fill: none; stroke: #000000; stroke-width: 0.8; stroke-linejoin: miter; stroke-linecap: square"/>
   </g>
   <g id="patch_11">
    <path d="M 433.8 320.4 
L 433.8 43.2 
" style="fill: none; stroke: #000000; stroke-width: 0.8; stroke-linejoin: miter; stroke-linecap: square"/>
   </g>
   <g id="patch_12">
    <path d="M 156.6 320.4 
L 433.8 320.4 
" style="fill: none; stroke: #000000; stroke-width: 0.8; stroke-linejoin: miter; stroke-linecap: square"/>
   </g>
   <g id="patch_13">
    <path d="M 156.6 43.2 
L 433.8 43.2 
" style="fill: none; stroke: #000000; stroke-width: 0.8; stroke-linejoin: miter; stroke-linecap: square"/>
   </g>
   <g id="text_17">
    <!-- A -->
    <g transform="translate(295.2 177.8) scale(0.1 -0.1)">
     <defs>
      <path id="DejaVuSans-41" d="M 2188 4044 
L 1331 1722 
L 3047 1722 
L 2188 4044 
z
M 1831 4666 
L 2547 4666 
L 4325 0 
L 3669 0 
L 3244 1197 
L 1141 1197 
L 716 0 
L 50 0 
L 1831 4666 
z
" transform="scale(0.015625)"/>
     </defs>
     <use xlink:href="#DejaVuSans-41"/>
    </g>
   </g>
   <g id="text_18">
    <!-- B -->
    <g transform="translate(279.799691 123.403992) scale(0.1 -0.1)">
     <defs>
      <path id="DejaVuSans-42" d="M 1259 2228 
L 1259 519 
L 2272 519 
Q 2781 519 3026 730 
Q 3272 941 3272 1375 
Q 3272 1813 3026 2020 
Q 2781 2228 2272 2228 
L 1259 2228 
z
M 1259 4147 
L 1259 2741 
L 2194 2741 
Q 2656 2741 2882 2914 
Q 3109 3088 3109 3444 
Q 3109 3797 2882 3972 
Q 2656 4147 2194 4147 
L 1259 4147 
z
M 628 4666 
L 2241 4666 
Q 2963 4666 3353 4366 
Q 3744 4066 3744 3513 
Q 3744 3084 3544 2831 
Q 3344 2578 2956 2516 
Q 3422 2416 3680 2098 
Q 3938 1781 3938 1306 
Q 3938 681 3513 340 
Q 3088 0 2303 0 
L 628 0 
L 628 4666 
z
" transform="scale(0.015625)"/>
     </defs>
     <use xlink:href="#DejaVuSans-42"/>
    </g>
   </g>
   <g id="text_19">
    <!-- C -->
    <g transform="translate(218.718463 118.421471) scale(0.1 -0.1)">
     <defs>
      <path id="DejaVuSans-43" d="M 4122 4306 
L 4122 3641 
Q 3803 3938 3442 4084 
Q 3081 4231 2675 4231 
Q 1875 4231 1450 3742 
Q 1025 3253 1025 2328 
Q 1025 1406 1450 917 
Q 1875 428 2675 428 
Q 3081 428 3442 575 
Q 3803 722 4122 1019 
L 4122 359 
Q 3791 134 3420 21 
Q 3050 -91 2638 -91 
Q 1578 -91 968 557 
Q 359 1206 359 2328 
Q 359 3453 968 4101 
Q 1578 4750 2638 4750 
Q 3056 4750 3426 4639 
Q 3797 4528 4122 4306 
z
" transform="scale(0.015625)"/>
     </defs>
     <use xlink:href="#DejaVuSans-43"/>
    </g>
   </g>
   <g id="text_20">
    <!-- Experiment 07 -->
    <g transform="translate(250.990313 37.2) scale(0.12 -0.12)">
     <defs>
      <path id="DejaVuSans-45" d="M 628 4666 
L 3578 4666 
L 3578 4134 
L 1259 4134 
L 1259 2753 
L 3481 2753 
L 3481 2222 
L 1259 2222 
L 1259 531 
L 3634 531 
L 3634 0 
L 628 0 
L 628 4666 
z
" transform="scale(0.015625)"/>
      <path id="DejaVuSans-70" d="M 1159 525 
L 1159 -1331 
L 581 -1331 
L 581 3500 
L 1159 3500 
L 1159 2969 
Q 1341 3281 1617 3432 
Q 1894 3584 2278 3584 
Q 2916 3584 3314 3078 
Q 3713 2572 3713 1747 
Q 3713 922 3314 415 
Q 2916 -91 2278 -91 
Q 1894 -91 1617 61 
Q 1341 213 1159 525 
z
M 3116 1747 
Q 3116 2381 2855 2742 
Q 2594 3103 2138 3103 
Q 1681 3103 1420 2742 
Q 1159 2381 1159 1747 
Q 1159 1113 1420 752 
Q 1681 391 2138 391 
Q 2594 391 2855 752 
Q 3116 1113 3116 1747 
z
" transform="scale(0.015625)"/>
      <path id="DejaVuSans-65" d="M 3597 1894 
L 3597 1613 
L 953 1613 
Q 991 1019 1311 708 
Q 1631 397 2203 397 
Q 2534 397 2845 478 
Q 3156 559 3463 722 
L 3463 178 
Q 3153 47 2828 -22 
Q 2503 -91 2169 -91 
Q 1331 -91 842 396 
Q 353 884 353 1716 
Q 353 2575 817 3079 
Q 1281 3584 2069 3584 
Q 2775 3584 3186 3129 
Q 3597 2675 3597 1894 
z
M 3022 2063 
Q 3016 2534 2758 2815 
Q 2500 3097 2075 3097 
Q 1594 3097 1305 2825 
Q 1016 2553 972 2059 
L 3022 2063 
z
" transform="scale(0.015625)"/>
      <path id="DejaVuSans-72" d="M 2631 2963 
Q 2534 3019 2420 3045 
Q 2306 3072 2169 3072 
Q 1681 3072 1420 2755 
Q 1159 2438 1159 1844 
L 1159 0 
L 581 0 
L 581 3500 
L 1159 3500 
L 1159 2956 
Q 1341 3275 1631 3429 
Q 1922 3584 2338 3584 
Q 2397 3584 2469 3576 
Q 2541 3569 2628 3553 
L 2631 2963 
z
" transform="scale(0.015625)"/>
      <path id="DejaVuSans-69" d="M 603 3500 
L 1178 3500 
L 1178 0 
L 603 0 
L 603 3500 
z
M 603 4863 
L 1178 4863 
L 1178 4134 
L 603 4134 
L 603 4863 
z
" transform="scale(0.015625)"/>
      <path id="DejaVuSans-6e" d="M 3513 2113 
L 3513 0 
L 2938 0 
L 2938 2094 
Q 2938 2591 2744 2837 
Q 2550 3084 2163 3084 
Q 1697 3084 1428 2787 
Q 1159 2491 1159 1978 
L 1159 0 
L 581 0 
L 581 3500 
L 1159 3500 
L 1159 2956 
Q 1366 3272 1645 3428 
Q 1925 3584 2291 3584 
Q 2894 3584 3203 3211 
Q 3513 2838 3513 2113 
z
" transform="scale(0.015625)"/>
      <path id="DejaVuSans-74" d="M 1172 4494 
L 1172 3500 
L 2356 3500 
L 2356 3053 
L 1172 3053 
L 1172 1153 
Q 1172 725 1289 603 
Q 1406 481 1766 481 
L 2356 481 
L 2356 0 
L 1766 0 
Q 1100 0 847 248 
Q 594 497 594 1153 
L 594 3053 
L 172 3053 
L 172 3500 
L 594 3500 
L 594 4494 
L 1172 4494 
z
" transform="scale(0.015625)"/>
      <path id="DejaVuSans-37" d="M 525 4666 
L 3525 4666 
L 3525 4397 
L 1831 0 
L 1172 0 
L 2766 4134 
L 525 4134 
L 525 4666 
z
" transform="scale(0.015625)"/>
     </defs>
     <use xlink:href="#DejaVuSans-45"/>
     <use xlink:href="#DejaVuSans-78" x="63.183594"/>
     <use xlink:href="#DejaVuSans-70" x="122.363281"/>
     <use xlink:href="#DejaVuSans-65" x="185.839844"/>
     <use xlink:href="#DejaVuSans-72" x="247.363281"/>
     <use xlink:href="#DejaVuSans-69" x="288.476562"/>
     <use xlink:href="#DejaVuSans-6d" x="316.259766"/>
     <use xlink:href="#DejaVuSans-65" x="413.671875"/>
     <use xlink:href="#DejaVuSans-6e" x="475.195312"/>
     <use xlink:href="#DejaVuSans-74" x="538.574219"/>
     <use xlink:href="#DejaVuSans-20" x="577.783203"/>
     <use xlink:href="#DejaVuSans-30" x="609.570312"/>
     <use xlink:href="#DejaVuSans-37" x="673.193359"/>
    </g>
   </g>
   <g id="legend_1">
    <g id="patch_14">
     <path d="M 301.495313 95.234375 
L 426.8 95.234375 
Q 428.8 95.234375 428.8 93.234375 
L 428.8 50.2 
Q 428.8 48.2 426.8 48.2 
L 301.495313 48.2 
Q 299.495313 48.2 299.495313 50.2 
L 299.495313 93.234375 
Q 299.495313 95.234375 301.495313 95.234375 
z
" style="fill: #ffffff; opacity: 0.8; stroke: #cccccc; stroke-linejoin: miter"/>
    </g>
    <g id="PathCollection_1">
     <defs>
      <path id="mb6c67a8fc2" d="M 0 1.2 
C 0.318244 1.2 0.623496 1.07356 0.848528 0.848528 
C 1.07356 0.623496 1.2 0.318244 1.2 0 
C 1.2 -0.318244 1.07356 -0.623496 0.848528 -0.848528 
C 0.623496 -1.07356 0.318244 -1.2 0 -1.2 
C -0.318244 -1.2 -0.623496 -1.07356 -0.848528 -0.848528 
C -1.07356 -0.623496 -1.2 -0.318244 -1.2 0 
C -1.2 0.318244 -1.07356 0.623496 -0.848528 0.848528 
C -0.623496 1.07356 -0.318244 1.2 0 1.2 
z
" style="stroke: #000000"/>
     </defs>
     <g>
      <use xlink:href="#mb6c67a8fc2" x="313.495313" y="57.173437" style="stroke: #000000"/>
     </g>
    </g>
    <g id="text_21">
     <!-- Anchor nodes -->
     <g transform="translate(331.495313 59.798437) scale(0.1 -0.1)">
      <defs>
       <path id="DejaVuSans-63" d="M 3122 3366 
L 3122 2828 
Q 2878 2963 2633 3030 
Q 2388 3097 2138 3097 
Q 1578 3097 1268 2742 
Q 959 2388 959 1747 
Q 959 1106 1268 751 
Q 1578 397 2138 397 
Q 2388 397 2633 464 
Q 2878 531 3122 666 
L 3122 134 
Q 2881 22 2623 -34 
Q 2366 -91 2075 -91 
Q 1284 -91 818 406 
Q 353 903 353 1747 
Q 353 2603 823 3093 
Q 1294 3584 2113 3584 
Q 2378 3584 2631 3529 
Q 2884 3475 3122 3366 
z
" transform="scale(0.015625)"/>
       <path id="DejaVuSans-68" d="M 3513 2113 
L 3513 0 
L 2938 0 
L 2938 2094 
Q 2938 2591 2744 2837 
Q 2550 3084 2163 3084 
Q 1697 3084 1428 2787 
Q 1159 2491 1159 1978 
L 1159 0 
L 581 0 
L 581 4863 
L 1159 4863 
L 1159 2956 
Q 1366 3272 1645 3428 
Q 1925 3584 2291 3584 
Q 2894 3584 3203 3211 
Q 3513 2838 3513 2113 
z
" transform="scale(0.015625)"/>
       <path id="DejaVuSans-6f" d="M 1959 3097 
Q 1497 3097 1228 2736 
Q 959 2375 959 1747 
Q 959 1119 1226 758 
Q 1494 397 1959 397 
Q 2419 397 2687 759 
Q 2956 1122 2956 1747 
Q 2956 2369 2687 2733 
Q 2419 3097 1959 3097 
z
M 1959 3584 
Q 2709 3584 3137 3096 
Q 3566 2609 3566 1747 
Q 3566 888 3137 398 
Q 2709 -91 1959 -91 
Q 1206 -91 779 398 
Q 353 888 353 1747 
Q 353 2609 779 3096 
Q 1206 3584 1959 3584 
z
" transform="scale(0.015625)"/>
       <path id="DejaVuSans-64" d="M 2906 2969 
L 2906 4863 
L 3481 4863 
L 3481 0 
L 2906 0 
L 2906 525 
Q 2725 213 2448 61 
Q 2172 -91 1784 -91 
Q 1150 -91 751 415 
Q 353 922 353 1747 
Q 353 2572 751 3078 
Q 1150 3584 1784 3584 
Q 2172 3584 2448 3432 
Q 2725 3281 2906 2969 
z
M 947 1747 
Q 947 1113 1208 752 
Q 1469 391 1925 391 
Q 2381 391 2643 752 
Q 2906 1113 2906 1747 
Q 2906 2381 2643 2742 
Q 2381 3103 1925 3103 
Q 1469 3103 1208 2742 
Q 947 2381 947 1747 
z
" transform="scale(0.015625)"/>
       <path id="DejaVuSans-73" d="M 2834 3397 
L 2834 2853 
Q 2591 2978 2328 3040 
Q 2066 3103 1784 3103 
Q 1356 3103 1142 2972 
Q 928 2841 928 2578 
Q 928 2378 1081 2264 
Q 1234 2150 1697 2047 
L 1894 2003 
Q 2506 1872 2764 1633 
Q 3022 1394 3022 966 
Q 3022 478 2636 193 
Q 2250 -91 1575 -91 
Q 1294 -91 989 -36 
Q 684 19 347 128 
L 347 722 
Q 666 556 975 473 
Q 1284 391 1588 391 
Q 1994 391 2212 530 
Q 2431 669 2431 922 
Q 2431 1156 2273 1281 
Q 2116 1406 1581 1522 
L 1381 1569 
Q 847 1681 609 1914 
Q 372 2147 372 2553 
Q 372 3047 722 3315 
Q 1072 3584 1716 3584 
Q 2034 3584 2315 3537 
Q 2597 3491 2834 3397 
z
" transform="scale(0.015625)"/>
      </defs>
      <use xlink:href="#DejaVuSans-41"/>
      <use xlink:href="#DejaVuSans-6e" x="68.408203"/>
      <use xlink:href="#DejaVuSans-63" x="131.787109"/>
      <use xlink:href="#DejaVuSans-68" x="186.767578"/>
      <use xlink:href="#DejaVuSans-6f" x="250.146484"/>
      <use xlink:href="#DejaVuSans-72" x="311.328125"/>
      <use xlink:href="#DejaVuSans-20" x="352.441406"/>
      <use xlink:href="#DejaVuSans-6e" x="384.228516"/>
      <use xlink:href="#DejaVuSans-6f" x="447.607422"/>
      <use xlink:href="#DejaVuSans-64" x="508.789062"/>
      <use xlink:href="#DejaVuSans-65" x="572.265625"/>
      <use xlink:href="#DejaVuSans-73" x="633.789062"/>
     </g>
    </g>
    <g id="PathCollection_2">
     <defs>
      <path id="m03282ecbc5" d="M -5.4 5.4 
L 5.4 -5.4 
M -5.4 -5.4 
L 5.4 5.4 
" style="stroke: #ff0000; stroke-width: 1.5"/>
     </defs>
     <g>
      <use xlink:href="#m03282ecbc5" x="313.495313" y="71.851562" style="fill: #ff0000; stroke: #ff0000; stroke-width: 1.5"/>
     </g>
    </g>
    <g id="text_22">
     <!-- Estimated position -->
     <g transform="translate(331.495313 74.476562) scale(0.1 -0.1)">
      <defs>
       <path id="DejaVuSans-61" d="M 2194 1759 
Q 1497 1759 1228 1600 
Q 959 1441 959 1056 
Q 959 750 1161 570 
Q 1363 391 1709 391 
Q 2188 391 2477 730 
Q 2766 1069 2766 1631 
L 2766 1759 
L 2194 1759 
z
M 3341 1997 
L 3341 0 
L 2766 0 
L 2766 531 
Q 2569 213 2275 61 
Q 1981 -91 1556 -91 
Q 1019 -91 701 211 
Q 384 513 384 1019 
Q 384 1609 779 1909 
Q 1175 2209 1959 2209 
L 2766 2209 
L 2766 2266 
Q 2766 2663 2505 2880 
Q 2244 3097 1772 3097 
Q 1472 3097 1187 3025 
Q 903 2953 641 2809 
L 641 3341 
Q 956 3463 1253 3523 
Q 1550 3584 1831 3584 
Q 2591 3584 2966 3190 
Q 3341 2797 3341 1997 
z
" transform="scale(0.015625)"/>
      </defs>
      <use xlink:href="#DejaVuSans-45"/>
      <use xlink:href="#DejaVuSans-73" x="63.183594"/>
      <use xlink:href="#DejaVuSans-74" x="115.283203"/>
      <use xlink:href="#DejaVuSans-69" x="154.492188"/>
      <use xlink:href="#DejaVuSans-6d" x="182.275391"/>
      <use xlink:href="#DejaVuSans-61" x="279.6875"/>
      <use xlink:href="#DejaVuSans-74" x="340.966797"/>
      <use xlink:href="#DejaVuSans-65" x="380.175781"/>
      <use xlink:href="#DejaVuSans-64" x="441.699219"/>
      <use xlink:href="#DejaVuSans-20" x="505.175781"/>
      <use xlink:href="#DejaVuSans-70" x="536.962891"/>
      <use xlink:href="#DejaVuSans-6f" x="600.439453"/>
      <use xlink:href="#DejaVuSans-73" x="661.621094"/>
      <use xlink:href="#DejaVuSans-69" x="713.720703"/>
      <use xlink:href="#DejaVuSans-74" x="741.503906"/>
      <use xlink:href="#DejaVuSans-69" x="780.712891"/>
      <use xlink:href="#DejaVuSans-6f" x="808.496094"/>
      <use xlink:href="#DejaVuSans-6e" x="869.677734"/>
     </g>
    </g>
    <g id="PathCollection_3">
     <defs>
      <path id="me8b5622f0b" d="M -5.4 5.4 
L 5.4 -5.4 
M -5.4 -5.4 
L 5.4 5.4 
" style="stroke: #000000; stroke-width: 1.5"/>
     </defs>
     <g>
      <use xlink:href="#me8b5622f0b" x="313.495313" y="86.529687" style="stroke: #000000; stroke-width: 1.5"/>
     </g>
    </g>
    <g id="text_23">
     <!-- Actual position -->
     <g transform="translate(331.495313 89.154687) scale(0.1 -0.1)">
      <defs>
       <path id="DejaVuSans-75" d="M 544 1381 
L 544 3500 
L 1119 3500 
L 1119 1403 
Q 1119 906 1312 657 
Q 1506 409 1894 409 
Q 2359 409 2629 706 
Q 2900 1003 2900 1516 
L 2900 3500 
L 3475 3500 
L 3475 0 
L 2900 0 
L 2900 538 
Q 2691 219 2414 64 
Q 2138 -91 1772 -91 
Q 1169 -91 856 284 
Q 544 659 544 1381 
z
M 1991 3584 
L 1991 3584 
z
" transform="scale(0.015625)"/>
       <path id="DejaVuSans-6c" d="M 603 4863 
L 1178 4863 
L 1178 0 
L 603 0 
L 603 4863 
z
" transform="scale(0.015625)"/>
      </defs>
      <use xlink:href="#DejaVuSans-41"/>
      <use xlink:href="#DejaVuSans-63" x="66.658203"/>
      <use xlink:href="#DejaVuSans-74" x="121.638672"/>
      <use xlink:href="#DejaVuSans-75" x="160.847656"/>
      <use xlink:href="#DejaVuSans-61" x="224.226562"/>
      <use xlink:href="#DejaVuSans-6c" x="285.505859"/>
      <use xlink:href="#DejaVuSans-20" x="313.289062"/>
      <use xlink:href="#DejaVuSans-70" x="345.076172"/>
      <use xlink:href="#DejaVuSans-6f" x="408.552734"/>
      <use xlink:href="#DejaVuSans-73" x="469.734375"/>
      <use xlink:href="#DejaVuSans-69" x="521.833984"/>
      <use xlink:href="#DejaVuSans-74" x="549.617188"/>
      <use xlink:href="#DejaVuSans-69" x="588.826172"/>
      <use xlink:href="#DejaVuSans-6f" x="616.609375"/>
      <use xlink:href="#DejaVuSans-6e" x="677.791016"/>
     </g>
    </g>
   </g>
   <g id="PathCollection_4">
    <g clip-path="url(#pf73d38541e)">
     <use xlink:href="#mb6c67a8fc2" x="295.2" y="181.8" style="stroke: #000000"/>
     <use xlink:href="#mb6c67a8fc2" x="279.799691" y="127.403992" style="stroke: #000000"/>
     <use xlink:href="#mb6c67a8fc2" x="218.718463" y="122.421471" style="stroke: #000000"/>
    </g>
   </g>
   <g id="PathCollection_5">
    <g clip-path="url(#pf73d38541e)">
     <use xlink:href="#m03282ecbc5" x="191.373704" y="136.155705" style="fill: #ff0000; stroke: #ff0000; stroke-width: 1.5"/>
    </g>
   </g>
   <g id="PathCollection_6">
    <g clip-path="url(#pf73d38541e)">
     <use xlink:href="#me8b5622f0b" x="242.016371" y="158.016613" style="stroke: #000000; stroke-width: 1.5"/>
    </g>
   </g>
  </g>
 </g>
 <defs>
  <clipPath id="pf73d38541e">
   <rect x="156.6" y="43.2" width="277.2" height="277.2"/>
  </clipPath>
 </defs>
</svg>
