<?xml version="1.0" encoding="UTF-8" standalone="no"?>
<!-- Created with Inkscape (http://www.inkscape.org/) -->

<svg
   version="1.1"
   id="svg2"
   width="794.66669"
   height="100"
   viewBox="0 0 794.66669 100"
   sodipodi:docname="HTWK_Zusatz_de_H_White_K.svg"
   inkscape:version="1.2.2 (b0a8486541, 2022-12-01)"
   xmlns:inkscape="http://www.inkscape.org/namespaces/inkscape"
   xmlns:sodipodi="http://sodipodi.sourceforge.net/DTD/sodipodi-0.dtd"
   xmlns="http://www.w3.org/2000/svg"
   xmlns:svg="http://www.w3.org/2000/svg">
  <defs
     id="defs6" />
  <sodipodi:namedview
     id="namedview4"
     pagecolor="#686868"
     bordercolor="#000000"
     borderopacity="0.25"
     inkscape:showpageshadow="2"
     inkscape:pageopacity="0"
     inkscape:pagecheckerboard="0"
     inkscape:deskcolor="#d1d1d1"
     showgrid="false"
     inkscape:zoom="1.2103956"
     inkscape:cx="354.42957"
     inkscape:cy="33.047046"
     inkscape:window-width="1920"
     inkscape:window-height="1080"
     inkscape:window-x="0"
     inkscape:window-y="0"
     inkscape:window-maximized="1"
     inkscape:current-layer="g10">
    <inkscape:page
       x="0"
       y="0"
       id="page8"
       width="794.66669"
       height="100" />
  </sodipodi:namedview>
  <g
     id="g10"
     inkscape:groupmode="layer"
     inkscape:label="Page 1"
     transform="matrix(1.3333333,0,0,-1.3333333,0,100)">
    <g
       id="g12"
       transform="scale(0.1)">
      <path
         d="M 1233.3,746.332 V 613.988 H 1042.23 V 50.3438 H 884.242 V 613.988 H 693.148 V 746.332 Z M 1439.9,50.3438 h 194.3 l 65.1,315.9722 c 11.74,53.387 20.31,109.957 28.81,161.2 h 4.29 c 7.49,-51.243 15.99,-107.813 27.75,-161.2 l 68.33,-315.9722 h 197.47 l 123.83,696.0002 h -150.51 l -48.04,-325.598 c -9.61,-71.5 -19.22,-145.172 -28.83,-219.879 h -4.28 c -13.87,74.707 -27.74,149.446 -41.63,219.879 l -74.71,325.598 H 1668.34 L 1593.63,420.746 C 1579.73,348.164 1565.88,274.52 1552,200.867 h -4.29 c -8.55,73.653 -19.2,147.297 -27.75,219.879 l -48.02,325.598 h -161.19 z m 816.61,0 h 158 V 338.484 h 74.62 L 2664.28,50.3438 h 171.87 l -216.32,359.7112 167.1,336.289 h -156.75 l -142.25,-279.59 h -73.42 v 279.59 h -158 z m -1810.342,0 H 604.145 V 746.344 H 446.168 Z m -444.668,0 H 159.477 V 746.332 H 1.5 Z M 209.906,376.059 h 185.871 v 67.726 H 209.906 v -67.726"
         style="fill:#ffffff;fill-opacity:1;fill-rule:nonzero;stroke:none"
         id="path14" />
      <path
         d="m 3184.1,466.254 h 18.11 v -59.981 h 66.54 v 59.981 h 18.32 V 323.152 h -18.32 v 67.418 h -66.54 v -67.418 h -18.11 z m 132.87,-90.313 c 0,35.559 23.13,55.84 49.08,55.84 25.98,0 49.09,-20.281 49.09,-55.84 0,-35.089 -23.11,-55.375 -49.09,-55.375 -25.95,0 -49.08,20.286 -49.08,55.375 z m 79.63,0 c 0,24.434 -12.21,41.028 -30.55,41.028 -18.1,0 -30.52,-16.594 -30.52,-41.028 0,-24.195 12.42,-40.558 30.52,-40.558 18.34,0 30.55,16.363 30.55,40.558 z m 45.22,0 c 0,35.559 23.77,55.84 51.03,55.84 13.97,0 23.56,-5.652 30.98,-12.429 l -9.16,-11.758 c -6.12,5.429 -12.66,9.375 -21.15,9.375 -19.2,0 -33.17,-16.594 -33.17,-41.028 0,-24.195 13.3,-40.558 32.72,-40.558 9.82,0 18.32,4.793 24.86,10.68 l 7.85,-12 c -9.59,-8.489 -21.6,-13.497 -34.24,-13.497 -28.14,0 -49.72,20.286 -49.72,55.375 z m 113.9,102.512 h 17.89 v -42.305 l -0.66,-21.808 c 10.04,9.59 20.74,17.441 35.35,17.441 22.25,0 32.27,-14.394 32.27,-41.426 v -67.203 h -17.87 v 64.793 c 0,19.852 -6.1,28.348 -20.06,28.348 -10.92,0 -18.34,-5.652 -29.03,-16.348 v -76.793 h -17.89 z m 112.87,-143.285 8.95,12 c 9.16,-7.422 18.53,-12.648 31.21,-12.648 13.95,0 20.94,7.394 20.94,16.554 0,10.906 -12.68,15.703 -24.24,20.063 -15.04,5.48 -31.6,12.648 -31.6,30.558 0,17.012 13.51,30.086 36.42,30.086 13.3,0 24.87,-5.437 32.93,-11.992 l -8.51,-11.348 c -7.19,5.469 -14.83,9.375 -24.2,9.375 -13.3,0 -19.42,-7.175 -19.42,-15.273 0,-10.02 11.57,-13.711 23.56,-18.289 15.27,-5.684 32.28,-12.012 32.28,-32.074 0,-17.231 -13.75,-31.614 -38.82,-31.614 -15.06,0 -29.46,6.321 -39.5,14.602 z m 101.92,40.773 c 0,35.559 23.79,55.84 51.05,55.84 13.97,0 23.56,-5.652 30.98,-12.429 l -9.16,-11.758 c -6.11,5.429 -12.66,9.375 -21.17,9.375 -19.2,0 -33.15,-16.594 -33.15,-41.028 0,-24.195 13.3,-40.558 32.72,-40.558 9.82,0 18.32,4.793 24.86,10.68 l 7.85,-12 c -9.59,-8.489 -21.6,-13.497 -34.24,-13.497 -28.14,0 -49.74,20.286 -49.74,55.375 z m 113.92,102.512 h 17.89 v -42.305 l -0.66,-21.808 c 10.04,9.59 20.72,17.441 35.35,17.441 22.25,0 32.27,-14.394 32.27,-41.426 v -67.203 h -17.89 v 64.793 c 0,19.852 -6.1,28.348 -20.04,28.348 -10.94,0 -18.34,-5.652 -29.03,-16.348 v -76.793 h -17.89 z M 4008.18,361.98 v 67.184 h 18.09 v -64.769 c 0,-19.852 5.9,-28.34 19.86,-28.34 10.9,0 18.54,5.429 28.58,17.863 v 75.246 h 17.89 V 323.152 h -14.83 l -1.54,16.594 h -0.64 c -9.83,-11.582 -20.3,-19.18 -34.91,-19.18 -22.48,0 -32.5,14.383 -32.5,41.414 z m 126.8,-17.437 v 133.91 h 17.87 v -135.23 c 0,-5.645 2.4,-7.84 5.04,-7.84 1.07,0 1.95,0 3.93,0.418 l 2.38,-13.496 c -2.38,-1.106 -5.45,-1.739 -10.24,-1.739 -13.53,0 -18.98,8.489 -18.98,23.977 z m 54.34,31.398 c 0,34.7 23.34,55.84 47.56,55.84 27.05,0 42.32,-19.394 42.32,-49.734 0,-3.692 -0.22,-7.637 -0.66,-10.227 h -71.55 c 1.31,-22.484 15.04,-36.871 35.33,-36.871 10.04,0 18.54,3.274 26.39,8.274 l 6.33,-11.758 c -9.14,-5.891 -20.49,-10.899 -34.9,-10.899 -28.34,0 -50.82,20.704 -50.82,55.375 z m 74.18,8.731 c 0,21.387 -9.61,32.93 -26.2,32.93 -14.82,0 -28.35,-12 -30.54,-32.93 z m 101.73,29.875 h -14.41 v 13.535 l 14.41,1.082 v 16.809 c 0,21.582 9.83,35.105 30.98,35.105 6.52,0 12.87,-1.523 17.66,-3.476 l -3.91,-13.75 c -3.92,1.75 -8.08,2.628 -12.01,2.628 -10.04,0 -14.84,-6.992 -14.84,-20.507 v -16.809 h 22.48 v -14.617 h -22.48 v -91.395 h -17.88 z m 66.88,-52.567 v 67.184 h 18.1 v -64.769 c 0,-19.852 5.9,-28.34 19.87,-28.34 10.9,0 18.53,5.429 28.57,17.863 v 75.246 h 17.89 V 323.152 h -14.84 l -1.52,16.594 h -0.67 c -9.8,-11.582 -20.27,-19.18 -34.88,-19.18 -22.48,0 -32.52,14.383 -32.52,41.414 z m 11.13,100.133 c 0,6.114 4.57,10.91 10.92,10.91 6.09,0 10.66,-4.796 10.66,-10.91 0,-6.113 -4.57,-10.906 -10.66,-10.906 -6.35,0 -10.92,4.793 -10.92,10.906 z m 42.11,0 c 0,6.114 4.57,10.91 10.69,10.91 6.32,0 10.91,-4.796 10.91,-10.91 0,-6.113 -4.59,-10.906 -10.91,-10.906 -6.12,0 -10.69,4.793 -10.69,10.906 z m 73.56,-32.949 h 14.84 l 1.52,-19.199 h 0.67 c 7.19,13.32 18.08,21.816 30.1,21.816 4.59,0 7.85,-0.644 11.32,-2.168 l -3.47,-15.703 c -3.5,1.086 -5.9,1.738 -10.26,1.738 -8.94,0 -19.65,-6.531 -26.83,-24.433 v -68.063 h -17.89 z M 4722.81,451 h -43.18 v 15.254 h 104.69 V 451 h -43.19 V 323.152 h -18.32 z m 66.08,-75.059 c 0,34.7 23.36,55.84 47.54,55.84 27.07,0 42.34,-19.394 42.34,-49.734 0,-3.692 -0.22,-7.637 -0.66,-10.227 h -71.55 c 1.31,-22.484 15.06,-36.871 35.33,-36.871 10.02,0 18.56,3.274 26.41,8.274 l 6.33,-11.758 c -9.18,-5.891 -20.51,-10.899 -34.92,-10.899 -28.36,0 -50.82,20.704 -50.82,55.375 z m 74.18,8.731 c 0,21.387 -9.61,32.93 -26.18,32.93 -14.84,0 -28.37,-12 -30.54,-32.93 z m 40.6,-8.731 c 0,35.559 23.81,55.84 51.06,55.84 13.96,0 23.55,-5.652 30.97,-12.429 l -9.18,-11.758 c -6.09,5.429 -12.63,9.375 -21.13,9.375 -19.22,0 -33.16,-16.594 -33.16,-41.028 0,-24.195 13.32,-40.558 32.71,-40.558 9.83,0 18.32,4.793 24.86,10.68 l 7.86,-12 c -9.59,-8.489 -21.61,-13.497 -34.26,-13.497 -28.13,0 -49.73,20.286 -49.73,55.375 z m 113.93,102.512 h 17.91 v -42.305 l -0.69,-21.808 c 10.06,9.59 20.75,17.441 35.36,17.441 22.26,0 32.28,-14.394 32.28,-41.426 v -67.203 h -17.91 v 64.793 c 0,19.852 -6.07,28.348 -20.02,28.348 -10.96,0 -18.34,-5.652 -29.02,-16.348 v -76.793 h -17.91 z m 125.29,-49.289 h 14.81 l 1.52,-15.254 h 0.68 c 10.02,10.02 20.92,17.871 35.55,17.871 22.25,0 32.26,-14.394 32.26,-41.426 v -67.203 h -17.87 v 64.793 c 0,19.852 -6.11,28.348 -20.07,28.348 -10.9,0 -18.32,-5.652 -29.03,-16.348 v -76.793 h -17.85 z m 122.66,33.379 c 0,6.973 5.43,11.562 12.42,11.562 6.97,0 12.44,-4.589 12.44,-11.562 0,-6.746 -5.47,-11.543 -12.44,-11.543 -6.99,0 -12.42,4.797 -12.42,11.543 z m 3.26,-33.379 h 17.87 V 323.152 h -17.87 z m 60.25,49.289 h 17.66 V 373.344 h 0.66 l 45.16,55.82 h 19.84 l -35.54,-42.539 40.35,-63.473 h -19.65 l -30.98,51.043 -19.84,-23.121 v -27.922 h -17.66 z m 106.92,-181.898 c 12.44,5.465 19.86,15.054 19.65,26.597 -0.65,-0.214 -1.53,-0.214 -2.17,-0.214 -7,0 -12.89,4.375 -12.89,12.445 0,7.84 6.11,12.637 13.32,12.637 9.37,0 15.06,-8.059 15.06,-21.133 0,-18.75 -10.9,-33.391 -28.6,-40.813 z M 3169.49,193.43 h 18.75 l 15.06,-77.864 c 2.62,-15.488 5.68,-30.7613 8.28,-46.2496 h 0.88 c 3.28,15.4883 6.76,30.9766 10.04,46.2496 l 19.84,77.864 h 16.59 l 19.84,-77.864 c 3.52,-15.031 6.99,-30.7613 10.47,-46.2496 h 0.9 c 2.59,15.4883 5.21,30.9766 8.04,46.2496 l 15.08,77.864 h 17.44 L 3301.04,50.3438 h -21.82 l -21.6,86.1792 c -2.62,11.114 -4.81,21.387 -6.98,32.5 h -0.87 c -2.19,-11.113 -4.81,-21.386 -7.21,-32.5 l -21.15,-86.1792 h -21.61 z m 187.91,-3.696 c 0,6.996 5.43,11.582 12.44,11.582 6.96,0 12.43,-4.586 12.43,-11.582 0,-6.746 -5.47,-11.543 -12.43,-11.543 -7.01,0 -12.44,4.797 -12.44,11.543 z m 3.28,-33.355 h 17.86 V 50.3438 h -17.86 z m 60.22,0 h 14.84 l 1.53,-19.223 h 0.64 c 7.21,13.324 18.11,21.821 30.12,21.821 4.57,0 7.85,-0.649 11.33,-2.168 l -3.48,-15.704 c -3.5,1.063 -5.9,1.739 -10.25,1.739 -8.95,0 -19.65,-6.535 -26.84,-24.438 V 50.3438 h -17.89 z m 85.74,-73.3243 v 58.6913 h -15.7 v 13.527 l 16.56,1.106 2.19,29.668 h 15.04 v -29.668 h 28.59 v -14.633 h -28.59 V 82.8516 c 0,-13.0743 4.16,-20.5 16.36,-20.5 3.71,0 8.52,1.5273 12.02,2.8437 l 3.47,-13.5351 c -5.88,-1.9532 -13.06,-3.9063 -19.63,-3.9063 -22.67,0 -30.31,14.3867 -30.31,35.3008 z m 65.14,-20.7031 8.94,12.0039 c 9.16,-7.4219 18.54,-12.6446 31.21,-12.6446 13.95,0 20.94,7.3907 20.94,16.5508 0,10.9063 -12.67,15.7031 -24.24,20.0781 -15.04,5.4692 -31.6,12.6372 -31.6,30.5472 0,17.011 13.52,30.09 36.43,30.09 13.3,0 24.86,-5.442 32.93,-11.973 l -8.52,-11.367 c -7.19,5.468 -14.82,9.375 -24.2,9.375 -13.3,0 -19.41,-7.18 -19.41,-15.278 0,-10.015 11.56,-13.711 23.55,-18.289 15.28,-5.683 32.29,-12.0114 32.29,-32.0817 0,-17.2227 -13.75,-31.6094 -38.83,-31.6094 -15.06,0 -29.45,6.3203 -39.49,14.5977 z m 101.05,40.7854 c 0,35.554 23.77,55.84 51.04,55.84 13.96,0 23.55,-5.657 30.97,-12.434 l -9.16,-11.758 c -6.11,5.43 -12.63,9.375 -21.15,9.375 -19.2,0 -33.16,-16.594 -33.16,-41.023 0,-24.2034 13.3,-40.5667 32.71,-40.5667 9.83,0 18.34,4.793 24.87,10.6836 L 3756.8,61.25 c -9.59,-8.4844 -21.6,-13.4961 -34.24,-13.4961 -28.13,0 -49.73,20.2813 -49.73,55.3831 z m 113.91,102.508 h 17.89 V 163.34 l -0.65,-21.809 c 10.02,9.59 20.73,17.446 35.34,17.446 22.26,0 32.28,-14.387 32.28,-41.426 V 50.3438 h -17.89 v 64.7932 c 0,19.851 -6.09,28.347 -20.06,28.347 -10.92,0 -18.32,-5.652 -29.02,-16.336 V 50.3438 h -17.89 z M 3903.79,77.8438 c 0,23.1252 19.84,34.6682 65,39.7072 0,13.504 -4.36,26.609 -21.82,26.609 -12.2,0 -23.34,-5.683 -31.62,-11.367 l -6.97,12.434 c 9.8,6.328 24.63,13.75 41.64,13.75 25.98,0 36.87,-17.231 36.87,-43.625 V 50.3438 h -14.82 l -1.52,12.6445 h -0.67 c -10.04,-8.2695 -21.81,-15.2344 -35.11,-15.2344 -17.68,0 -30.98,11.1133 -30.98,30.0899 z m 65,-1.5352 v 29.4534 c -35.33,-4.375 -47.56,-13.0784 -47.56,-26.6097 0,-12.0039 8.3,-17.0117 18.77,-17.0117 10.25,0 18.54,5.0078 28.79,14.168 z m 61.15,65.4374 h -14.41 v 13.527 l 14.41,1.106 v 16.766 c 0,21.601 9.81,35.136 30.98,35.136 6.52,0 12.87,-1.535 17.65,-3.484 l -3.92,-13.75 c -3.93,1.746 -8.07,2.637 -11.99,2.637 -10.04,0 -14.85,-7.004 -14.85,-20.539 v -16.766 h 38.83 l 2.19,29.668 h 14.82 v -29.668 h 28.79 v -14.633 h -28.79 V 82.8516 c 0,-13.0743 4.38,-20.5 16.58,-20.5 3.72,0 8.5,1.5273 12.02,2.8437 l 3.47,-13.5351 c -5.88,-1.9532 -13.06,-3.9063 -19.63,-3.9063 -22.67,0 -30.31,14.3867 -30.31,35.3008 v 58.6913 h -37.97 V 50.3438 h -17.87 z m 181.8,-52.578 v 67.211 h 18.1 V 91.582 c 0,-19.8554 5.88,-28.3398 19.85,-28.3398 10.92,0 18.55,5.4297 28.57,17.8594 v 75.2774 h 17.89 V 50.3438 h -14.82 l -1.53,16.5898 h -0.66 c -9.82,-11.582 -20.29,-19.1797 -34.9,-19.1797 -22.46,0 -32.5,14.3867 -32.5,41.4141 z m 126.66,67.211 h 14.82 l 1.53,-15.274 h 0.66 c 10.04,10.016 20.94,17.872 35.55,17.872 22.26,0 32.28,-14.387 32.28,-41.426 V 50.3438 h -17.89 v 64.7932 c 0,19.851 -6.09,28.347 -20.06,28.347 -10.91,0 -18.32,-5.652 -29.02,-16.336 V 50.3438 h -17.87 z m 118.28,-53.242 c 0,34.453 21.82,55.84 46.03,55.84 12.21,0 20.3,-4.582 29.67,-12.231 l -0.88,18.125 v 40.774 h 18.11 V 50.3438 h -14.82 l -1.55,12.4296 h -0.64 c -8.3,-8.0546 -19.63,-15.0195 -32.07,-15.0195 -26.62,0 -43.85,20.0274 -43.85,55.3831 z m 74.82,-25.7268 v 55.3828 c -8.94,8.098 -17.01,11.152 -25.74,11.152 -17.01,0 -30.55,-16.379 -30.55,-40.605 0,-25.2853 10.71,-40.5666 29.24,-40.5666 9.81,0 18.32,4.7969 27.05,14.6368 z M 4643.95,193.43 h 18.1 v -71.758 h 0.65 l 59.55,71.758 h 20.5 l -44.7,-54.524 51.7,-88.5622 h -20.3 l -42.77,74.3832 -24.63,-29.0239 V 50.3438 h -18.1 z M 4771.97,89.168 v 67.211 h 18.11 V 91.582 c 0,-19.8554 5.9,-28.3398 19.86,-28.3398 10.9,0 18.54,5.4297 28.58,17.8594 v 75.2774 h 17.87 V 50.3438 h -14.83 l -1.52,16.5898 h -0.66 c -9.83,-11.582 -20.28,-19.1797 -34.91,-19.1797 -22.46,0 -32.5,14.3867 -32.5,41.4141 z m 126.8,-17.4414 V 205.645 h 17.89 V 70.4102 c 0,-5.6446 2.4,-7.8399 5.02,-7.8399 1.09,0 1.95,0 3.93,0.418 l 2.4,-13.4961 c -2.4,-1.1016 -5.45,-1.7383 -10.26,-1.7383 -13.53,0 -18.98,8.4844 -18.98,23.9727 z m 65.25,11.3281 v 58.6913 h -15.7 v 13.527 l 16.58,1.106 2.19,29.668 h 15.04 v -29.668 h 28.57 v -14.633 h -28.57 V 82.8516 c 0,-13.0743 4.16,-20.5 16.35,-20.5 3.73,0 8.51,1.5273 12.01,2.8437 l 3.47,-13.5351 c -5.87,-1.9532 -13.06,-3.9063 -19.6,-3.9063 -22.7,0 -30.34,14.3867 -30.34,35.3008 z m 75.75,6.1133 v 67.211 h 18.08 V 91.582 c 0,-19.8554 5.9,-28.3398 19.86,-28.3398 10.92,0 18.56,5.4297 28.58,17.8594 v 75.2774 h 17.89 V 50.3438 h -14.82 l -1.53,16.5898 h -0.66 c -9.83,-11.582 -20.29,-19.1797 -34.9,-19.1797 -22.47,0 -32.5,14.3867 -32.5,41.4141 z m 124.02,67.211 h 14.82 l 1.55,-19.223 h 0.64 c 7.19,13.324 18.11,21.821 30.12,21.821 4.57,0 7.85,-0.649 11.33,-2.168 l -3.48,-15.704 c -3.52,1.063 -5.9,1.739 -10.25,1.739 -8.97,0 -19.65,-6.535 -26.84,-24.438 V 50.3438 h -17.89 z m 134.2,37.066 h 18.1 V 65.832 h 62.6 V 50.3438 h -80.7 z m 96.78,-90.308 c 0,34.695 23.34,55.84 47.55,55.84 27.06,0 42.33,-19.399 42.33,-49.739 0,-3.691 -0.22,-7.636 -0.67,-10.2224 h -71.56 c 1.33,-22.4922 15.06,-36.875 35.35,-36.875 10.04,0 18.54,3.2696 26.39,8.2696 l 6.33,-11.7579 c -9.16,-5.8867 -20.49,-10.8984 -34.88,-10.8984 -28.36,0 -50.84,20.7031 -50.84,55.3831 z m 74.18,8.726 c 0,21.391 -9.61,32.934 -26.18,32.934 -14.86,0 -28.38,-12.004 -30.56,-32.934 z m 45.43,77.871 c 0,6.985 5.44,11.567 12.44,11.567 6.97,0 12.42,-4.582 12.42,-11.567 0,-6.746 -5.45,-11.543 -12.42,-11.543 -7,0 -12.44,4.797 -12.44,11.543 z m 3.26,-33.379 h 17.89 V 50.3438 h -17.89 z m 60.02,0 h 14.84 l 1.52,-12.195 h 0.65 c 9.59,8.067 21.38,14.817 33.83,14.817 27.26,0 41.87,-21.145 41.87,-54.106 0,-35.9843 -21.6,-57.1171 -45.8,-57.1171 -9.82,0 -19.65,4.582 -29.45,12.1758 l 0.43,-18.5313 V 5.625 h -17.89 z m 74.18,-51.484 c 0,23.344 -7.86,39.055 -27.93,39.055 -8.95,0 -17.89,-5.02 -28.36,-14.406 V 73.8984 c 9.59,-8.0664 18.98,-11.125 25.95,-11.125 17.45,0 30.34,15.9571 30.34,42.0976 z m 38.34,-44.9413 55.84,81.8163 h -49.73 v 14.609 h 72.4 v -9.585 l -55.84,-81.7895 h 57.6 V 50.3438 h -80.27 z m 109.29,129.8043 c 0,6.985 5.47,11.567 12.44,11.567 6.98,0 12.43,-4.582 12.43,-11.567 0,-6.746 -5.45,-11.543 -12.43,-11.543 -6.97,0 -12.44,4.797 -12.44,11.543 z m 3.28,-33.379 h 17.88 V 50.3438 h -17.88 z M 5854.2,30.0586 c 0,8.957 5.88,17.4414 15.49,24.0156 v 0.8555 c -5.24,3.2656 -9.38,8.9492 -9.38,17.2266 0,8.9453 6.1,15.9492 11.55,19.6406 v 0.8867 c -6.98,5.6562 -13.73,15.9214 -13.73,28.5664 0,23.125 18.32,37.727 39.9,37.727 5.9,0 11.15,-1.086 15.08,-2.622 h 36.85 v -13.718 h -21.82 c 5,-4.805 8.72,-12.903 8.72,-21.817 0,-22.695 -17.23,-36.8747 -38.83,-36.8747 -5.24,0 -11.12,1.3203 -15.9,3.7031 -3.71,-3.2734 -6.78,-6.75 -6.78,-12.6484 0,-6.7461 4.38,-11.543 18.75,-11.543 h 20.53 c 24.63,0 37.07,-7.6484 37.07,-25.332 0,-19.6094 -20.72,-36.62109 -53.67,-36.62109 -25.94,0 -43.83,10.22269 -43.83,28.55469 z m 80.06,5.4687 c 0,9.8047 -7.64,13.0743 -21.39,13.0743 h -18.32 c -4.16,0 -9.16,0.4297 -13.75,1.7422 -7.64,-5.4336 -10.9,-11.7579 -10.9,-17.8633 0,-11.3672 11.56,-18.5469 30.76,-18.5469 20.3,0 33.6,10.4805 33.6,21.5937 z m -13.75,85.7227 c 0,15.488 -10.04,24.648 -22.48,24.648 -12.42,0 -22.46,-9.16 -22.46,-24.648 0,-15.488 10.25,-25.293 22.46,-25.293 12.22,0 22.48,9.805 22.48,25.293"
         style="fill:#ffffff;fill-opacity:1;fill-rule:nonzero;stroke:none"
         id="path16" />
    </g>
  </g>
</svg>
